# MagicaVoxel @ Ephtracy

# group
o 

# material
mtllib pupitre.mtl
usemtl palette

# normals
vn -1 0 0
vn 1 0 0
vn 0 0 1
vn 0 0 -1
vn 0 -1 0
vn 0 1 0

# texcoords
vt 0.298828 0.5
vt 0.798828 0.5
vt 0.927734 0.5

# verts
v 0.1 3.8 -0.2
v 0.1 3.8 -1.8
v 0.1 3.9 -0.2
v 0.1 3.9 -1.8
v 0.2 3.5 -0.3
v 0.2 3.5 -1.7
v 0.2 3.8 -0.3
v 0.2 3.8 -1.7
v 0.3 2 -0.4
v 0.3 2 -0.5
v 0.3 2 -1.5
v 0.3 2 -1.6
v 0.3 3.5 -0.4
v 0.3 3.5 -0.5
v 0.3 3.5 -1.5
v 0.3 3.5 -1.6
v 1.6 2 -0.4
v 1.6 2 -0.5
v 1.6 2 -1.5
v 1.6 2 -1.6
v 1.6 3.5 -0.4
v 1.6 3.5 -0.5
v 1.6 3.5 -1.5
v 1.6 3.5 -1.6
v 1.7 3.6 -0.3
v 1.7 3.6 -1.6
v 1.7 3.8 -0.3
v 1.7 3.8 -1.6
v 0.3 3.6 -0.3
v 0.3 3.6 -1.6
v 0.3 3.8 -0.3
v 0.3 3.8 -1.6
v 0.4 2 -0.4
v 0.4 2 -0.5
v 0.4 2 -1.5
v 0.4 2 -1.6
v 0.4 3.5 -0.4
v 0.4 3.5 -0.5
v 0.4 3.5 -1.5
v 0.4 3.5 -1.6
v 1.7 2 -0.4
v 1.7 2 -0.5
v 1.7 2 -1.5
v 1.7 2 -1.6
v 1.7 3.5 -0.4
v 1.7 3.5 -0.5
v 1.7 3.5 -1.5
v 1.7 3.5 -1.6
v 1.8 3.5 -0.3
v 1.8 3.5 -1.7
v 1.8 3.8 -0.3
v 1.8 3.8 -1.7
v 1.9 3.8 -0.2
v 1.9 3.8 -1.8
v 1.9 3.9 -0.2
v 1.9 3.9 -1.8
v 0.1 3.8 -0.2
v 0.1 3.9 -0.2
v 1.9 3.8 -0.2
v 1.9 3.9 -0.2
v 0.2 3.5 -0.3
v 0.2 3.8 -0.3
v 0.3 3.6 -0.3
v 0.3 3.8 -0.3
v 1.7 3.6 -0.3
v 1.7 3.8 -0.3
v 1.8 3.5 -0.3
v 1.8 3.8 -0.3
v 0.3 2 -0.4
v 0.3 3.5 -0.4
v 0.4 2 -0.4
v 0.4 3.5 -0.4
v 1.6 2 -0.4
v 1.6 3.5 -0.4
v 1.7 2 -0.4
v 1.7 3.5 -0.4
v 0.3 2 -1.5
v 0.3 3.5 -1.5
v 0.4 2 -1.5
v 0.4 3.5 -1.5
v 1.6 2 -1.5
v 1.6 3.5 -1.5
v 1.7 2 -1.5
v 1.7 3.5 -1.5
v 0.3 3.6 -1.6
v 0.3 3.8 -1.6
v 1.7 3.6 -1.6
v 1.7 3.8 -1.6
v 0.3 2 -0.5
v 0.3 3.5 -0.5
v 0.4 2 -0.5
v 0.4 3.5 -0.5
v 1.6 2 -0.5
v 1.6 3.5 -0.5
v 1.7 2 -0.5
v 1.7 3.5 -0.5
v 0.3 2 -1.6
v 0.3 3.5 -1.6
v 0.4 2 -1.6
v 0.4 3.5 -1.6
v 1.6 2 -1.6
v 1.6 3.5 -1.6
v 1.7 2 -1.6
v 1.7 3.5 -1.6
v 0.2 3.5 -1.7
v 0.2 3.8 -1.7
v 1.8 3.5 -1.7
v 1.8 3.8 -1.7
v 0.1 3.8 -1.8
v 0.1 3.9 -1.8
v 1.9 3.8 -1.8
v 1.9 3.9 -1.8
v 0.3 2 -0.4
v 0.4 2 -0.4
v 1.6 2 -0.4
v 1.7 2 -0.4
v 0.3 2 -0.5
v 0.4 2 -0.5
v 1.6 2 -0.5
v 1.7 2 -0.5
v 0.3 2 -1.5
v 0.4 2 -1.5
v 1.6 2 -1.5
v 1.7 2 -1.5
v 0.3 2 -1.6
v 0.4 2 -1.6
v 1.6 2 -1.6
v 1.7 2 -1.6
v 0.2 3.5 -0.3
v 1.8 3.5 -0.3
v 0.3 3.5 -0.4
v 0.4 3.5 -0.4
v 1.6 3.5 -0.4
v 1.7 3.5 -0.4
v 0.3 3.5 -0.5
v 0.4 3.5 -0.5
v 1.6 3.5 -0.5
v 1.7 3.5 -0.5
v 0.3 3.5 -1.5
v 0.4 3.5 -1.5
v 1.6 3.5 -1.5
v 1.7 3.5 -1.5
v 0.3 3.5 -1.6
v 0.4 3.5 -1.6
v 1.6 3.5 -1.6
v 1.7 3.5 -1.6
v 0.2 3.5 -1.7
v 1.8 3.5 -1.7
v 0.1 3.8 -0.2
v 1.9 3.8 -0.2
v 0.2 3.8 -0.3
v 0.3 3.8 -0.3
v 1.7 3.8 -0.3
v 1.8 3.8 -0.3
v 0.3 3.8 -1.6
v 1.7 3.8 -1.6
v 0.2 3.8 -1.7
v 1.8 3.8 -1.7
v 0.1 3.8 -1.8
v 1.9 3.8 -1.8
v 0.3 3.6 -0.3
v 1.7 3.6 -0.3
v 0.3 3.6 -1.6
v 1.7 3.6 -1.6
v 0.1 3.9 -0.2
v 1.9 3.9 -0.2
v 0.1 3.9 -1.8
v 1.9 3.9 -1.8

# faces
f 3/1/1 2/1/1 1/1/1
f 4/1/1 2/1/1 3/1/1
f 7/2/1 6/2/1 5/2/1
f 8/2/1 6/2/1 7/2/1
f 13/3/1 10/3/1 9/3/1
f 14/3/1 10/3/1 13/3/1
f 15/3/1 12/3/1 11/3/1
f 16/3/1 12/3/1 15/3/1
f 21/3/1 18/3/1 17/3/1
f 22/3/1 18/3/1 21/3/1
f 23/3/1 20/3/1 19/3/1
f 24/3/1 20/3/1 23/3/1
f 27/2/1 26/2/1 25/2/1
f 28/2/1 26/2/1 27/2/1
f 29/2/2 30/2/2 31/2/2
f 31/2/2 30/2/2 32/2/2
f 33/3/2 34/3/2 37/3/2
f 37/3/2 34/3/2 38/3/2
f 35/3/2 36/3/2 39/3/2
f 39/3/2 36/3/2 40/3/2
f 41/3/2 42/3/2 45/3/2
f 45/3/2 42/3/2 46/3/2
f 43/3/2 44/3/2 47/3/2
f 47/3/2 44/3/2 48/3/2
f 49/2/2 50/2/2 51/2/2
f 51/2/2 50/2/2 52/2/2
f 53/1/2 54/1/2 55/1/2
f 55/1/2 54/1/2 56/1/2
f 59/1/3 58/1/3 57/1/3
f 60/1/3 58/1/3 59/1/3
f 63/2/3 62/2/3 61/2/3
f 64/2/3 62/2/3 63/2/3
f 65/2/3 63/2/3 61/2/3
f 67/2/3 65/2/3 61/2/3
f 67/2/3 66/2/3 65/2/3
f 68/2/3 66/2/3 67/2/3
f 71/3/3 70/3/3 69/3/3
f 72/3/3 70/3/3 71/3/3
f 75/3/3 74/3/3 73/3/3
f 76/3/3 74/3/3 75/3/3
f 79/3/3 78/3/3 77/3/3
f 80/3/3 78/3/3 79/3/3
f 83/3/3 82/3/3 81/3/3
f 84/3/3 82/3/3 83/3/3
f 87/2/3 86/2/3 85/2/3
f 88/2/3 86/2/3 87/2/3
f 89/3/4 90/3/4 91/3/4
f 91/3/4 90/3/4 92/3/4
f 93/3/4 94/3/4 95/3/4
f 95/3/4 94/3/4 96/3/4
f 97/3/4 98/3/4 99/3/4
f 99/3/4 98/3/4 100/3/4
f 101/3/4 102/3/4 103/3/4
f 103/3/4 102/3/4 104/3/4
f 105/2/4 106/2/4 107/2/4
f 107/2/4 106/2/4 108/2/4
f 109/1/4 110/1/4 111/1/4
f 111/1/4 110/1/4 112/1/4
f 117/3/5 114/3/5 113/3/5
f 118/3/5 114/3/5 117/3/5
f 119/3/5 116/3/5 115/3/5
f 120/3/5 116/3/5 119/3/5
f 125/3/5 122/3/5 121/3/5
f 126/3/5 122/3/5 125/3/5
f 127/3/5 124/3/5 123/3/5
f 128/3/5 124/3/5 127/3/5
f 131/2/5 130/2/5 129/2/5
f 132/2/5 130/2/5 131/2/5
f 133/2/5 130/2/5 132/2/5
f 134/2/5 130/2/5 133/2/5
f 135/2/5 131/2/5 129/2/5
f 136/2/5 133/2/5 132/2/5
f 137/2/5 133/2/5 136/2/5
f 138/2/5 130/2/5 134/2/5
f 139/2/5 137/2/5 136/2/5
f 139/2/5 138/2/5 137/2/5
f 139/2/5 135/2/5 129/2/5
f 139/2/5 136/2/5 135/2/5
f 140/2/5 138/2/5 139/2/5
f 141/2/5 138/2/5 140/2/5
f 142/2/5 130/2/5 138/2/5
f 142/2/5 138/2/5 141/2/5
f 143/2/5 139/2/5 129/2/5
f 144/2/5 141/2/5 140/2/5
f 145/2/5 141/2/5 144/2/5
f 146/2/5 130/2/5 142/2/5
f 147/2/5 143/2/5 129/2/5
f 147/2/5 146/2/5 145/2/5
f 147/2/5 145/2/5 144/2/5
f 147/2/5 144/2/5 143/2/5
f 148/2/5 130/2/5 146/2/5
f 148/2/5 146/2/5 147/2/5
f 151/1/5 150/1/5 149/1/5
f 152/1/5 150/1/5 151/1/5
f 153/1/5 150/1/5 152/1/5
f 154/1/5 150/1/5 153/1/5
f 155/1/5 153/1/5 152/1/5
f 156/1/5 153/1/5 155/1/5
f 157/1/5 151/1/5 149/1/5
f 158/1/5 150/1/5 154/1/5
f 159/1/5 157/1/5 149/1/5
f 159/1/5 158/1/5 157/1/5
f 160/1/5 150/1/5 158/1/5
f 160/1/5 158/1/5 159/1/5
f 161/2/6 162/2/6 163/2/6
f 163/2/6 162/2/6 164/2/6
f 165/1/6 166/1/6 167/1/6
f 167/1/6 166/1/6 168/1/6
