# MagicaVoxel @ Ephtracy

# group
o 

# material
mtllib silla.mtl
usemtl palette

# normals
vn -1 0 0
vn 1 0 0
vn 0 0 1
vn 0 0 -1
vn 0 -1 0
vn 0 1 0

# texcoords
vt 0.798828 0.5
vt 0.978516 0.5

# verts
v 0.6 2 -0.4
v 0.6 2 -0.5
v 0.6 2.4 -0.4
v 0.6 2.4 -0.5
v 0.6 2.4 -0.6
v 0.6 2.9 -0.4
v 0.6 2.9 -0.5
v 0.6 2.9 -0.6
v 0.6 2.9 -1.2
v 0.6 3 -0.5
v 0.6 3 -1.2
v 0.6 3.9 -0.4
v 0.6 3.9 -0.5
v 0.7 2 -1.2
v 0.7 2 -1.3
v 0.7 2.3 -1.1
v 0.7 2.3 -1.2
v 0.7 2.3 -1.3
v 0.7 2.7 -1
v 0.7 2.7 -1.1
v 0.7 2.7 -1.2
v 0.7 2.9 -1
v 0.7 2.9 -1.1
v 1.1 3.2 -0.4
v 1.1 3.2 -0.5
v 1.1 3.3 -0.4
v 1.1 3.3 -0.5
v 1.2 2 -1.2
v 1.2 2 -1.3
v 1.2 2.3 -1.1
v 1.2 2.3 -1.2
v 1.2 2.3 -1.3
v 1.2 2.7 -1
v 1.2 2.7 -1.1
v 1.2 2.7 -1.2
v 1.2 2.9 -1
v 1.2 2.9 -1.1
v 1.2 3.1 -0.4
v 1.2 3.1 -0.5
v 1.2 3.2 -0.4
v 1.2 3.2 -0.5
v 1.3 2 -0.4
v 1.3 2 -0.5
v 1.3 2.4 -0.4
v 1.3 2.4 -0.5
v 1.3 2.4 -0.6
v 1.3 2.9 -0.5
v 1.3 2.9 -0.6
v 0.7 2 -0.4
v 0.7 2 -0.5
v 0.7 2.4 -0.4
v 0.7 2.4 -0.5
v 0.7 2.4 -0.6
v 0.7 2.9 -0.5
v 0.7 2.9 -0.6
v 0.8 2 -1.2
v 0.8 2 -1.3
v 0.8 2.3 -1.1
v 0.8 2.3 -1.2
v 0.8 2.3 -1.3
v 0.8 2.7 -1
v 0.8 2.7 -1.1
v 0.8 2.7 -1.2
v 0.8 2.9 -1
v 0.8 2.9 -1.1
v 0.8 3.1 -0.4
v 0.8 3.1 -0.5
v 0.8 3.2 -0.4
v 0.8 3.2 -0.5
v 0.9 3.2 -0.4
v 0.9 3.2 -0.5
v 0.9 3.3 -0.4
v 0.9 3.3 -0.5
v 1.3 2 -1.2
v 1.3 2 -1.3
v 1.3 2.3 -1.1
v 1.3 2.3 -1.2
v 1.3 2.3 -1.3
v 1.3 2.7 -1
v 1.3 2.7 -1.1
v 1.3 2.7 -1.2
v 1.3 2.9 -1
v 1.3 2.9 -1.1
v 1.4 2 -0.4
v 1.4 2 -0.5
v 1.4 2.4 -0.4
v 1.4 2.4 -0.5
v 1.4 2.4 -0.6
v 1.4 2.9 -0.4
v 1.4 2.9 -0.5
v 1.4 2.9 -0.6
v 1.4 2.9 -1.2
v 1.4 3 -0.5
v 1.4 3 -1.2
v 1.4 3.9 -0.4
v 1.4 3.9 -0.5
v 0.6 2 -0.4
v 0.6 2.4 -0.4
v 0.6 2.9 -0.4
v 0.6 3.9 -0.4
v 0.7 2 -0.4
v 0.7 2.4 -0.4
v 0.8 3.1 -0.4
v 0.8 3.2 -0.4
v 0.9 3.2 -0.4
v 0.9 3.3 -0.4
v 1.1 3.2 -0.4
v 1.1 3.3 -0.4
v 1.2 3.1 -0.4
v 1.2 3.2 -0.4
v 1.3 2 -0.4
v 1.3 2.4 -0.4
v 1.4 2 -0.4
v 1.4 2.4 -0.4
v 1.4 2.9 -0.4
v 1.4 3.9 -0.4
v 0.6 2.4 -0.5
v 0.6 2.9 -0.5
v 0.7 2.4 -0.5
v 0.7 2.9 -0.5
v 1.3 2.4 -0.5
v 1.3 2.9 -0.5
v 1.4 2.4 -0.5
v 1.4 2.9 -0.5
v 0.7 2.7 -1
v 0.7 2.9 -1
v 0.8 2.7 -1
v 0.8 2.9 -1
v 1.2 2.7 -1
v 1.2 2.9 -1
v 1.3 2.7 -1
v 1.3 2.9 -1
v 0.7 2.3 -1.1
v 0.7 2.7 -1.1
v 0.8 2.3 -1.1
v 0.8 2.7 -1.1
v 1.2 2.3 -1.1
v 1.2 2.7 -1.1
v 1.3 2.3 -1.1
v 1.3 2.7 -1.1
v 0.7 2 -1.2
v 0.7 2.3 -1.2
v 0.8 2 -1.2
v 0.8 2.3 -1.2
v 1.2 2 -1.2
v 1.2 2.3 -1.2
v 1.3 2 -1.2
v 1.3 2.3 -1.2
v 0.6 2 -0.5
v 0.6 2.4 -0.5
v 0.6 3 -0.5
v 0.6 3.9 -0.5
v 0.7 2 -0.5
v 0.7 2.4 -0.5
v 0.8 3.1 -0.5
v 0.8 3.2 -0.5
v 0.9 3.2 -0.5
v 0.9 3.3 -0.5
v 1.1 3.2 -0.5
v 1.1 3.3 -0.5
v 1.2 3.1 -0.5
v 1.2 3.2 -0.5
v 1.3 2 -0.5
v 1.3 2.4 -0.5
v 1.4 2 -0.5
v 1.4 2.4 -0.5
v 1.4 3 -0.5
v 1.4 3.9 -0.5
v 0.6 2.4 -0.6
v 0.6 2.9 -0.6
v 0.7 2.4 -0.6
v 0.7 2.9 -0.6
v 1.3 2.4 -0.6
v 1.3 2.9 -0.6
v 1.4 2.4 -0.6
v 1.4 2.9 -0.6
v 0.7 2.7 -1.1
v 0.7 2.9 -1.1
v 0.8 2.7 -1.1
v 0.8 2.9 -1.1
v 1.2 2.7 -1.1
v 1.2 2.9 -1.1
v 1.3 2.7 -1.1
v 1.3 2.9 -1.1
v 0.6 2.9 -1.2
v 0.6 3 -1.2
v 0.7 2.3 -1.2
v 0.7 2.7 -1.2
v 0.8 2.3 -1.2
v 0.8 2.7 -1.2
v 1.2 2.3 -1.2
v 1.2 2.7 -1.2
v 1.3 2.3 -1.2
v 1.3 2.7 -1.2
v 1.4 2.9 -1.2
v 1.4 3 -1.2
v 0.7 2 -1.3
v 0.7 2.3 -1.3
v 0.8 2 -1.3
v 0.8 2.3 -1.3
v 1.2 2 -1.3
v 1.2 2.3 -1.3
v 1.3 2 -1.3
v 1.3 2.3 -1.3
v 0.6 2 -0.4
v 0.7 2 -0.4
v 1.3 2 -0.4
v 1.4 2 -0.4
v 0.6 2 -0.5
v 0.7 2 -0.5
v 1.3 2 -0.5
v 1.4 2 -0.5
v 0.7 2 -1.2
v 0.8 2 -1.2
v 1.2 2 -1.2
v 1.3 2 -1.2
v 0.7 2 -1.3
v 0.8 2 -1.3
v 1.2 2 -1.3
v 1.3 2 -1.3
v 0.7 2.3 -1.1
v 0.8 2.3 -1.1
v 1.2 2.3 -1.1
v 1.3 2.3 -1.1
v 0.7 2.3 -1.2
v 0.8 2.3 -1.2
v 1.2 2.3 -1.2
v 1.3 2.3 -1.2
v 0.6 2.4 -0.5
v 0.7 2.4 -0.5
v 1.3 2.4 -0.5
v 1.4 2.4 -0.5
v 0.6 2.4 -0.6
v 0.7 2.4 -0.6
v 1.3 2.4 -0.6
v 1.4 2.4 -0.6
v 0.7 2.7 -1
v 0.8 2.7 -1
v 1.2 2.7 -1
v 1.3 2.7 -1
v 0.7 2.7 -1.1
v 0.8 2.7 -1.1
v 1.2 2.7 -1.1
v 1.3 2.7 -1.1
v 0.6 2.9 -0.4
v 1.4 2.9 -0.4
v 0.6 2.9 -0.5
v 0.7 2.9 -0.5
v 1.3 2.9 -0.5
v 1.4 2.9 -0.5
v 0.6 2.9 -0.6
v 0.7 2.9 -0.6
v 1.3 2.9 -0.6
v 1.4 2.9 -0.6
v 0.7 2.9 -1
v 0.8 2.9 -1
v 1.2 2.9 -1
v 1.3 2.9 -1
v 0.7 2.9 -1.1
v 0.8 2.9 -1.1
v 1.2 2.9 -1.1
v 1.3 2.9 -1.1
v 0.6 2.9 -1.2
v 1.4 2.9 -1.2
v 0.8 3.2 -0.4
v 0.9 3.2 -0.4
v 1.1 3.2 -0.4
v 1.2 3.2 -0.4
v 0.8 3.2 -0.5
v 0.9 3.2 -0.5
v 1.1 3.2 -0.5
v 1.2 3.2 -0.5
v 0.9 3.3 -0.4
v 1.1 3.3 -0.4
v 0.9 3.3 -0.5
v 1.1 3.3 -0.5
v 0.7 2.3 -1.2
v 0.8 2.3 -1.2
v 1.2 2.3 -1.2
v 1.3 2.3 -1.2
v 0.7 2.3 -1.3
v 0.8 2.3 -1.3
v 1.2 2.3 -1.3
v 1.3 2.3 -1.3
v 0.6 2.4 -0.4
v 0.7 2.4 -0.4
v 1.3 2.4 -0.4
v 1.4 2.4 -0.4
v 0.6 2.4 -0.5
v 0.7 2.4 -0.5
v 1.3 2.4 -0.5
v 1.4 2.4 -0.5
v 0.7 2.7 -1.1
v 0.8 2.7 -1.1
v 1.2 2.7 -1.1
v 1.3 2.7 -1.1
v 0.7 2.7 -1.2
v 0.8 2.7 -1.2
v 1.2 2.7 -1.2
v 1.3 2.7 -1.2
v 0.6 3 -0.5
v 1.4 3 -0.5
v 0.6 3 -1.2
v 1.4 3 -1.2
v 0.8 3.1 -0.4
v 1.2 3.1 -0.4
v 0.8 3.1 -0.5
v 1.2 3.1 -0.5
v 0.6 3.9 -0.4
v 1.4 3.9 -0.4
v 0.6 3.9 -0.5
v 1.4 3.9 -0.5

# faces
f 3/2/1 2/2/1 1/2/1
f 4/2/1 2/2/1 3/2/1
f 7/2/1 5/2/1 4/2/1
f 8/2/1 5/2/1 7/2/1
f 10/1/1 7/1/1 6/1/1
f 10/1/1 9/1/1 8/1/1
f 10/1/1 8/1/1 7/1/1
f 11/1/1 9/1/1 10/1/1
f 12/1/1 10/1/1 6/1/1
f 13/1/1 10/1/1 12/1/1
f 17/2/1 15/2/1 14/2/1
f 18/2/1 15/2/1 17/2/1
f 20/2/1 17/2/1 16/2/1
f 21/2/1 17/2/1 20/2/1
f 22/2/1 20/2/1 19/2/1
f 23/2/1 20/2/1 22/2/1
f 26/1/1 25/1/1 24/1/1
f 27/1/1 25/1/1 26/1/1
f 31/2/1 29/2/1 28/2/1
f 32/2/1 29/2/1 31/2/1
f 34/2/1 31/2/1 30/2/1
f 35/2/1 31/2/1 34/2/1
f 36/2/1 34/2/1 33/2/1
f 37/2/1 34/2/1 36/2/1
f 40/1/1 39/1/1 38/1/1
f 41/1/1 39/1/1 40/1/1
f 44/2/1 43/2/1 42/2/1
f 45/2/1 43/2/1 44/2/1
f 47/2/1 46/2/1 45/2/1
f 48/2/1 46/2/1 47/2/1
f 49/2/2 50/2/2 51/2/2
f 51/2/2 50/2/2 52/2/2
f 52/2/2 53/2/2 54/2/2
f 54/2/2 53/2/2 55/2/2
f 56/2/2 57/2/2 59/2/2
f 59/2/2 57/2/2 60/2/2
f 58/2/2 59/2/2 62/2/2
f 62/2/2 59/2/2 63/2/2
f 61/2/2 62/2/2 64/2/2
f 64/2/2 62/2/2 65/2/2
f 66/1/2 67/1/2 68/1/2
f 68/1/2 67/1/2 69/1/2
f 70/1/2 71/1/2 72/1/2
f 72/1/2 71/1/2 73/1/2
f 74/2/2 75/2/2 77/2/2
f 77/2/2 75/2/2 78/2/2
f 76/2/2 77/2/2 80/2/2
f 80/2/2 77/2/2 81/2/2
f 79/2/2 80/2/2 82/2/2
f 82/2/2 80/2/2 83/2/2
f 84/2/2 85/2/2 86/2/2
f 86/2/2 85/2/2 87/2/2
f 87/2/2 88/2/2 90/2/2
f 90/2/2 88/2/2 91/2/2
f 89/1/2 90/1/2 93/1/2
f 91/1/2 92/1/2 93/1/2
f 90/1/2 91/1/2 93/1/2
f 93/1/2 92/1/2 94/1/2
f 89/1/2 93/1/2 95/1/2
f 95/1/2 93/1/2 96/1/2
f 101/2/3 98/2/3 97/2/3
f 102/2/3 98/2/3 101/2/3
f 103/1/3 100/1/3 99/1/3
f 104/1/3 100/1/3 103/1/3
f 105/1/3 100/1/3 104/1/3
f 106/1/3 100/1/3 105/1/3
f 108/1/3 100/1/3 106/1/3
f 109/1/3 103/1/3 99/1/3
f 110/1/3 108/1/3 107/1/3
f 113/2/3 112/2/3 111/2/3
f 114/2/3 112/2/3 113/2/3
f 115/1/3 109/1/3 99/1/3
f 115/1/3 110/1/3 109/1/3
f 116/1/3 100/1/3 108/1/3
f 116/1/3 110/1/3 115/1/3
f 116/1/3 108/1/3 110/1/3
f 119/2/3 118/2/3 117/2/3
f 120/2/3 118/2/3 119/2/3
f 123/2/3 122/2/3 121/2/3
f 124/2/3 122/2/3 123/2/3
f 127/2/3 126/2/3 125/2/3
f 128/2/3 126/2/3 127/2/3
f 131/2/3 130/2/3 129/2/3
f 132/2/3 130/2/3 131/2/3
f 135/2/3 134/2/3 133/2/3
f 136/2/3 134/2/3 135/2/3
f 139/2/3 138/2/3 137/2/3
f 140/2/3 138/2/3 139/2/3
f 143/2/3 142/2/3 141/2/3
f 144/2/3 142/2/3 143/2/3
f 147/2/3 146/2/3 145/2/3
f 148/2/3 146/2/3 147/2/3
f 149/2/4 150/2/4 153/2/4
f 153/2/4 150/2/4 154/2/4
f 151/1/4 152/1/4 155/1/4
f 155/1/4 152/1/4 156/1/4
f 156/1/4 152/1/4 157/1/4
f 157/1/4 152/1/4 158/1/4
f 158/1/4 152/1/4 160/1/4
f 151/1/4 155/1/4 161/1/4
f 159/1/4 160/1/4 162/1/4
f 163/2/4 164/2/4 165/2/4
f 165/2/4 164/2/4 166/2/4
f 151/1/4 161/1/4 167/1/4
f 161/1/4 162/1/4 167/1/4
f 160/1/4 152/1/4 168/1/4
f 167/1/4 162/1/4 168/1/4
f 162/1/4 160/1/4 168/1/4
f 169/2/4 170/2/4 171/2/4
f 171/2/4 170/2/4 172/2/4
f 173/2/4 174/2/4 175/2/4
f 175/2/4 174/2/4 176/2/4
f 177/2/4 178/2/4 179/2/4
f 179/2/4 178/2/4 180/2/4
f 181/2/4 182/2/4 183/2/4
f 183/2/4 182/2/4 184/2/4
f 187/2/4 188/2/4 189/2/4
f 189/2/4 188/2/4 190/2/4
f 191/2/4 192/2/4 193/2/4
f 193/2/4 192/2/4 194/2/4
f 185/1/4 186/1/4 195/1/4
f 195/1/4 186/1/4 196/1/4
f 197/2/4 198/2/4 199/2/4
f 199/2/4 198/2/4 200/2/4
f 201/2/4 202/2/4 203/2/4
f 203/2/4 202/2/4 204/2/4
f 209/2/5 206/2/5 205/2/5
f 210/2/5 206/2/5 209/2/5
f 211/2/5 208/2/5 207/2/5
f 212/2/5 208/2/5 211/2/5
f 217/2/5 214/2/5 213/2/5
f 218/2/5 214/2/5 217/2/5
f 219/2/5 216/2/5 215/2/5
f 220/2/5 216/2/5 219/2/5
f 225/2/5 222/2/5 221/2/5
f 226/2/5 222/2/5 225/2/5
f 227/2/5 224/2/5 223/2/5
f 228/2/5 224/2/5 227/2/5
f 233/2/5 230/2/5 229/2/5
f 234/2/5 230/2/5 233/2/5
f 235/2/5 232/2/5 231/2/5
f 236/2/5 232/2/5 235/2/5
f 241/2/5 238/2/5 237/2/5
f 242/2/5 238/2/5 241/2/5
f 243/2/5 240/2/5 239/2/5
f 244/2/5 240/2/5 243/2/5
f 247/1/5 246/1/5 245/1/5
f 248/1/5 246/1/5 247/1/5
f 249/1/5 246/1/5 248/1/5
f 250/1/5 246/1/5 249/1/5
f 252/1/5 249/1/5 248/1/5
f 253/1/5 249/1/5 252/1/5
f 255/1/5 252/1/5 251/1/5
f 255/1/5 254/1/5 253/1/5
f 255/1/5 253/1/5 252/1/5
f 256/1/5 254/1/5 255/1/5
f 257/1/5 254/1/5 256/1/5
f 258/1/5 254/1/5 257/1/5
f 259/1/5 255/1/5 251/1/5
f 260/1/5 257/1/5 256/1/5
f 261/1/5 257/1/5 260/1/5
f 262/1/5 254/1/5 258/1/5
f 263/1/5 261/1/5 260/1/5
f 263/1/5 262/1/5 261/1/5
f 263/1/5 259/1/5 251/1/5
f 263/1/5 260/1/5 259/1/5
f 264/1/5 254/1/5 262/1/5
f 264/1/5 262/1/5 263/1/5
f 269/1/5 266/1/5 265/1/5
f 270/1/5 266/1/5 269/1/5
f 271/1/5 268/1/5 267/1/5
f 272/1/5 268/1/5 271/1/5
f 275/1/5 274/1/5 273/1/5
f 276/1/5 274/1/5 275/1/5
f 277/2/6 278/2/6 281/2/6
f 281/2/6 278/2/6 282/2/6
f 279/2/6 280/2/6 283/2/6
f 283/2/6 280/2/6 284/2/6
f 285/2/6 286/2/6 289/2/6
f 289/2/6 286/2/6 290/2/6
f 287/2/6 288/2/6 291/2/6
f 291/2/6 288/2/6 292/2/6
f 293/2/6 294/2/6 297/2/6
f 297/2/6 294/2/6 298/2/6
f 295/2/6 296/2/6 299/2/6
f 299/2/6 296/2/6 300/2/6
f 301/1/6 302/1/6 303/1/6
f 303/1/6 302/1/6 304/1/6
f 305/1/6 306/1/6 307/1/6
f 307/1/6 306/1/6 308/1/6
f 309/1/6 310/1/6 311/1/6
f 311/1/6 310/1/6 312/1/6
