# MagicaVoxel @ Ephtracy

# group
o 

# material
mtllib taquilla cerrada.mtl
usemtl palette

# normals
vn -1 0 0
vn 1 0 0
vn 0 0 1
vn 0 0 -1
vn 0 -1 0
vn 0 1 0

# texcoords
vt 0.919922 0.5
vt 0.927734 0.5
vt 0.978516 0.5
vt 0.986328 0.5
vt 0.994141 0.5

# verts
v 0.1 2 -0.2
v 0.1 2 -2
v 0.1 5.9 -0.2
v 0.1 5.9 -2
v 0.3 3.6 -0.1
v 0.3 3.6 -0.2
v 0.3 4.3 -0.1
v 0.3 4.3 -0.2
v 0.6 3.8 -0.1
v 0.6 3.8 -0.2
v 0.6 4.1 -0.1
v 0.6 4.1 -0.2
v 0.7 3.9 0
v 0.7 3.9 -0.1
v 0.7 4 0
v 0.7 4 -0.1
v 0.4 3.6 -0.1
v 0.4 3.6 -0.2
v 0.4 4.3 -0.1
v 0.4 4.3 -0.2
v 0.8 3.9 0
v 0.8 3.9 -0.1
v 0.8 4 0
v 0.8 4 -0.1
v 0.9 3.8 -0.1
v 0.9 3.8 -0.2
v 0.9 4.1 -0.1
v 0.9 4.1 -0.2
v 1.4 2 -0.2
v 1.4 2 -2
v 1.4 5.9 -0.2
v 1.4 5.9 -2
v 0.7 3.9 0
v 0.7 4 0
v 0.8 3.9 0
v 0.8 4 0
v 0.3 3.6 -0.1
v 0.3 4.3 -0.1
v 0.4 3.6 -0.1
v 0.4 4.3 -0.1
v 0.6 3.8 -0.1
v 0.6 4.1 -0.1
v 0.7 3.9 -0.1
v 0.7 4 -0.1
v 0.8 3.9 -0.1
v 0.8 4 -0.1
v 0.9 3.8 -0.1
v 0.9 4.1 -0.1
v 0.1 2 -0.2
v 0.1 5.9 -0.2
v 0.2 2.1 -0.2
v 0.2 5.8 -0.2
v 0.3 2.2 -0.2
v 0.3 3.6 -0.2
v 0.3 4.3 -0.2
v 0.3 5.7 -0.2
v 0.4 3.6 -0.2
v 0.4 4.3 -0.2
v 0.4 5.1 -0.2
v 0.4 5.2 -0.2
v 0.4 5.4 -0.2
v 0.4 5.5 -0.2
v 0.5 5.1 -0.2
v 0.5 5.2 -0.2
v 0.5 5.4 -0.2
v 0.5 5.5 -0.2
v 0.6 3.8 -0.2
v 0.6 4.1 -0.2
v 0.7 5.1 -0.2
v 0.7 5.2 -0.2
v 0.7 5.4 -0.2
v 0.7 5.5 -0.2
v 0.8 5.1 -0.2
v 0.8 5.2 -0.2
v 0.8 5.4 -0.2
v 0.8 5.5 -0.2
v 0.9 3.8 -0.2
v 0.9 4.1 -0.2
v 1 5.1 -0.2
v 1 5.2 -0.2
v 1 5.4 -0.2
v 1 5.5 -0.2
v 1.1 5.1 -0.2
v 1.1 5.2 -0.2
v 1.1 5.4 -0.2
v 1.1 5.5 -0.2
v 1.2 2.2 -0.2
v 1.2 5.7 -0.2
v 1.3 2.1 -0.2
v 1.3 5.8 -0.2
v 1.4 2 -0.2
v 1.4 5.9 -0.2
v 0.1 2 -2
v 0.1 5.9 -2
v 1.4 2 -2
v 1.4 5.9 -2
v 0.1 2 -0.2
v 1.4 2 -0.2
v 0.1 2 -2
v 1.4 2 -2
v 0.3 3.6 -0.1
v 0.4 3.6 -0.1
v 0.3 3.6 -0.2
v 0.4 3.6 -0.2
v 0.6 3.8 -0.1
v 0.9 3.8 -0.1
v 0.6 3.8 -0.2
v 0.9 3.8 -0.2
v 0.7 3.9 0
v 0.8 3.9 0
v 0.7 3.9 -0.1
v 0.8 3.9 -0.1
v 0.7 4 0
v 0.8 4 0
v 0.7 4 -0.1
v 0.8 4 -0.1
v 0.6 4.1 -0.1
v 0.9 4.1 -0.1
v 0.6 4.1 -0.2
v 0.9 4.1 -0.2
v 0.3 4.3 -0.1
v 0.4 4.3 -0.1
v 0.3 4.3 -0.2
v 0.4 4.3 -0.2
v 0.1 5.9 -0.2
v 1.4 5.9 -0.2
v 0.1 5.9 -2
v 1.4 5.9 -2

# faces
f 3/1/1 2/1/1 1/1/1
f 4/1/1 2/1/1 3/1/1
f 7/2/1 6/2/1 5/2/1
f 8/2/1 6/2/1 7/2/1
f 11/3/1 10/3/1 9/3/1
f 12/3/1 10/3/1 11/3/1
f 15/3/1 14/3/1 13/3/1
f 16/3/1 14/3/1 15/3/1
f 17/2/2 18/2/2 19/2/2
f 19/2/2 18/2/2 20/2/2
f 21/3/2 22/3/2 23/3/2
f 23/3/2 22/3/2 24/3/2
f 25/3/2 26/3/2 27/3/2
f 27/3/2 26/3/2 28/3/2
f 29/1/2 30/1/2 31/1/2
f 31/1/2 30/1/2 32/1/2
f 35/3/3 34/3/3 33/3/3
f 36/3/3 34/3/3 35/3/3
f 39/2/3 38/2/3 37/2/3
f 40/2/3 38/2/3 39/2/3
f 43/3/3 42/3/3 41/3/3
f 44/3/3 42/3/3 43/3/3
f 45/3/3 43/3/3 41/3/3
f 46/3/3 42/3/3 44/3/3
f 47/3/3 45/3/3 41/3/3
f 47/3/3 46/3/3 45/3/3
f 48/3/3 42/3/3 46/3/3
f 48/3/3 46/3/3 47/3/3
f 51/1/3 50/1/3 49/1/3
f 52/1/3 50/1/3 51/1/3
f 53/2/3 52/2/3 51/2/3
f 54/2/3 52/2/3 53/2/3
f 55/2/3 52/2/3 54/2/3
f 56/2/3 52/2/3 55/2/3
f 57/1/3 54/1/3 53/1/3
f 58/1/3 56/1/3 55/1/3
f 59/1/3 56/1/3 58/1/3
f 60/1/3 56/1/3 59/1/3
f 61/1/3 56/1/3 60/1/3
f 62/1/3 56/1/3 61/1/3
f 63/1/3 58/1/3 57/1/3
f 63/1/3 59/1/3 58/1/3
f 63/5/3 60/5/3 59/5/3
f 64/1/3 61/1/3 60/1/3
f 64/5/3 60/5/3 63/5/3
f 65/5/3 62/5/3 61/5/3
f 65/1/3 61/1/3 64/1/3
f 66/1/3 56/1/3 62/1/3
f 66/5/3 62/5/3 65/5/3
f 67/1/3 65/1/3 64/1/3
f 67/1/3 64/1/3 63/1/3
f 67/1/3 66/1/3 65/1/3
f 67/1/3 63/1/3 57/1/3
f 68/1/3 66/1/3 67/1/3
f 69/1/3 66/1/3 68/1/3
f 70/1/3 66/1/3 69/1/3
f 71/1/3 66/1/3 70/1/3
f 72/1/3 56/1/3 66/1/3
f 72/1/3 66/1/3 71/1/3
f 73/1/3 69/1/3 68/1/3
f 73/5/3 70/5/3 69/5/3
f 74/1/3 71/1/3 70/1/3
f 74/5/3 70/5/3 73/5/3
f 75/5/3 72/5/3 71/5/3
f 75/1/3 71/1/3 74/1/3
f 76/1/3 56/1/3 72/1/3
f 76/5/3 72/5/3 75/5/3
f 77/1/3 67/1/3 57/1/3
f 78/1/3 73/1/3 68/1/3
f 78/1/3 75/1/3 74/1/3
f 78/1/3 76/1/3 75/1/3
f 78/1/3 74/1/3 73/1/3
f 79/1/3 76/1/3 78/1/3
f 79/1/3 78/1/3 77/1/3
f 80/1/3 76/1/3 79/1/3
f 81/1/3 76/1/3 80/1/3
f 82/1/3 56/1/3 76/1/3
f 82/1/3 76/1/3 81/1/3
f 83/1/3 79/1/3 77/1/3
f 83/5/3 80/5/3 79/5/3
f 84/1/3 81/1/3 80/1/3
f 84/5/3 80/5/3 83/5/3
f 85/5/3 82/5/3 81/5/3
f 85/1/3 81/1/3 84/1/3
f 86/1/3 56/1/3 82/1/3
f 86/5/3 82/5/3 85/5/3
f 87/2/3 53/2/3 51/2/3
f 87/1/3 57/1/3 53/1/3
f 87/1/3 86/1/3 85/1/3
f 87/1/3 84/1/3 83/1/3
f 87/1/3 85/1/3 84/1/3
f 87/1/3 77/1/3 57/1/3
f 87/1/3 83/1/3 77/1/3
f 88/1/3 56/1/3 86/1/3
f 88/1/3 86/1/3 87/1/3
f 88/2/3 52/2/3 56/2/3
f 89/1/3 51/1/3 49/1/3
f 89/2/3 87/2/3 51/2/3
f 89/2/3 88/2/3 87/2/3
f 90/2/3 52/2/3 88/2/3
f 90/2/3 88/2/3 89/2/3
f 90/1/3 50/1/3 52/1/3
f 91/1/3 89/1/3 49/1/3
f 91/1/3 90/1/3 89/1/3
f 92/1/3 50/1/3 90/1/3
f 92/1/3 90/1/3 91/1/3
f 93/1/4 94/1/4 95/1/4
f 95/1/4 94/1/4 96/1/4
f 99/1/5 98/1/5 97/1/5
f 100/1/5 98/1/5 99/1/5
f 103/2/5 102/2/5 101/2/5
f 104/2/5 102/2/5 103/2/5
f 107/3/5 106/3/5 105/3/5
f 108/3/5 106/3/5 107/3/5
f 111/3/5 110/3/5 109/3/5
f 112/3/5 110/3/5 111/3/5
f 113/3/6 114/3/6 115/3/6
f 115/3/6 114/3/6 116/3/6
f 117/3/6 118/3/6 119/3/6
f 119/3/6 118/3/6 120/3/6
f 121/2/6 122/2/6 123/2/6
f 123/2/6 122/2/6 124/2/6
f 125/1/6 126/1/6 127/1/6
f 127/1/6 126/1/6 128/1/6
