# MagicaVoxel @ Ephtracy

# group
o 

# material
mtllib tile carretera paso.mtl
usemtl palette

# normals
vn -1 0 0
vn 1 0 0
vn 0 0 1
vn 0 0 -1
vn 0 -1 0
vn 0 1 0

# texcoords
vt 0.962891 0.5
vt 0.990234 0.5

# verts
v 0 2 0
v 0 2 -12.4
v 0 2.4 0
v 0 2.4 -12.4
v 0 2.5 0
v 0 2.5 -12.4
v 2.8 2.4 0
v 2.8 2.4 -12.4
v 2.8 2.5 0
v 2.8 2.5 -12.4
v 5.4 2.4 0
v 5.4 2.4 -12.4
v 5.4 2.5 0
v 5.4 2.5 -12.4
v 8.2 2.4 0
v 8.2 2.4 -12.4
v 8.2 2.5 0
v 8.2 2.5 -12.4
v 11 2.4 0
v 11 2.4 -12.4
v 11 2.5 0
v 11 2.5 -12.4
v 1.4 2.4 0
v 1.4 2.4 -12.4
v 1.4 2.5 0
v 1.4 2.5 -12.4
v 4.2 2.4 0
v 4.2 2.4 -12.4
v 4.2 2.5 0
v 4.2 2.5 -12.4
v 6.8 2.4 0
v 6.8 2.4 -12.4
v 6.8 2.5 0
v 6.8 2.5 -12.4
v 9.6 2.4 0
v 9.6 2.4 -12.4
v 9.6 2.5 0
v 9.6 2.5 -12.4
v 12.4 2 0
v 12.4 2 -12.4
v 12.4 2.4 0
v 12.4 2.4 -12.4
v 12.4 2.5 0
v 12.4 2.5 -12.4
v 0 2 0
v 0 2.4 0
v 0 2.5 0
v 1.4 2.4 0
v 1.4 2.5 0
v 2.8 2.4 0
v 2.8 2.5 0
v 4.2 2.4 0
v 4.2 2.5 0
v 5.4 2.4 0
v 5.4 2.5 0
v 6.8 2.4 0
v 6.8 2.5 0
v 8.2 2.4 0
v 8.2 2.5 0
v 9.6 2.4 0
v 9.6 2.5 0
v 11 2.4 0
v 11 2.5 0
v 12.4 2 0
v 12.4 2.4 0
v 12.4 2.5 0
v 0 2 -12.4
v 0 2.4 -12.4
v 0 2.5 -12.4
v 1.4 2.4 -12.4
v 1.4 2.5 -12.4
v 2.8 2.4 -12.4
v 2.8 2.5 -12.4
v 4.2 2.4 -12.4
v 4.2 2.5 -12.4
v 5.4 2.4 -12.4
v 5.4 2.5 -12.4
v 6.8 2.4 -12.4
v 6.8 2.5 -12.4
v 8.2 2.4 -12.4
v 8.2 2.5 -12.4
v 9.6 2.4 -12.4
v 9.6 2.5 -12.4
v 11 2.4 -12.4
v 11 2.5 -12.4
v 12.4 2 -12.4
v 12.4 2.4 -12.4
v 12.4 2.5 -12.4
v 0 2 0
v 12.4 2 0
v 0 2 -12.4
v 12.4 2 -12.4
v 1.4 2.4 0
v 2.8 2.4 0
v 4.2 2.4 0
v 5.4 2.4 0
v 6.8 2.4 0
v 8.2 2.4 0
v 9.6 2.4 0
v 11 2.4 0
v 1.4 2.4 -12.4
v 2.8 2.4 -12.4
v 4.2 2.4 -12.4
v 5.4 2.4 -12.4
v 6.8 2.4 -12.4
v 8.2 2.4 -12.4
v 9.6 2.4 -12.4
v 11 2.4 -12.4
v 0 2.5 0
v 1.4 2.5 0
v 2.8 2.5 0
v 4.2 2.5 0
v 5.4 2.5 0
v 6.8 2.5 0
v 8.2 2.5 0
v 9.6 2.5 0
v 11 2.5 0
v 12.4 2.5 0
v 0 2.5 -12.4
v 1.4 2.5 -12.4
v 2.8 2.5 -12.4
v 4.2 2.5 -12.4
v 5.4 2.5 -12.4
v 6.8 2.5 -12.4
v 8.2 2.5 -12.4
v 9.6 2.5 -12.4
v 11 2.5 -12.4
v 12.4 2.5 -12.4

# faces
f 3/2/1 2/2/1 1/2/1
f 4/2/1 2/2/1 3/2/1
f 5/1/1 4/1/1 3/1/1
f 6/1/1 4/1/1 5/1/1
f 9/1/1 8/1/1 7/1/1
f 10/1/1 8/1/1 9/1/1
f 13/1/1 12/1/1 11/1/1
f 14/1/1 12/1/1 13/1/1
f 17/1/1 16/1/1 15/1/1
f 18/1/1 16/1/1 17/1/1
f 21/1/1 20/1/1 19/1/1
f 22/1/1 20/1/1 21/1/1
f 23/1/2 24/1/2 25/1/2
f 25/1/2 24/1/2 26/1/2
f 27/1/2 28/1/2 29/1/2
f 29/1/2 28/1/2 30/1/2
f 31/1/2 32/1/2 33/1/2
f 33/1/2 32/1/2 34/1/2
f 35/1/2 36/1/2 37/1/2
f 37/1/2 36/1/2 38/1/2
f 39/2/2 40/2/2 41/2/2
f 41/2/2 40/2/2 42/2/2
f 41/1/2 42/1/2 43/1/2
f 43/1/2 42/1/2 44/1/2
f 48/2/3 46/2/3 45/2/3
f 48/1/3 47/1/3 46/1/3
f 49/1/3 47/1/3 48/1/3
f 50/2/3 48/2/3 45/2/3
f 52/2/3 50/2/3 45/2/3
f 52/1/3 51/1/3 50/1/3
f 53/1/3 51/1/3 52/1/3
f 54/2/3 52/2/3 45/2/3
f 56/2/3 54/2/3 45/2/3
f 56/1/3 55/1/3 54/1/3
f 57/1/3 55/1/3 56/1/3
f 58/2/3 56/2/3 45/2/3
f 60/2/3 58/2/3 45/2/3
f 60/1/3 59/1/3 58/1/3
f 61/1/3 59/1/3 60/1/3
f 62/2/3 60/2/3 45/2/3
f 64/2/3 62/2/3 45/2/3
f 65/1/3 63/1/3 62/1/3
f 65/2/3 62/2/3 64/2/3
f 66/1/3 63/1/3 65/1/3
f 67/2/4 68/2/4 70/2/4
f 68/1/4 69/1/4 70/1/4
f 70/1/4 69/1/4 71/1/4
f 67/2/4 70/2/4 72/2/4
f 67/2/4 72/2/4 74/2/4
f 72/1/4 73/1/4 74/1/4
f 74/1/4 73/1/4 75/1/4
f 67/2/4 74/2/4 76/2/4
f 67/2/4 76/2/4 78/2/4
f 76/1/4 77/1/4 78/1/4
f 78/1/4 77/1/4 79/1/4
f 67/2/4 78/2/4 80/2/4
f 67/2/4 80/2/4 82/2/4
f 80/1/4 81/1/4 82/1/4
f 82/1/4 81/1/4 83/1/4
f 67/2/4 82/2/4 84/2/4
f 67/2/4 84/2/4 86/2/4
f 84/1/4 85/1/4 87/1/4
f 86/2/4 84/2/4 87/2/4
f 87/1/4 85/1/4 88/1/4
f 91/2/5 90/2/5 89/2/5
f 92/2/5 90/2/5 91/2/5
f 93/2/6 94/2/6 101/2/6
f 101/2/6 94/2/6 102/2/6
f 95/2/6 96/2/6 103/2/6
f 103/2/6 96/2/6 104/2/6
f 97/2/6 98/2/6 105/2/6
f 105/2/6 98/2/6 106/2/6
f 99/2/6 100/2/6 107/2/6
f 107/2/6 100/2/6 108/2/6
f 109/1/6 110/1/6 119/1/6
f 119/1/6 110/1/6 120/1/6
f 111/1/6 112/1/6 121/1/6
f 121/1/6 112/1/6 122/1/6
f 113/1/6 114/1/6 123/1/6
f 123/1/6 114/1/6 124/1/6
f 115/1/6 116/1/6 125/1/6
f 125/1/6 116/1/6 126/1/6
f 117/1/6 118/1/6 127/1/6
f 127/1/6 118/1/6 128/1/6
