# MagicaVoxel @ Ephtracy

# group
o 

# material
mtllib cama.mtl
usemtl palette

# normals
vn -1 0 0
vn 1 0 0
vn 0 0 1
vn 0 0 -1
vn 0 -1 0
vn 0 1 0

# texcoords
vt 0.0644531 0.5
vt 0.169922 0.5
vt 0.306641 0.5
vt 0.962891 0.5

# verts
v 0.4 2 0
v 0.4 2 -2.4
v 0.4 4.4 0
v 0.4 4.4 -2.4
v 1.5 2.2 0
v 1.5 2.2 -0.1
v 1.5 2.3 0
v 1.5 2.3 -0.1
v 2.4 2 0
v 2.4 2 -0.1
v 2.4 2.5 0
v 2.4 2.5 -0.1
v 3.4 2.2 0
v 3.4 2.2 -0.1
v 3.4 2.3 0
v 3.4 2.3 -0.1
v 4.3 2 0
v 4.3 2 -0.1
v 4.3 2.5 0
v 4.3 2.5 -0.1
v 0.7 2 0
v 0.7 2 -0.1
v 0.7 2.5 0
v 0.7 2.5 -0.1
v 0.7 3.2 0
v 0.7 3.2 -0.3
v 0.7 3.2 -2.1
v 0.7 3.2 -2.4
v 0.7 3.4 -0.3
v 0.7 3.4 -0.4
v 0.7 3.4 -2
v 0.7 3.4 -2.1
v 0.7 3.5 -0.4
v 0.7 3.5 -2
v 0.7 4.4 0
v 0.7 4.4 -2.4
v 1.4 3.4 -0.4
v 1.4 3.4 -2
v 1.4 3.5 -0.4
v 1.4 3.5 -2
v 1.5 3.2 -0.3
v 1.5 3.2 -2.1
v 1.5 3.4 -0.3
v 1.5 3.4 -2.1
v 1.6 2.2 0
v 1.6 2.2 -0.1
v 1.6 2.3 0
v 1.6 2.3 -0.1
v 2.6 2 0
v 2.6 2 -0.1
v 2.6 2.5 0
v 2.6 2.5 -0.1
v 3.5 2.2 0
v 3.5 2.2 -0.1
v 3.5 2.3 0
v 3.5 2.3 -0.1
v 4.4 2 0
v 4.4 2 -2.4
v 4.4 2.6 0
v 4.4 2.6 -2.4
v 4.4 3.2 0
v 4.4 3.2 -2.4
v 0.4 2 0
v 0.4 4.4 0
v 0.7 2 0
v 0.7 2.5 0
v 0.7 2.6 0
v 0.7 3.2 0
v 0.7 4.4 0
v 1.5 2.2 0
v 1.5 2.3 0
v 1.6 2.2 0
v 1.6 2.3 0
v 2.4 2 0
v 2.4 2.5 0
v 2.6 2 0
v 2.6 2.5 0
v 3.4 2.2 0
v 3.4 2.3 0
v 3.5 2.2 0
v 3.5 2.3 0
v 4.3 2 0
v 4.3 2.5 0
v 4.4 2 0
v 4.4 2.6 0
v 4.4 3.2 0
v 0.7 2 -0.1
v 0.7 2.5 -0.1
v 1.5 2.2 -0.1
v 1.5 2.3 -0.1
v 1.6 2.2 -0.1
v 1.6 2.3 -0.1
v 2.4 2 -0.1
v 2.4 2.5 -0.1
v 2.6 2 -0.1
v 2.6 2.5 -0.1
v 3.4 2.2 -0.1
v 3.4 2.3 -0.1
v 3.5 2.2 -0.1
v 3.5 2.3 -0.1
v 4.3 2 -0.1
v 4.3 2.5 -0.1
v 0.7 3.2 -0.3
v 0.7 3.4 -0.3
v 1.5 3.2 -0.3
v 1.5 3.4 -0.3
v 0.7 3.4 -0.4
v 0.7 3.5 -0.4
v 1.4 3.4 -0.4
v 1.4 3.5 -0.4
v 0.7 3.4 -2
v 0.7 3.5 -2
v 1.4 3.4 -2
v 1.4 3.5 -2
v 0.7 3.2 -2.1
v 0.7 3.4 -2.1
v 1.5 3.2 -2.1
v 1.5 3.4 -2.1
v 0.4 2 -2.4
v 0.4 4.4 -2.4
v 0.7 2.6 -2.4
v 0.7 3.2 -2.4
v 0.7 4.4 -2.4
v 4.4 2 -2.4
v 4.4 2.6 -2.4
v 4.4 3.2 -2.4
v 0.4 2 0
v 0.7 2 0
v 2.4 2 0
v 2.6 2 0
v 4.3 2 0
v 4.4 2 0
v 0.7 2 -0.1
v 2.4 2 -0.1
v 2.6 2 -0.1
v 4.3 2 -0.1
v 0.7 2 -0.2
v 2.4 2 -0.2
v 2.6 2 -0.2
v 4.3 2 -0.2
v 0.4 2 -2.4
v 4.4 2 -2.4
v 1.5 2.2 0
v 1.6 2.2 0
v 3.4 2.2 0
v 3.5 2.2 0
v 1.5 2.2 -0.1
v 1.6 2.2 -0.1
v 3.4 2.2 -0.1
v 3.5 2.2 -0.1
v 0.7 2.5 0
v 2.4 2.5 0
v 2.6 2.5 0
v 4.3 2.5 0
v 0.7 2.5 -0.1
v 2.4 2.5 -0.1
v 2.6 2.5 -0.1
v 4.3 2.5 -0.1
v 1.5 2.3 0
v 1.6 2.3 0
v 3.4 2.3 0
v 3.5 2.3 0
v 1.5 2.3 -0.1
v 1.6 2.3 -0.1
v 3.4 2.3 -0.1
v 3.5 2.3 -0.1
v 0.7 3.2 0
v 4.4 3.2 0
v 0.7 3.2 -0.3
v 1.5 3.2 -0.3
v 0.7 3.2 -2.1
v 1.5 3.2 -2.1
v 0.7 3.2 -2.4
v 4.4 3.2 -2.4
v 0.7 3.4 -0.3
v 1.5 3.4 -0.3
v 0.7 3.4 -0.4
v 1.4 3.4 -0.4
v 0.7 3.4 -2
v 1.4 3.4 -2
v 0.7 3.4 -2.1
v 1.5 3.4 -2.1
v 0.7 3.5 -0.4
v 1.4 3.5 -0.4
v 0.7 3.5 -2
v 1.4 3.5 -2
v 0.4 4.4 0
v 0.7 4.4 0
v 0.4 4.4 -2.4
v 0.7 4.4 -2.4

# faces
f 3/3/1 2/3/1 1/3/1
f 4/3/1 2/3/1 3/3/1
f 7/3/1 6/3/1 5/3/1
f 8/3/1 6/3/1 7/3/1
f 11/3/1 10/3/1 9/3/1
f 12/3/1 10/3/1 11/3/1
f 15/3/1 14/3/1 13/3/1
f 16/3/1 14/3/1 15/3/1
f 19/3/1 18/3/1 17/3/1
f 20/3/1 18/3/1 19/3/1
f 21/3/2 22/3/2 23/3/2
f 23/3/2 22/3/2 24/3/2
f 25/3/2 26/3/2 29/3/2
f 27/3/2 28/3/2 32/3/2
f 29/3/2 30/3/2 33/3/2
f 31/3/2 32/3/2 34/3/2
f 29/3/2 33/3/2 35/3/2
f 33/3/2 34/3/2 35/3/2
f 25/3/2 29/3/2 35/3/2
f 34/3/2 32/3/2 36/3/2
f 35/3/2 34/3/2 36/3/2
f 32/3/2 28/3/2 36/3/2
f 37/4/2 38/4/2 39/4/2
f 39/4/2 38/4/2 40/4/2
f 41/4/2 42/4/2 43/4/2
f 43/4/2 42/4/2 44/4/2
f 45/3/2 46/3/2 47/3/2
f 47/3/2 46/3/2 48/3/2
f 49/3/2 50/3/2 51/3/2
f 51/3/2 50/3/2 52/3/2
f 53/3/2 54/3/2 55/3/2
f 55/3/2 54/3/2 56/3/2
f 57/3/2 58/3/2 59/3/2
f 59/3/2 58/3/2 60/3/2
f 59/1/2 60/1/2 61/1/2
f 61/1/2 60/1/2 62/1/2
f 65/3/3 64/3/3 63/3/3
f 66/3/3 64/3/3 65/3/3
f 67/3/3 64/3/3 66/3/3
f 68/3/3 64/3/3 67/3/3
f 69/3/3 64/3/3 68/3/3
f 72/3/3 71/3/3 70/3/3
f 73/3/3 71/3/3 72/3/3
f 75/3/3 67/3/3 66/3/3
f 76/3/3 75/3/3 74/3/3
f 77/3/3 67/3/3 75/3/3
f 77/3/3 75/3/3 76/3/3
f 80/3/3 79/3/3 78/3/3
f 81/3/3 79/3/3 80/3/3
f 83/3/3 67/3/3 77/3/3
f 84/3/3 83/3/3 82/3/3
f 85/1/3 68/1/3 67/1/3
f 85/3/3 83/3/3 84/3/3
f 85/3/3 67/3/3 83/3/3
f 86/1/3 68/1/3 85/1/3
f 89/2/3 88/2/3 87/2/3
f 90/2/3 88/2/3 89/2/3
f 91/2/3 89/2/3 87/2/3
f 92/2/3 88/2/3 90/2/3
f 93/2/3 91/2/3 87/2/3
f 93/2/3 92/2/3 91/2/3
f 94/2/3 88/2/3 92/2/3
f 94/2/3 92/2/3 93/2/3
f 97/2/3 96/2/3 95/2/3
f 98/2/3 96/2/3 97/2/3
f 99/2/3 97/2/3 95/2/3
f 100/2/3 96/2/3 98/2/3
f 101/2/3 99/2/3 95/2/3
f 101/2/3 100/2/3 99/2/3
f 102/2/3 96/2/3 100/2/3
f 102/2/3 100/2/3 101/2/3
f 105/4/3 104/4/3 103/4/3
f 106/4/3 104/4/3 105/4/3
f 109/4/3 108/4/3 107/4/3
f 110/4/3 108/4/3 109/4/3
f 111/4/4 112/4/4 113/4/4
f 113/4/4 112/4/4 114/4/4
f 115/4/4 116/4/4 117/4/4
f 117/4/4 116/4/4 118/4/4
f 119/3/4 120/3/4 121/3/4
f 121/3/4 120/3/4 122/3/4
f 122/3/4 120/3/4 123/3/4
f 119/3/4 121/3/4 124/3/4
f 121/1/4 122/1/4 125/1/4
f 124/3/4 121/3/4 125/3/4
f 125/1/4 122/1/4 126/1/4
f 133/3/5 128/3/5 127/3/5
f 134/3/5 130/3/5 129/3/5
f 135/3/5 130/3/5 134/3/5
f 136/3/5 132/3/5 131/3/5
f 137/3/5 133/3/5 127/3/5
f 137/2/5 134/2/5 133/2/5
f 138/3/5 135/3/5 134/3/5
f 138/2/5 134/2/5 137/2/5
f 139/2/5 136/2/5 135/2/5
f 139/3/5 135/3/5 138/3/5
f 140/3/5 132/3/5 136/3/5
f 140/2/5 136/2/5 139/2/5
f 141/3/5 137/3/5 127/3/5
f 141/3/5 138/3/5 137/3/5
f 141/3/5 140/3/5 139/3/5
f 141/3/5 139/3/5 138/3/5
f 142/3/5 132/3/5 140/3/5
f 142/3/5 140/3/5 141/3/5
f 147/3/5 144/3/5 143/3/5
f 148/3/5 144/3/5 147/3/5
f 149/3/5 146/3/5 145/3/5
f 150/3/5 146/3/5 149/3/5
f 155/3/5 152/3/5 151/3/5
f 156/3/5 152/3/5 155/3/5
f 157/3/5 154/3/5 153/3/5
f 158/3/5 154/3/5 157/3/5
f 159/3/6 160/3/6 163/3/6
f 163/3/6 160/3/6 164/3/6
f 161/3/6 162/3/6 165/3/6
f 165/3/6 162/3/6 166/3/6
f 167/1/6 168/1/6 169/1/6
f 169/1/6 168/1/6 170/1/6
f 170/1/6 168/1/6 172/1/6
f 171/1/6 172/1/6 173/1/6
f 172/1/6 168/1/6 174/1/6
f 173/1/6 172/1/6 174/1/6
f 175/4/6 176/4/6 177/4/6
f 177/4/6 176/4/6 178/4/6
f 178/4/6 176/4/6 180/4/6
f 179/4/6 180/4/6 181/4/6
f 180/4/6 176/4/6 182/4/6
f 181/4/6 180/4/6 182/4/6
f 183/4/6 184/4/6 185/4/6
f 185/4/6 184/4/6 186/4/6
f 187/3/6 188/3/6 189/3/6
f 189/3/6 188/3/6 190/3/6
