# MagicaVoxel @ Ephtracy

# group
o 

# material
mtllib tile pared pasillo con hueco para puerta invertido-1.mtl
usemtl palette

# normals
vn -1 0 0
vn 1 0 0
vn 0 0 1
vn 0 0 -1
vn 0 -1 0
vn 0 1 0

# texcoords
vt 0.724609 0.5
vt 0.919922 0.5

# verts
v -4.8 -2.8 -0.9
v -4.8 -2.8 -1
v -4.8 1.9 -0.9
v -4.8 1.9 -1
v -4.8 2.1 -0.9
v -4.8 2.1 -1
v -4.8 2.2 -0.9
v -4.8 2.2 -1
v -4.8 6.8 -0.9
v -4.8 6.8 -1
v 2 -2.8 -0.9
v 2 -2.8 -1
v 2 1.9 -0.9
v 2 1.9 -1
v 2 2.1 -0.9
v 2 2.1 -1
v 2 2.2 -0.9
v 2 2.2 -1
v 2 4.7 -0.9
v 2 4.7 -1
v -2 -2.8 -0.9
v -2 -2.8 -1
v -2 1.9 -0.9
v -2 1.9 -1
v -2 2.1 -0.9
v -2 2.1 -1
v -2 2.2 -0.9
v -2 2.2 -1
v -2 4.7 -0.9
v -2 4.7 -1
v 4.8 -2.8 -0.9
v 4.8 -2.8 -1
v 4.8 1.9 -0.9
v 4.8 1.9 -1
v 4.8 2.1 -0.9
v 4.8 2.1 -1
v 4.8 2.2 -0.9
v 4.8 2.2 -1
v 4.8 6.8 -0.9
v 4.8 6.8 -1
v -4.8 -2.8 -0.9
v -4.8 1.9 -0.9
v -4.8 2.1 -0.9
v -4.8 2.2 -0.9
v -4.8 6.8 -0.9
v -4.7 2.3 -0.9
v -4.7 2.4 -0.9
v -4.6 2.3 -0.9
v -4.6 2.4 -0.9
v -4.4 2.3 -0.9
v -4.4 2.4 -0.9
v -4.3 2.3 -0.9
v -4.3 2.4 -0.9
v -4.1 2.3 -0.9
v -4.1 2.4 -0.9
v -4 2.3 -0.9
v -4 2.4 -0.9
v -3.8 2.3 -0.9
v -3.8 2.4 -0.9
v -3.7 2.3 -0.9
v -3.7 2.4 -0.9
v -3.5 2.3 -0.9
v -3.5 2.4 -0.9
v -3.4 2.3 -0.9
v -3.4 2.4 -0.9
v -3.2 2.3 -0.9
v -3.2 2.4 -0.9
v -3.1 2.3 -0.9
v -3.1 2.4 -0.9
v -2.9 2.3 -0.9
v -2.9 2.4 -0.9
v -2.8 2.3 -0.9
v -2.8 2.4 -0.9
v -2.6 2.3 -0.9
v -2.6 2.4 -0.9
v -2.5 2.3 -0.9
v -2.5 2.4 -0.9
v -2.3 2.3 -0.9
v -2.3 2.4 -0.9
v -2.2 2.3 -0.9
v -2.2 2.4 -0.9
v -2 -2.8 -0.9
v -2 1.9 -0.9
v -2 2.1 -0.9
v -2 2.2 -0.9
v -2 4.7 -0.9
v 2 -2.8 -0.9
v 2 1.9 -0.9
v 2 2.1 -0.9
v 2 2.2 -0.9
v 2 4.7 -0.9
v 2.2 2.3 -0.9
v 2.2 2.4 -0.9
v 2.3 2.3 -0.9
v 2.3 2.4 -0.9
v 2.5 2.3 -0.9
v 2.5 2.4 -0.9
v 2.6 2.3 -0.9
v 2.6 2.4 -0.9
v 2.8 2.3 -0.9
v 2.8 2.4 -0.9
v 2.9 2.3 -0.9
v 2.9 2.4 -0.9
v 3.1 2.3 -0.9
v 3.1 2.4 -0.9
v 3.2 2.3 -0.9
v 3.2 2.4 -0.9
v 3.4 2.3 -0.9
v 3.4 2.4 -0.9
v 3.5 2.3 -0.9
v 3.5 2.4 -0.9
v 3.7 2.3 -0.9
v 3.7 2.4 -0.9
v 3.8 2.3 -0.9
v 3.8 2.4 -0.9
v 4 2.3 -0.9
v 4 2.4 -0.9
v 4.1 2.3 -0.9
v 4.1 2.4 -0.9
v 4.3 2.3 -0.9
v 4.3 2.4 -0.9
v 4.4 2.3 -0.9
v 4.4 2.4 -0.9
v 4.6 2.3 -0.9
v 4.6 2.4 -0.9
v 4.7 2.3 -0.9
v 4.7 2.4 -0.9
v 4.8 -2.8 -0.9
v 4.8 1.9 -0.9
v 4.8 2.1 -0.9
v 4.8 2.2 -0.9
v 4.8 6.8 -0.9
v -4.8 -2.8 -1
v -4.8 1.9 -1
v -4.8 2.1 -1
v -4.8 2.2 -1
v -4.8 6.8 -1
v -4.7 2.3 -1
v -4.7 2.4 -1
v -4.6 2.3 -1
v -4.6 2.4 -1
v -4.4 2.3 -1
v -4.4 2.4 -1
v -4.3 2.3 -1
v -4.3 2.4 -1
v -4.1 2.3 -1
v -4.1 2.4 -1
v -4 2.3 -1
v -4 2.4 -1
v -3.8 2.3 -1
v -3.8 2.4 -1
v -3.7 2.3 -1
v -3.7 2.4 -1
v -3.5 2.3 -1
v -3.5 2.4 -1
v -3.4 2.3 -1
v -3.4 2.4 -1
v -3.2 2.3 -1
v -3.2 2.4 -1
v -3.1 2.3 -1
v -3.1 2.4 -1
v -2.9 2.3 -1
v -2.9 2.4 -1
v -2.8 2.3 -1
v -2.8 2.4 -1
v -2.6 2.3 -1
v -2.6 2.4 -1
v -2.5 2.3 -1
v -2.5 2.4 -1
v -2.3 2.3 -1
v -2.3 2.4 -1
v -2.2 2.3 -1
v -2.2 2.4 -1
v -2 -2.8 -1
v -2 1.9 -1
v -2 2.1 -1
v -2 2.2 -1
v -2 4.7 -1
v 2 -2.8 -1
v 2 1.9 -1
v 2 2.1 -1
v 2 2.2 -1
v 2 4.7 -1
v 2.2 2.3 -1
v 2.2 2.4 -1
v 2.3 2.3 -1
v 2.3 2.4 -1
v 2.5 2.3 -1
v 2.5 2.4 -1
v 2.6 2.3 -1
v 2.6 2.4 -1
v 2.8 2.3 -1
v 2.8 2.4 -1
v 2.9 2.3 -1
v 2.9 2.4 -1
v 3.1 2.3 -1
v 3.1 2.4 -1
v 3.2 2.3 -1
v 3.2 2.4 -1
v 3.4 2.3 -1
v 3.4 2.4 -1
v 3.5 2.3 -1
v 3.5 2.4 -1
v 3.7 2.3 -1
v 3.7 2.4 -1
v 3.8 2.3 -1
v 3.8 2.4 -1
v 4 2.3 -1
v 4 2.4 -1
v 4.1 2.3 -1
v 4.1 2.4 -1
v 4.3 2.3 -1
v 4.3 2.4 -1
v 4.4 2.3 -1
v 4.4 2.4 -1
v 4.6 2.3 -1
v 4.6 2.4 -1
v 4.7 2.3 -1
v 4.7 2.4 -1
v 4.8 -2.8 -1
v 4.8 1.9 -1
v 4.8 2.1 -1
v 4.8 2.2 -1
v 4.8 6.8 -1
v -4.8 -2.8 -0.9
v -2 -2.8 -0.9
v 2 -2.8 -0.9
v 4.8 -2.8 -0.9
v -4.8 -2.8 -1
v -2 -2.8 -1
v 2 -2.8 -1
v 4.8 -2.8 -1
v -2 4.7 -0.9
v 2 4.7 -0.9
v -2 4.7 -1
v 2 4.7 -1
v -4.8 6.8 -0.9
v 4.8 6.8 -0.9
v -4.8 6.8 -1
v 4.8 6.8 -1

# faces
f 3/2/1 2/2/1 1/2/1
f 4/2/1 2/2/1 3/2/1
f 5/1/1 4/1/1 3/1/1
f 6/1/1 4/1/1 5/1/1
f 7/2/1 6/2/1 5/2/1
f 8/2/1 6/2/1 7/2/1
f 9/1/1 8/1/1 7/1/1
f 10/1/1 8/1/1 9/1/1
f 13/2/1 12/2/1 11/2/1
f 14/2/1 12/2/1 13/2/1
f 15/1/1 14/1/1 13/1/1
f 16/1/1 14/1/1 15/1/1
f 17/2/1 16/2/1 15/2/1
f 18/2/1 16/2/1 17/2/1
f 19/1/1 18/1/1 17/1/1
f 20/1/1 18/1/1 19/1/1
f 21/2/2 22/2/2 23/2/2
f 23/2/2 22/2/2 24/2/2
f 23/1/2 24/1/2 25/1/2
f 25/1/2 24/1/2 26/1/2
f 25/2/2 26/2/2 27/2/2
f 27/2/2 26/2/2 28/2/2
f 27/1/2 28/1/2 29/1/2
f 29/1/2 28/1/2 30/1/2
f 31/2/2 32/2/2 33/2/2
f 33/2/2 32/2/2 34/2/2
f 33/1/2 34/1/2 35/1/2
f 35/1/2 34/1/2 36/1/2
f 35/2/2 36/2/2 37/2/2
f 37/2/2 36/2/2 38/2/2
f 37/1/2 38/1/2 39/1/2
f 39/1/2 38/1/2 40/1/2
f 46/1/3 45/1/3 44/1/3
f 47/1/3 45/1/3 46/1/3
f 48/1/3 46/1/3 44/1/3
f 48/2/3 47/2/3 46/2/3
f 49/1/3 45/1/3 47/1/3
f 49/2/3 47/2/3 48/2/3
f 50/1/3 48/1/3 44/1/3
f 50/1/3 49/1/3 48/1/3
f 51/1/3 45/1/3 49/1/3
f 51/1/3 49/1/3 50/1/3
f 52/1/3 50/1/3 44/1/3
f 52/2/3 51/2/3 50/2/3
f 53/1/3 45/1/3 51/1/3
f 53/2/3 51/2/3 52/2/3
f 54/1/3 52/1/3 44/1/3
f 54/1/3 53/1/3 52/1/3
f 55/1/3 45/1/3 53/1/3
f 55/1/3 53/1/3 54/1/3
f 56/1/3 54/1/3 44/1/3
f 56/2/3 55/2/3 54/2/3
f 57/1/3 45/1/3 55/1/3
f 57/2/3 55/2/3 56/2/3
f 58/1/3 56/1/3 44/1/3
f 58/1/3 57/1/3 56/1/3
f 59/1/3 45/1/3 57/1/3
f 59/1/3 57/1/3 58/1/3
f 60/1/3 58/1/3 44/1/3
f 60/2/3 59/2/3 58/2/3
f 61/1/3 45/1/3 59/1/3
f 61/2/3 59/2/3 60/2/3
f 62/1/3 60/1/3 44/1/3
f 62/1/3 61/1/3 60/1/3
f 63/1/3 45/1/3 61/1/3
f 63/1/3 61/1/3 62/1/3
f 64/1/3 62/1/3 44/1/3
f 64/2/3 63/2/3 62/2/3
f 65/1/3 45/1/3 63/1/3
f 65/2/3 63/2/3 64/2/3
f 66/1/3 64/1/3 44/1/3
f 66/1/3 65/1/3 64/1/3
f 67/1/3 45/1/3 65/1/3
f 67/1/3 65/1/3 66/1/3
f 68/1/3 66/1/3 44/1/3
f 68/2/3 67/2/3 66/2/3
f 69/1/3 45/1/3 67/1/3
f 69/2/3 67/2/3 68/2/3
f 70/1/3 68/1/3 44/1/3
f 70/1/3 69/1/3 68/1/3
f 71/1/3 45/1/3 69/1/3
f 71/1/3 69/1/3 70/1/3
f 72/1/3 70/1/3 44/1/3
f 72/2/3 71/2/3 70/2/3
f 73/1/3 45/1/3 71/1/3
f 73/2/3 71/2/3 72/2/3
f 74/1/3 72/1/3 44/1/3
f 74/1/3 73/1/3 72/1/3
f 75/1/3 45/1/3 73/1/3
f 75/1/3 73/1/3 74/1/3
f 76/1/3 74/1/3 44/1/3
f 76/2/3 75/2/3 74/2/3
f 77/1/3 45/1/3 75/1/3
f 77/2/3 75/2/3 76/2/3
f 78/1/3 76/1/3 44/1/3
f 78/1/3 77/1/3 76/1/3
f 79/1/3 45/1/3 77/1/3
f 79/1/3 77/1/3 78/1/3
f 80/1/3 78/1/3 44/1/3
f 80/2/3 79/2/3 78/2/3
f 81/1/3 45/1/3 79/1/3
f 81/2/3 79/2/3 80/2/3
f 82/2/3 42/2/3 41/2/3
f 83/1/3 43/1/3 42/1/3
f 83/2/3 42/2/3 82/2/3
f 84/2/3 44/2/3 43/2/3
f 84/1/3 43/1/3 83/1/3
f 85/1/3 80/1/3 44/1/3
f 85/2/3 44/2/3 84/2/3
f 85/1/3 81/1/3 80/1/3
f 86/1/3 45/1/3 81/1/3
f 86/1/3 81/1/3 85/1/3
f 91/1/3 45/1/3 86/1/3
f 92/1/3 91/1/3 90/1/3
f 93/1/3 91/1/3 92/1/3
f 94/1/3 92/1/3 90/1/3
f 94/2/3 93/2/3 92/2/3
f 95/1/3 91/1/3 93/1/3
f 95/2/3 93/2/3 94/2/3
f 96/1/3 94/1/3 90/1/3
f 96/1/3 95/1/3 94/1/3
f 97/1/3 91/1/3 95/1/3
f 97/1/3 95/1/3 96/1/3
f 98/1/3 96/1/3 90/1/3
f 98/2/3 97/2/3 96/2/3
f 99/1/3 91/1/3 97/1/3
f 99/2/3 97/2/3 98/2/3
f 100/1/3 98/1/3 90/1/3
f 100/1/3 99/1/3 98/1/3
f 101/1/3 91/1/3 99/1/3
f 101/1/3 99/1/3 100/1/3
f 102/1/3 100/1/3 90/1/3
f 102/2/3 101/2/3 100/2/3
f 103/1/3 91/1/3 101/1/3
f 103/2/3 101/2/3 102/2/3
f 104/1/3 102/1/3 90/1/3
f 104/1/3 103/1/3 102/1/3
f 105/1/3 91/1/3 103/1/3
f 105/1/3 103/1/3 104/1/3
f 106/1/3 104/1/3 90/1/3
f 106/2/3 105/2/3 104/2/3
f 107/1/3 91/1/3 105/1/3
f 107/2/3 105/2/3 106/2/3
f 108/1/3 106/1/3 90/1/3
f 108/1/3 107/1/3 106/1/3
f 109/1/3 91/1/3 107/1/3
f 109/1/3 107/1/3 108/1/3
f 110/1/3 108/1/3 90/1/3
f 110/2/3 109/2/3 108/2/3
f 111/1/3 91/1/3 109/1/3
f 111/2/3 109/2/3 110/2/3
f 112/1/3 110/1/3 90/1/3
f 112/1/3 111/1/3 110/1/3
f 113/1/3 91/1/3 111/1/3
f 113/1/3 111/1/3 112/1/3
f 114/1/3 112/1/3 90/1/3
f 114/2/3 113/2/3 112/2/3
f 115/1/3 91/1/3 113/1/3
f 115/2/3 113/2/3 114/2/3
f 116/1/3 114/1/3 90/1/3
f 116/1/3 115/1/3 114/1/3
f 117/1/3 91/1/3 115/1/3
f 117/1/3 115/1/3 116/1/3
f 118/1/3 116/1/3 90/1/3
f 118/2/3 117/2/3 116/2/3
f 119/1/3 91/1/3 117/1/3
f 119/2/3 117/2/3 118/2/3
f 120/1/3 118/1/3 90/1/3
f 120/1/3 119/1/3 118/1/3
f 121/1/3 91/1/3 119/1/3
f 121/1/3 119/1/3 120/1/3
f 122/1/3 120/1/3 90/1/3
f 122/2/3 121/2/3 120/2/3
f 123/1/3 91/1/3 121/1/3
f 123/2/3 121/2/3 122/2/3
f 124/1/3 122/1/3 90/1/3
f 124/1/3 123/1/3 122/1/3
f 125/1/3 91/1/3 123/1/3
f 125/1/3 123/1/3 124/1/3
f 126/1/3 124/1/3 90/1/3
f 126/2/3 125/2/3 124/2/3
f 127/1/3 91/1/3 125/1/3
f 127/2/3 125/2/3 126/2/3
f 128/2/3 88/2/3 87/2/3
f 129/1/3 89/1/3 88/1/3
f 129/2/3 88/2/3 128/2/3
f 130/2/3 90/2/3 89/2/3
f 130/1/3 89/1/3 129/1/3
f 131/1/3 126/1/3 90/1/3
f 131/2/3 90/2/3 130/2/3
f 131/1/3 127/1/3 126/1/3
f 132/1/3 91/1/3 127/1/3
f 132/1/3 127/1/3 131/1/3
f 132/1/3 45/1/3 91/1/3
f 136/1/4 137/1/4 138/1/4
f 138/1/4 137/1/4 139/1/4
f 136/1/4 138/1/4 140/1/4
f 138/2/4 139/2/4 140/2/4
f 139/1/4 137/1/4 141/1/4
f 140/2/4 139/2/4 141/2/4
f 136/1/4 140/1/4 142/1/4
f 140/1/4 141/1/4 142/1/4
f 141/1/4 137/1/4 143/1/4
f 142/1/4 141/1/4 143/1/4
f 136/1/4 142/1/4 144/1/4
f 142/2/4 143/2/4 144/2/4
f 143/1/4 137/1/4 145/1/4
f 144/2/4 143/2/4 145/2/4
f 136/1/4 144/1/4 146/1/4
f 144/1/4 145/1/4 146/1/4
f 145/1/4 137/1/4 147/1/4
f 146/1/4 145/1/4 147/1/4
f 136/1/4 146/1/4 148/1/4
f 146/2/4 147/2/4 148/2/4
f 147/1/4 137/1/4 149/1/4
f 148/2/4 147/2/4 149/2/4
f 136/1/4 148/1/4 150/1/4
f 148/1/4 149/1/4 150/1/4
f 149/1/4 137/1/4 151/1/4
f 150/1/4 149/1/4 151/1/4
f 136/1/4 150/1/4 152/1/4
f 150/2/4 151/2/4 152/2/4
f 151/1/4 137/1/4 153/1/4
f 152/2/4 151/2/4 153/2/4
f 136/1/4 152/1/4 154/1/4
f 152/1/4 153/1/4 154/1/4
f 153/1/4 137/1/4 155/1/4
f 154/1/4 153/1/4 155/1/4
f 136/1/4 154/1/4 156/1/4
f 154/2/4 155/2/4 156/2/4
f 155/1/4 137/1/4 157/1/4
f 156/2/4 155/2/4 157/2/4
f 136/1/4 156/1/4 158/1/4
f 156/1/4 157/1/4 158/1/4
f 157/1/4 137/1/4 159/1/4
f 158/1/4 157/1/4 159/1/4
f 136/1/4 158/1/4 160/1/4
f 158/2/4 159/2/4 160/2/4
f 159/1/4 137/1/4 161/1/4
f 160/2/4 159/2/4 161/2/4
f 136/1/4 160/1/4 162/1/4
f 160/1/4 161/1/4 162/1/4
f 161/1/4 137/1/4 163/1/4
f 162/1/4 161/1/4 163/1/4
f 136/1/4 162/1/4 164/1/4
f 162/2/4 163/2/4 164/2/4
f 163/1/4 137/1/4 165/1/4
f 164/2/4 163/2/4 165/2/4
f 136/1/4 164/1/4 166/1/4
f 164/1/4 165/1/4 166/1/4
f 165/1/4 137/1/4 167/1/4
f 166/1/4 165/1/4 167/1/4
f 136/1/4 166/1/4 168/1/4
f 166/2/4 167/2/4 168/2/4
f 167/1/4 137/1/4 169/1/4
f 168/2/4 167/2/4 169/2/4
f 136/1/4 168/1/4 170/1/4
f 168/1/4 169/1/4 170/1/4
f 169/1/4 137/1/4 171/1/4
f 170/1/4 169/1/4 171/1/4
f 136/1/4 170/1/4 172/1/4
f 170/2/4 171/2/4 172/2/4
f 171/1/4 137/1/4 173/1/4
f 172/2/4 171/2/4 173/2/4
f 133/2/4 134/2/4 174/2/4
f 134/1/4 135/1/4 175/1/4
f 174/2/4 134/2/4 175/2/4
f 135/2/4 136/2/4 176/2/4
f 175/1/4 135/1/4 176/1/4
f 136/1/4 172/1/4 177/1/4
f 176/2/4 136/2/4 177/2/4
f 172/1/4 173/1/4 177/1/4
f 173/1/4 137/1/4 178/1/4
f 177/1/4 173/1/4 178/1/4
f 178/1/4 137/1/4 183/1/4
f 182/1/4 183/1/4 184/1/4
f 184/1/4 183/1/4 185/1/4
f 182/1/4 184/1/4 186/1/4
f 184/2/4 185/2/4 186/2/4
f 185/1/4 183/1/4 187/1/4
f 186/2/4 185/2/4 187/2/4
f 182/1/4 186/1/4 188/1/4
f 186/1/4 187/1/4 188/1/4
f 187/1/4 183/1/4 189/1/4
f 188/1/4 187/1/4 189/1/4
f 182/1/4 188/1/4 190/1/4
f 188/2/4 189/2/4 190/2/4
f 189/1/4 183/1/4 191/1/4
f 190/2/4 189/2/4 191/2/4
f 182/1/4 190/1/4 192/1/4
f 190/1/4 191/1/4 192/1/4
f 191/1/4 183/1/4 193/1/4
f 192/1/4 191/1/4 193/1/4
f 182/1/4 192/1/4 194/1/4
f 192/2/4 193/2/4 194/2/4
f 193/1/4 183/1/4 195/1/4
f 194/2/4 193/2/4 195/2/4
f 182/1/4 194/1/4 196/1/4
f 194/1/4 195/1/4 196/1/4
f 195/1/4 183/1/4 197/1/4
f 196/1/4 195/1/4 197/1/4
f 182/1/4 196/1/4 198/1/4
f 196/2/4 197/2/4 198/2/4
f 197/1/4 183/1/4 199/1/4
f 198/2/4 197/2/4 199/2/4
f 182/1/4 198/1/4 200/1/4
f 198/1/4 199/1/4 200/1/4
f 199/1/4 183/1/4 201/1/4
f 200/1/4 199/1/4 201/1/4
f 182/1/4 200/1/4 202/1/4
f 200/2/4 201/2/4 202/2/4
f 201/1/4 183/1/4 203/1/4
f 202/2/4 201/2/4 203/2/4
f 182/1/4 202/1/4 204/1/4
f 202/1/4 203/1/4 204/1/4
f 203/1/4 183/1/4 205/1/4
f 204/1/4 203/1/4 205/1/4
f 182/1/4 204/1/4 206/1/4
f 204/2/4 205/2/4 206/2/4
f 205/1/4 183/1/4 207/1/4
f 206/2/4 205/2/4 207/2/4
f 182/1/4 206/1/4 208/1/4
f 206/1/4 207/1/4 208/1/4
f 207/1/4 183/1/4 209/1/4
f 208/1/4 207/1/4 209/1/4
f 182/1/4 208/1/4 210/1/4
f 208/2/4 209/2/4 210/2/4
f 209/1/4 183/1/4 211/1/4
f 210/2/4 209/2/4 211/2/4
f 182/1/4 210/1/4 212/1/4
f 210/1/4 211/1/4 212/1/4
f 211/1/4 183/1/4 213/1/4
f 212/1/4 211/1/4 213/1/4
f 182/1/4 212/1/4 214/1/4
f 212/2/4 213/2/4 214/2/4
f 213/1/4 183/1/4 215/1/4
f 214/2/4 213/2/4 215/2/4
f 182/1/4 214/1/4 216/1/4
f 214/1/4 215/1/4 216/1/4
f 215/1/4 183/1/4 217/1/4
f 216/1/4 215/1/4 217/1/4
f 182/1/4 216/1/4 218/1/4
f 216/2/4 217/2/4 218/2/4
f 217/1/4 183/1/4 219/1/4
f 218/2/4 217/2/4 219/2/4
f 179/2/4 180/2/4 220/2/4
f 180/1/4 181/1/4 221/1/4
f 220/2/4 180/2/4 221/2/4
f 181/2/4 182/2/4 222/2/4
f 221/1/4 181/1/4 222/1/4
f 182/1/4 218/1/4 223/1/4
f 222/2/4 182/2/4 223/2/4
f 218/1/4 219/1/4 223/1/4
f 219/1/4 183/1/4 224/1/4
f 223/1/4 219/1/4 224/1/4
f 183/1/4 137/1/4 224/1/4
f 229/2/5 226/2/5 225/2/5
f 230/2/5 226/2/5 229/2/5
f 231/2/5 228/2/5 227/2/5
f 232/2/5 228/2/5 231/2/5
f 235/1/5 234/1/5 233/1/5
f 236/1/5 234/1/5 235/1/5
f 237/1/6 238/1/6 239/1/6
f 239/1/6 238/1/6 240/1/6
