# MagicaVoxel @ Ephtracy

# group
o 

# material
mtllib puerta metro.mtl
usemtl palette

# normals
vn -1 0 0
vn 1 0 0
vn 0 0 1
vn 0 0 -1
vn 0 -1 0
vn 0 1 0

# texcoords
vt 0.646484 0.5
vt 0.775391 0.5
vt 0.919922 0.5
vt 0.994141 0.5

# verts
v 0 2 -1.2
v 0 2 -1.3
v 0 6.5 -1.2
v 0 6.5 -1.3
v 0.2 4.2 -1.1
v 0.2 4.2 -1.2
v 0.2 6.4 -1.1
v 0.2 6.4 -1.2
v 0.2 4.2 -1.2
v 0.2 4.2 -1.3
v 0.2 6.4 -1.2
v 0.2 6.4 -1.3
v 1.3 2 -1.2
v 1.3 2 -1.3
v 1.3 2.2 -1.2
v 1.3 2.2 -1.3
v 1.3 2.6 -1.2
v 1.3 2.6 -1.3
v 1.3 4.2 -1.1
v 1.3 4.2 -1.2
v 1.3 4.2 -1.3
v 1.3 6.4 -1.1
v 1.3 6.4 -1.2
v 1.3 6.4 -1.3
v 1.3 6.5 -1.2
v 1.3 6.5 -1.3
v 0.2 4.2 -1.1
v 0.2 6.4 -1.1
v 0.3 4.3 -1.1
v 0.3 6.3 -1.1
v 1.2 4.3 -1.1
v 1.2 6.3 -1.1
v 1.3 4.2 -1.1
v 1.3 6.4 -1.1
v 0 2 -1.2
v 0 6.5 -1.2
v 0.1 2 -1.2
v 0.1 2.2 -1.2
v 0.1 2.6 -1.2
v 0.1 6.5 -1.2
v 0.2 4.2 -1.2
v 0.2 6.4 -1.2
v 1.3 2 -1.2
v 1.3 2.2 -1.2
v 1.3 2.6 -1.2
v 1.3 4.2 -1.2
v 1.3 6.4 -1.2
v 1.3 6.5 -1.2
v 0.2 4.2 -1.2
v 0.2 6.4 -1.2
v 0.3 4.3 -1.2
v 0.3 6.3 -1.2
v 1.2 4.3 -1.2
v 1.2 6.3 -1.2
v 1.3 4.2 -1.2
v 1.3 6.4 -1.2
v 0 2 -1.3
v 0 6.5 -1.3
v 0.1 2 -1.3
v 0.1 2.2 -1.3
v 0.1 2.6 -1.3
v 0.1 6.5 -1.3
v 0.2 4.2 -1.3
v 0.2 6.4 -1.3
v 1.3 2 -1.3
v 1.3 2.2 -1.3
v 1.3 2.6 -1.3
v 1.3 4.2 -1.3
v 1.3 6.4 -1.3
v 1.3 6.5 -1.3
v 0 2 -1.2
v 0.1 2 -1.2
v 1.3 2 -1.2
v 0 2 -1.3
v 0.1 2 -1.3
v 1.3 2 -1.3
v 0.2 4.2 -1.1
v 1.3 4.2 -1.1
v 0.2 4.2 -1.2
v 1.3 4.2 -1.2
v 0.2 6.4 -1.2
v 1.3 6.4 -1.2
v 0.2 6.4 -1.3
v 1.3 6.4 -1.3
v 0.2 4.2 -1.2
v 1.3 4.2 -1.2
v 0.2 4.2 -1.3
v 1.3 4.2 -1.3
v 0.2 6.4 -1.1
v 1.3 6.4 -1.1
v 0.2 6.4 -1.2
v 1.3 6.4 -1.2
v 0 6.5 -1.2
v 0.1 6.5 -1.2
v 1.3 6.5 -1.2
v 0 6.5 -1.3
v 0.1 6.5 -1.3
v 1.3 6.5 -1.3

# faces
f 3/4/1 2/4/1 1/4/1
f 4/4/1 2/4/1 3/4/1
f 7/4/1 6/4/1 5/4/1
f 8/4/1 6/4/1 7/4/1
f 9/3/2 10/3/2 11/3/2
f 11/3/2 10/3/2 12/3/2
f 13/3/2 14/3/2 15/3/2
f 15/3/2 14/3/2 16/3/2
f 15/2/2 16/2/2 17/2/2
f 17/2/2 16/2/2 18/2/2
f 17/3/2 18/3/2 20/3/2
f 20/3/2 18/3/2 21/3/2
f 19/4/2 20/4/2 22/4/2
f 22/4/2 20/4/2 23/4/2
f 23/3/2 24/3/2 25/3/2
f 25/3/2 24/3/2 26/3/2
f 29/4/3 28/4/3 27/4/3
f 30/4/3 28/4/3 29/4/3
f 31/4/3 29/4/3 27/4/3
f 31/1/3 30/1/3 29/1/3
f 32/4/3 28/4/3 30/4/3
f 32/1/3 30/1/3 31/1/3
f 33/4/3 31/4/3 27/4/3
f 33/4/3 32/4/3 31/4/3
f 34/4/3 28/4/3 32/4/3
f 34/4/3 32/4/3 33/4/3
f 37/4/3 36/4/3 35/4/3
f 38/4/3 36/4/3 37/4/3
f 39/4/3 36/4/3 38/4/3
f 40/4/3 36/4/3 39/4/3
f 41/3/3 40/3/3 39/3/3
f 42/3/3 40/3/3 41/3/3
f 43/3/3 38/3/3 37/3/3
f 44/2/3 39/2/3 38/2/3
f 44/3/3 38/3/3 43/3/3
f 45/3/3 41/3/3 39/3/3
f 45/2/3 39/2/3 44/2/3
f 46/3/3 41/3/3 45/3/3
f 47/3/3 40/3/3 42/3/3
f 48/3/3 40/3/3 47/3/3
f 49/4/4 50/4/4 51/4/4
f 51/4/4 50/4/4 52/4/4
f 49/4/4 51/4/4 53/4/4
f 51/1/4 52/1/4 53/1/4
f 52/4/4 50/4/4 54/4/4
f 53/1/4 52/1/4 54/1/4
f 49/4/4 53/4/4 55/4/4
f 53/4/4 54/4/4 55/4/4
f 54/4/4 50/4/4 56/4/4
f 55/4/4 54/4/4 56/4/4
f 57/4/4 58/4/4 59/4/4
f 59/4/4 58/4/4 60/4/4
f 60/4/4 58/4/4 61/4/4
f 61/4/4 58/4/4 62/4/4
f 61/3/4 62/3/4 63/3/4
f 63/3/4 62/3/4 64/3/4
f 59/3/4 60/3/4 65/3/4
f 60/2/4 61/2/4 66/2/4
f 65/3/4 60/3/4 66/3/4
f 61/3/4 63/3/4 67/3/4
f 66/2/4 61/2/4 67/2/4
f 67/3/4 63/3/4 68/3/4
f 64/3/4 62/3/4 69/3/4
f 69/3/4 62/3/4 70/3/4
f 74/4/5 72/4/5 71/4/5
f 75/3/5 73/3/5 72/3/5
f 75/4/5 72/4/5 74/4/5
f 76/3/5 73/3/5 75/3/5
f 79/4/5 78/4/5 77/4/5
f 80/4/5 78/4/5 79/4/5
f 83/3/5 82/3/5 81/3/5
f 84/3/5 82/3/5 83/3/5
f 85/3/6 86/3/6 87/3/6
f 87/3/6 86/3/6 88/3/6
f 89/4/6 90/4/6 91/4/6
f 91/4/6 90/4/6 92/4/6
f 93/4/6 94/4/6 96/4/6
f 94/3/6 95/3/6 97/3/6
f 96/4/6 94/4/6 97/4/6
f 97/3/6 95/3/6 98/3/6
