# MagicaVoxel @ Ephtracy

# group
o 

# material
mtllib tile pared 3.mtl
usemtl palette

# normals
vn -1 0 0
vn 1 0 0
vn 0 0 1
vn 0 0 -1
vn 0 -1 0
vn 0 1 0

# texcoords
vt 0.478516 0.5
vt 0.583984 0.5
vt 0.771484 0.5
vt 0.916016 0.5
vt 0.986328 0.5

# verts
v 0 2 -1.9
v 0 2 -2
v 0 2.5 -1.9
v 0 2.5 -2
v 0 9.8 -1.9
v 0 9.8 -2
v 0 10 -1.9
v 0 10 -2
v 0 10.3 -1.9
v 0 10.3 -2
v 0 11.6 -1.9
v 0 11.6 -2
v 9.6 2 -1.9
v 9.6 2 -2
v 9.6 2.5 -1.9
v 9.6 2.5 -2
v 9.6 9.8 -1.9
v 9.6 9.8 -2
v 9.6 10 -1.9
v 9.6 10 -2
v 9.6 10.3 -1.9
v 9.6 10.3 -2
v 9.6 11.6 -1.9
v 9.6 11.6 -2
v 0 2 -1.9
v 0 2.5 -1.9
v 0 9.8 -1.9
v 0 10 -1.9
v 0 10.3 -1.9
v 0 11.6 -1.9
v 3.2 7.4 -1.9
v 3.2 8.8 -1.9
v 3.3 7.5 -1.9
v 3.3 8.7 -1.9
v 3.4 7.6 -1.9
v 3.4 8.6 -1.9
v 3.5 7.7 -1.9
v 3.5 8.5 -1.9
v 3.7 7.7 -1.9
v 3.7 7.8 -1.9
v 3.7 8.4 -1.9
v 3.7 8.5 -1.9
v 3.8 7.8 -1.9
v 3.8 8.4 -1.9
v 3.9 8 -1.9
v 3.9 8.2 -1.9
v 4 7.9 -1.9
v 4 8 -1.9
v 4 8.2 -1.9
v 4 8.3 -1.9
v 4.1 7.8 -1.9
v 4.1 7.9 -1.9
v 4.1 8.3 -1.9
v 4.1 8.4 -1.9
v 4.2 7.7 -1.9
v 4.2 7.8 -1.9
v 4.2 8.4 -1.9
v 4.2 8.5 -1.9
v 4.3 7.7 -1.9
v 4.3 8 -1.9
v 4.3 8.2 -1.9
v 4.3 8.5 -1.9
v 4.8 8 -1.9
v 4.8 8.2 -1.9
v 4.9 7.9 -1.9
v 4.9 8 -1.9
v 5 7.7 -1.9
v 5 7.8 -1.9
v 5 7.9 -1.9
v 5 8 -1.9
v 5 8.1 -1.9
v 5 8.2 -1.9
v 5 8.5 -1.9
v 5.1 7.7 -1.9
v 5.1 7.8 -1.9
v 5.1 7.9 -1.9
v 5.1 8.1 -1.9
v 5.1 8.2 -1.9
v 5.2 7.8 -1.9
v 5.2 7.9 -1.9
v 5.2 8 -1.9
v 5.2 8.2 -1.9
v 5.2 8.5 -1.9
v 5.3 7.8 -1.9
v 5.3 7.9 -1.9
v 5.3 8 -1.9
v 5.3 8.2 -1.9
v 5.3 8.3 -1.9
v 5.4 7.7 -1.9
v 5.4 7.8 -1.9
v 5.4 8 -1.9
v 5.4 8.1 -1.9
v 5.4 8.2 -1.9
v 5.4 8.3 -1.9
v 5.5 7.7 -1.9
v 5.5 7.8 -1.9
v 5.5 8.1 -1.9
v 5.5 8.2 -1.9
v 5.7 7.6 -1.9
v 5.7 8.6 -1.9
v 5.8 7.5 -1.9
v 5.8 8.7 -1.9
v 5.9 7.4 -1.9
v 5.9 8.8 -1.9
v 9.6 2 -1.9
v 9.6 2.5 -1.9
v 9.6 9.8 -1.9
v 9.6 10 -1.9
v 9.6 10.3 -1.9
v 9.6 11.6 -1.9
v 0 2 -2
v 0 2.5 -2
v 0 9.8 -2
v 0 10 -2
v 0 10.3 -2
v 0 11.6 -2
v 3.2 7.4 -2
v 3.2 8.8 -2
v 3.3 7.5 -2
v 3.3 8.7 -2
v 3.4 7.6 -2
v 3.4 8.6 -2
v 3.5 7.7 -2
v 3.5 8.5 -2
v 3.7 7.7 -2
v 3.7 7.8 -2
v 3.7 8.4 -2
v 3.7 8.5 -2
v 3.8 7.8 -2
v 3.8 8.4 -2
v 3.9 8 -2
v 3.9 8.2 -2
v 4 7.9 -2
v 4 8 -2
v 4 8.2 -2
v 4 8.3 -2
v 4.1 7.8 -2
v 4.1 7.9 -2
v 4.1 8.3 -2
v 4.1 8.4 -2
v 4.2 7.7 -2
v 4.2 7.8 -2
v 4.2 8.4 -2
v 4.2 8.5 -2
v 4.3 7.7 -2
v 4.3 8 -2
v 4.3 8.2 -2
v 4.3 8.5 -2
v 4.8 8 -2
v 4.8 8.2 -2
v 4.9 7.9 -2
v 4.9 8 -2
v 5 7.7 -2
v 5 7.8 -2
v 5 7.9 -2
v 5 8 -2
v 5 8.1 -2
v 5 8.2 -2
v 5 8.5 -2
v 5.1 7.7 -2
v 5.1 7.8 -2
v 5.1 7.9 -2
v 5.1 8.1 -2
v 5.1 8.2 -2
v 5.2 7.8 -2
v 5.2 7.9 -2
v 5.2 8 -2
v 5.2 8.2 -2
v 5.2 8.5 -2
v 5.3 7.8 -2
v 5.3 7.9 -2
v 5.3 8 -2
v 5.3 8.2 -2
v 5.3 8.3 -2
v 5.4 7.7 -2
v 5.4 7.8 -2
v 5.4 8 -2
v 5.4 8.1 -2
v 5.4 8.2 -2
v 5.4 8.3 -2
v 5.5 7.7 -2
v 5.5 7.8 -2
v 5.5 8.1 -2
v 5.5 8.2 -2
v 5.7 7.6 -2
v 5.7 8.6 -2
v 5.8 7.5 -2
v 5.8 8.7 -2
v 5.9 7.4 -2
v 5.9 8.8 -2
v 9.6 2 -2
v 9.6 2.5 -2
v 9.6 9.8 -2
v 9.6 10 -2
v 9.6 10.3 -2
v 9.6 11.6 -2
v 0 2 -1.9
v 9.6 2 -1.9
v 0 2 -2
v 9.6 2 -2
v 0 11.6 -1.9
v 9.6 11.6 -1.9
v 0 11.6 -2
v 9.6 11.6 -2

# faces
f 3/5/1 2/5/1 1/5/1
f 4/5/1 2/5/1 3/5/1
f 5/4/1 4/4/1 3/4/1
f 6/4/1 4/4/1 5/4/1
f 7/3/1 6/3/1 5/3/1
f 8/3/1 6/3/1 7/3/1
f 9/1/1 8/1/1 7/1/1
f 10/1/1 8/1/1 9/1/1
f 11/3/1 10/3/1 9/3/1
f 12/3/1 10/3/1 11/3/1
f 13/5/2 14/5/2 15/5/2
f 15/5/2 14/5/2 16/5/2
f 15/4/2 16/4/2 17/4/2
f 17/4/2 16/4/2 18/4/2
f 17/3/2 18/3/2 19/3/2
f 19/3/2 18/3/2 20/3/2
f 19/1/2 20/1/2 21/1/2
f 21/1/2 20/1/2 22/1/2
f 21/3/2 22/3/2 23/3/2
f 23/3/2 22/3/2 24/3/2
f 31/4/3 27/4/3 26/4/3
f 32/4/3 27/4/3 31/4/3
f 33/2/3 32/2/3 31/2/3
f 34/2/3 32/2/3 33/2/3
f 35/4/3 34/4/3 33/4/3
f 36/4/3 34/4/3 35/4/3
f 37/2/3 36/2/3 35/2/3
f 38/2/3 36/2/3 37/2/3
f 39/2/3 37/2/3 35/2/3
f 39/4/3 38/4/3 37/4/3
f 40/4/3 38/4/3 39/4/3
f 41/4/3 38/4/3 40/4/3
f 42/2/3 36/2/3 38/2/3
f 42/4/3 38/4/3 41/4/3
f 43/4/3 41/4/3 40/4/3
f 43/2/3 40/2/3 39/2/3
f 44/2/3 42/2/3 41/2/3
f 44/4/3 41/4/3 43/4/3
f 45/2/3 44/2/3 43/2/3
f 46/2/3 44/2/3 45/2/3
f 47/2/3 45/2/3 43/2/3
f 48/4/3 46/4/3 45/4/3
f 48/2/3 45/2/3 47/2/3
f 49/2/3 44/2/3 46/2/3
f 49/4/3 46/4/3 48/4/3
f 50/2/3 44/2/3 49/2/3
f 51/2/3 43/2/3 39/2/3
f 51/2/3 47/2/3 43/2/3
f 52/4/3 48/4/3 47/4/3
f 52/2/3 47/2/3 51/2/3
f 52/4/3 50/4/3 49/4/3
f 52/4/3 49/4/3 48/4/3
f 53/2/3 44/2/3 50/2/3
f 53/4/3 50/4/3 52/4/3
f 54/2/3 42/2/3 44/2/3
f 54/2/3 44/2/3 53/2/3
f 55/2/3 39/2/3 35/2/3
f 55/2/3 51/2/3 39/2/3
f 56/4/3 52/4/3 51/4/3
f 56/2/3 51/2/3 55/2/3
f 56/4/3 53/4/3 52/4/3
f 56/4/3 54/4/3 53/4/3
f 57/2/3 42/2/3 54/2/3
f 57/4/3 54/4/3 56/4/3
f 58/2/3 36/2/3 42/2/3
f 58/2/3 42/2/3 57/2/3
f 59/4/3 57/4/3 56/4/3
f 59/4/3 56/4/3 55/4/3
f 59/4/3 58/4/3 57/4/3
f 59/2/3 55/2/3 35/2/3
f 60/4/3 58/4/3 59/4/3
f 61/4/3 58/4/3 60/4/3
f 62/2/3 36/2/3 58/2/3
f 62/4/3 58/4/3 61/4/3
f 63/4/3 61/4/3 60/4/3
f 63/2/3 60/2/3 59/2/3
f 64/2/3 62/2/3 61/2/3
f 64/4/3 61/4/3 63/4/3
f 65/2/3 63/2/3 59/2/3
f 65/2/3 64/2/3 63/2/3
f 66/2/3 64/2/3 65/2/3
f 67/2/3 59/2/3 35/2/3
f 67/2/3 65/2/3 59/2/3
f 68/2/3 65/2/3 67/2/3
f 69/4/3 66/4/3 65/4/3
f 69/2/3 65/2/3 68/2/3
f 70/2/3 64/2/3 66/2/3
f 70/4/3 66/4/3 69/4/3
f 71/2/3 64/2/3 70/2/3
f 72/2/3 62/2/3 64/2/3
f 72/2/3 64/2/3 71/2/3
f 73/2/3 36/2/3 62/2/3
f 73/2/3 62/2/3 72/2/3
f 74/4/3 68/4/3 67/4/3
f 74/2/3 67/2/3 35/2/3
f 75/2/3 69/2/3 68/2/3
f 75/4/3 68/4/3 74/4/3
f 75/2/3 70/2/3 69/2/3
f 76/2/3 70/2/3 75/2/3
f 77/2/3 72/2/3 71/2/3
f 77/4/3 71/4/3 70/4/3
f 78/4/3 73/4/3 72/4/3
f 78/2/3 72/2/3 77/2/3
f 79/4/3 76/4/3 75/4/3
f 79/2/3 75/2/3 74/2/3
f 80/2/3 70/2/3 76/2/3
f 80/4/3 76/4/3 79/4/3
f 81/4/3 77/4/3 70/4/3
f 81/2/3 70/2/3 80/2/3
f 81/4/3 78/4/3 77/4/3
f 82/4/3 73/4/3 78/4/3
f 82/4/3 78/4/3 81/4/3
f 83/2/3 36/2/3 73/2/3
f 83/4/3 73/4/3 82/4/3
f 84/2/3 79/2/3 74/2/3
f 84/2/3 80/2/3 79/2/3
f 85/4/3 81/4/3 80/4/3
f 85/2/3 80/2/3 84/2/3
f 85/4/3 82/4/3 81/4/3
f 86/4/3 82/4/3 85/4/3
f 87/2/3 83/2/3 82/2/3
f 87/4/3 82/4/3 86/4/3
f 88/2/3 83/2/3 87/2/3
f 89/2/3 74/2/3 35/2/3
f 89/2/3 84/2/3 74/2/3
f 90/4/3 86/4/3 85/4/3
f 90/2/3 84/2/3 89/2/3
f 90/4/3 85/4/3 84/4/3
f 91/2/3 87/2/3 86/2/3
f 91/4/3 86/4/3 90/4/3
f 92/2/3 87/2/3 91/2/3
f 93/4/3 88/4/3 87/4/3
f 93/2/3 87/2/3 92/2/3
f 94/2/3 83/2/3 88/2/3
f 94/4/3 88/4/3 93/4/3
f 95/2/3 89/2/3 35/2/3
f 95/4/3 90/4/3 89/4/3
f 96/2/3 92/2/3 91/2/3
f 96/4/3 90/4/3 95/4/3
f 96/2/3 91/2/3 90/2/3
f 97/4/3 93/4/3 92/4/3
f 97/2/3 92/2/3 96/2/3
f 98/2/3 94/2/3 93/2/3
f 98/4/3 93/4/3 97/4/3
f 99/4/3 35/4/3 33/4/3
f 99/2/3 96/2/3 95/2/3
f 99/2/3 98/2/3 97/2/3
f 99/2/3 97/2/3 96/2/3
f 99/2/3 95/2/3 35/2/3
f 100/2/3 94/2/3 98/2/3
f 100/2/3 98/2/3 99/2/3
f 100/4/3 34/4/3 36/4/3
f 100/2/3 83/2/3 94/2/3
f 100/2/3 36/2/3 83/2/3
f 101/2/3 33/2/3 31/2/3
f 101/4/3 99/4/3 33/4/3
f 101/4/3 100/4/3 99/4/3
f 102/4/3 34/4/3 100/4/3
f 102/4/3 100/4/3 101/4/3
f 102/2/3 32/2/3 34/2/3
f 103/4/3 31/4/3 26/4/3
f 103/2/3 101/2/3 31/2/3
f 103/2/3 102/2/3 101/2/3
f 104/2/3 32/2/3 102/2/3
f 104/2/3 102/2/3 103/2/3
f 104/4/3 27/4/3 32/4/3
f 105/5/3 26/5/3 25/5/3
f 106/4/3 103/4/3 26/4/3
f 106/5/3 26/5/3 105/5/3
f 106/4/3 104/4/3 103/4/3
f 107/4/3 27/4/3 104/4/3
f 107/4/3 104/4/3 106/4/3
f 107/3/3 28/3/3 27/3/3
f 108/1/3 29/1/3 28/1/3
f 108/3/3 28/3/3 107/3/3
f 109/3/3 30/3/3 29/3/3
f 109/1/3 29/1/3 108/1/3
f 110/3/3 30/3/3 109/3/3
f 112/4/4 113/4/4 117/4/4
f 117/4/4 113/4/4 118/4/4
f 117/2/4 118/2/4 119/2/4
f 119/2/4 118/2/4 120/2/4
f 119/4/4 120/4/4 121/4/4
f 121/4/4 120/4/4 122/4/4
f 121/2/4 122/2/4 123/2/4
f 123/2/4 122/2/4 124/2/4
f 121/2/4 123/2/4 125/2/4
f 123/4/4 124/4/4 125/4/4
f 125/4/4 124/4/4 126/4/4
f 126/4/4 124/4/4 127/4/4
f 124/2/4 122/2/4 128/2/4
f 127/4/4 124/4/4 128/4/4
f 126/4/4 127/4/4 129/4/4
f 125/2/4 126/2/4 129/2/4
f 127/2/4 128/2/4 130/2/4
f 129/4/4 127/4/4 130/4/4
f 129/2/4 130/2/4 131/2/4
f 131/2/4 130/2/4 132/2/4
f 129/2/4 131/2/4 133/2/4
f 131/4/4 132/4/4 134/4/4
f 133/2/4 131/2/4 134/2/4
f 132/2/4 130/2/4 135/2/4
f 134/4/4 132/4/4 135/4/4
f 135/2/4 130/2/4 136/2/4
f 125/2/4 129/2/4 137/2/4
f 129/2/4 133/2/4 137/2/4
f 133/4/4 134/4/4 138/4/4
f 137/2/4 133/2/4 138/2/4
f 135/4/4 136/4/4 138/4/4
f 134/4/4 135/4/4 138/4/4
f 136/2/4 130/2/4 139/2/4
f 138/4/4 136/4/4 139/4/4
f 130/2/4 128/2/4 140/2/4
f 139/2/4 130/2/4 140/2/4
f 121/2/4 125/2/4 141/2/4
f 125/2/4 137/2/4 141/2/4
f 137/4/4 138/4/4 142/4/4
f 141/2/4 137/2/4 142/2/4
f 138/4/4 139/4/4 142/4/4
f 139/4/4 140/4/4 142/4/4
f 140/2/4 128/2/4 143/2/4
f 142/4/4 140/4/4 143/4/4
f 128/2/4 122/2/4 144/2/4
f 143/2/4 128/2/4 144/2/4
f 142/4/4 143/4/4 145/4/4
f 141/4/4 142/4/4 145/4/4
f 143/4/4 144/4/4 145/4/4
f 121/2/4 141/2/4 145/2/4
f 145/4/4 144/4/4 146/4/4
f 146/4/4 144/4/4 147/4/4
f 144/2/4 122/2/4 148/2/4
f 147/4/4 144/4/4 148/4/4
f 146/4/4 147/4/4 149/4/4
f 145/2/4 146/2/4 149/2/4
f 147/2/4 148/2/4 150/2/4
f 149/4/4 147/4/4 150/4/4
f 145/2/4 149/2/4 151/2/4
f 149/2/4 150/2/4 151/2/4
f 151/2/4 150/2/4 152/2/4
f 121/2/4 145/2/4 153/2/4
f 145/2/4 151/2/4 153/2/4
f 153/2/4 151/2/4 154/2/4
f 151/4/4 152/4/4 155/4/4
f 154/2/4 151/2/4 155/2/4
f 152/2/4 150/2/4 156/2/4
f 155/4/4 152/4/4 156/4/4
f 156/2/4 150/2/4 157/2/4
f 150/2/4 148/2/4 158/2/4
f 157/2/4 150/2/4 158/2/4
f 148/2/4 122/2/4 159/2/4
f 158/2/4 148/2/4 159/2/4
f 153/4/4 154/4/4 160/4/4
f 121/2/4 153/2/4 160/2/4
f 154/2/4 155/2/4 161/2/4
f 160/4/4 154/4/4 161/4/4
f 155/2/4 156/2/4 161/2/4
f 161/2/4 156/2/4 162/2/4
f 157/2/4 158/2/4 163/2/4
f 156/4/4 157/4/4 163/4/4
f 158/4/4 159/4/4 164/4/4
f 163/2/4 158/2/4 164/2/4
f 161/4/4 162/4/4 165/4/4
f 160/2/4 161/2/4 165/2/4
f 162/2/4 156/2/4 166/2/4
f 165/4/4 162/4/4 166/4/4
f 156/4/4 163/4/4 167/4/4
f 166/2/4 156/2/4 167/2/4
f 163/4/4 164/4/4 167/4/4
f 164/4/4 159/4/4 168/4/4
f 167/4/4 164/4/4 168/4/4
f 159/2/4 122/2/4 169/2/4
f 168/4/4 159/4/4 169/4/4
f 160/2/4 165/2/4 170/2/4
f 165/2/4 166/2/4 170/2/4
f 166/4/4 167/4/4 171/4/4
f 170/2/4 166/2/4 171/2/4
f 167/4/4 168/4/4 171/4/4
f 171/4/4 168/4/4 172/4/4
f 168/2/4 169/2/4 173/2/4
f 172/4/4 168/4/4 173/4/4
f 173/2/4 169/2/4 174/2/4
f 121/2/4 160/2/4 175/2/4
f 160/2/4 170/2/4 175/2/4
f 171/4/4 172/4/4 176/4/4
f 175/2/4 170/2/4 176/2/4
f 170/4/4 171/4/4 176/4/4
f 172/2/4 173/2/4 177/2/4
f 176/4/4 172/4/4 177/4/4
f 177/2/4 173/2/4 178/2/4
f 173/4/4 174/4/4 179/4/4
f 178/2/4 173/2/4 179/2/4
f 174/2/4 169/2/4 180/2/4
f 179/4/4 174/4/4 180/4/4
f 121/2/4 175/2/4 181/2/4
f 175/4/4 176/4/4 181/4/4
f 177/2/4 178/2/4 182/2/4
f 181/4/4 176/4/4 182/4/4
f 176/2/4 177/2/4 182/2/4
f 178/4/4 179/4/4 183/4/4
f 182/2/4 178/2/4 183/2/4
f 179/2/4 180/2/4 184/2/4
f 183/4/4 179/4/4 184/4/4
f 119/4/4 121/4/4 185/4/4
f 181/2/4 182/2/4 185/2/4
f 183/2/4 184/2/4 185/2/4
f 182/2/4 183/2/4 185/2/4
f 121/2/4 181/2/4 185/2/4
f 184/2/4 180/2/4 186/2/4
f 185/2/4 184/2/4 186/2/4
f 122/4/4 120/4/4 186/4/4
f 180/2/4 169/2/4 186/2/4
f 169/2/4 122/2/4 186/2/4
f 117/2/4 119/2/4 187/2/4
f 119/4/4 185/4/4 187/4/4
f 185/4/4 186/4/4 187/4/4
f 186/4/4 120/4/4 188/4/4
f 187/4/4 186/4/4 188/4/4
f 120/2/4 118/2/4 188/2/4
f 112/4/4 117/4/4 189/4/4
f 117/2/4 187/2/4 189/2/4
f 187/2/4 188/2/4 189/2/4
f 188/2/4 118/2/4 190/2/4
f 189/2/4 188/2/4 190/2/4
f 118/4/4 113/4/4 190/4/4
f 111/5/4 112/5/4 191/5/4
f 112/4/4 189/4/4 192/4/4
f 191/5/4 112/5/4 192/5/4
f 189/4/4 190/4/4 192/4/4
f 190/4/4 113/4/4 193/4/4
f 192/4/4 190/4/4 193/4/4
f 113/3/4 114/3/4 193/3/4
f 114/1/4 115/1/4 194/1/4
f 193/3/4 114/3/4 194/3/4
f 115/3/4 116/3/4 195/3/4
f 194/1/4 115/1/4 195/1/4
f 195/3/4 116/3/4 196/3/4
f 199/5/5 198/5/5 197/5/5
f 200/5/5 198/5/5 199/5/5
f 201/3/6 202/3/6 203/3/6
f 203/3/6 202/3/6 204/3/6
