# MagicaVoxel @ Ephtracy

# group
o 

# material
mtllib tile suelo.mtl
usemtl palette

# normals
vn -1 0 0
vn 1 0 0
vn 0 0 1
vn 0 0 -1
vn 0 -1 0
vn 0 1 0

# texcoords
vt 0.478516 0.5
vt 0.787109 0.5
vt 0.974609 0.5

# verts
v 0 2 0
v 0 2 -7.8
v 0 2 -8
v 0 2 -8.3
v 0 2 -9.6
v 0 2.1 0
v 0 2.1 -7.8
v 0 2.1 -8
v 0 2.1 -8.3
v 0 2.1 -9.6
v 9.6 2 0
v 9.6 2 -7.8
v 9.6 2 -8
v 9.6 2 -8.3
v 9.6 2 -9.6
v 9.6 2.1 0
v 9.6 2.1 -7.8
v 9.6 2.1 -8
v 9.6 2.1 -8.3
v 9.6 2.1 -9.6
v 0 2 0
v 0 2.1 0
v 9.6 2 0
v 9.6 2.1 0
v 0 2 -9.6
v 0 2.1 -9.6
v 9.6 2 -9.6
v 9.6 2.1 -9.6
v 0 2 0
v 9.6 2 0
v 0 2 -7.8
v 9.6 2 -7.8
v 0 2 -8
v 9.6 2 -8
v 0 2 -8.3
v 9.6 2 -8.3
v 0 2 -9.6
v 9.6 2 -9.6
v 0 2.1 0
v 9.6 2.1 0
v 0 2.1 -7.8
v 9.6 2.1 -7.8
v 0 2.1 -8
v 9.6 2.1 -8
v 0 2.1 -8.3
v 9.6 2.1 -8.3
v 0 2.1 -9.6
v 9.6 2.1 -9.6

# faces
f 6/3/1 2/3/1 1/3/1
f 7/2/1 3/2/1 2/2/1
f 7/3/1 2/3/1 6/3/1
f 8/1/1 4/1/1 3/1/1
f 8/2/1 3/2/1 7/2/1
f 9/2/1 5/2/1 4/2/1
f 9/1/1 4/1/1 8/1/1
f 10/2/1 5/2/1 9/2/1
f 11/3/2 12/3/2 16/3/2
f 12/2/2 13/2/2 17/2/2
f 16/3/2 12/3/2 17/3/2
f 13/1/2 14/1/2 18/1/2
f 17/2/2 13/2/2 18/2/2
f 14/2/2 15/2/2 19/2/2
f 18/1/2 14/1/2 19/1/2
f 19/2/2 15/2/2 20/2/2
f 23/3/3 22/3/3 21/3/3
f 24/3/3 22/3/3 23/3/3
f 25/2/4 26/2/4 27/2/4
f 27/2/4 26/2/4 28/2/4
f 31/3/5 30/3/5 29/3/5
f 32/3/5 30/3/5 31/3/5
f 33/2/5 32/2/5 31/2/5
f 34/2/5 32/2/5 33/2/5
f 35/1/5 34/1/5 33/1/5
f 36/1/5 34/1/5 35/1/5
f 37/2/5 36/2/5 35/2/5
f 38/2/5 36/2/5 37/2/5
f 39/3/6 40/3/6 41/3/6
f 41/3/6 40/3/6 42/3/6
f 41/2/6 42/2/6 43/2/6
f 43/2/6 42/2/6 44/2/6
f 43/1/6 44/1/6 45/1/6
f 45/1/6 44/1/6 46/1/6
f 45/2/6 46/2/6 47/2/6
f 47/2/6 46/2/6 48/2/6
