# MagicaVoxel @ Ephtracy

# group
o 

# material
mtllib tile pared pitis.mtl
usemtl palette

# normals
vn -1 0 0
vn 1 0 0
vn 0 0 1
vn 0 0 -1
vn 0 -1 0
vn 0 1 0

# texcoords
vt 0.478516 0.5
vt 0.771484 0.5
vt 0.916016 0.5
vt 0.958984 0.5
vt 0.986328 0.5

# verts
v 0 2 -1.9
v 0 2 -2
v 0 2.5 -1.9
v 0 2.5 -2
v 0 9.8 -1.9
v 0 9.8 -2
v 0 10 -1.9
v 0 10 -2
v 0 10.3 -1.9
v 0 10.3 -2
v 0 11.6 -1.9
v 0 11.6 -2
v 9.6 2 -1.9
v 9.6 2 -2
v 9.6 2.5 -1.9
v 9.6 2.5 -2
v 9.6 9.8 -1.9
v 9.6 9.8 -2
v 9.6 10 -1.9
v 9.6 10 -2
v 9.6 10.3 -1.9
v 9.6 10.3 -2
v 9.6 11.6 -1.9
v 9.6 11.6 -2
v 0 2 -1.9
v 0 2.5 -1.9
v 0 9.8 -1.9
v 0 10 -1.9
v 0 10.3 -1.9
v 0 11.6 -1.9
v 2.8 10.5 -1.9
v 2.8 11.5 -1.9
v 2.9 10.5 -1.9
v 2.9 10.9 -1.9
v 2.9 11 -1.9
v 2.9 11.4 -1.9
v 3.2 11.3 -1.9
v 3.2 11.4 -1.9
v 3.2 11.5 -1.9
v 3.3 10.9 -1.9
v 3.3 11 -1.9
v 3.3 11.1 -1.9
v 3.6 11 -1.9
v 3.6 11.1 -1.9
v 3.6 11.3 -1.9
v 3.6 11.4 -1.9
v 3.7 11.1 -1.9
v 3.7 11.3 -1.9
v 3.9 10.5 -1.9
v 3.9 10.6 -1.9
v 3.9 11.3 -1.9
v 3.9 11.4 -1.9
v 4.1 10.6 -1.9
v 4.1 11.3 -1.9
v 4.2 10.6 -1.9
v 4.2 11.3 -1.9
v 4.4 10.5 -1.9
v 4.4 10.6 -1.9
v 4.4 11.3 -1.9
v 4.4 11.4 -1.9
v 4.5 11.3 -1.9
v 4.5 11.4 -1.9
v 4.8 10.5 -1.9
v 4.8 11.3 -1.9
v 4.9 10.5 -1.9
v 4.9 11.3 -1.9
v 5.2 11.3 -1.9
v 5.2 11.4 -1.9
v 5.3 10.5 -1.9
v 5.3 11.4 -1.9
v 5.4 10.5 -1.9
v 5.4 11.4 -1.9
v 5.5 11.1 -1.9
v 5.5 11.2 -1.9
v 5.6 10.5 -1.9
v 5.6 10.6 -1.9
v 5.6 11 -1.9
v 5.6 11.1 -1.9
v 5.6 11.2 -1.9
v 5.6 11.3 -1.9
v 5.7 10.9 -1.9
v 5.7 11 -1.9
v 5.7 11.1 -1.9
v 5.7 11.2 -1.9
v 5.7 11.3 -1.9
v 5.7 11.4 -1.9
v 6.2 10.5 -1.9
v 6.2 10.6 -1.9
v 6.2 10.7 -1.9
v 6.2 10.8 -1.9
v 6.2 10.9 -1.9
v 6.2 11 -1.9
v 6.3 10.6 -1.9
v 6.3 10.7 -1.9
v 6.3 10.8 -1.9
v 6.3 10.9 -1.9
v 6.3 11.3 -1.9
v 6.3 11.4 -1.9
v 6.4 10.7 -1.9
v 6.4 10.8 -1.9
v 9.6 2 -1.9
v 9.6 2.5 -1.9
v 9.6 9.8 -1.9
v 9.6 10 -1.9
v 9.6 10.3 -1.9
v 9.6 11.6 -1.9
v 0 2 -2
v 0 2.5 -2
v 0 9.8 -2
v 0 10 -2
v 0 10.3 -2
v 0 11.6 -2
v 2.8 10.5 -2
v 2.8 11.5 -2
v 2.9 10.5 -2
v 2.9 10.9 -2
v 2.9 11 -2
v 2.9 11.4 -2
v 3.2 11.3 -2
v 3.2 11.4 -2
v 3.2 11.5 -2
v 3.3 10.9 -2
v 3.3 11 -2
v 3.3 11.1 -2
v 3.6 11 -2
v 3.6 11.1 -2
v 3.6 11.3 -2
v 3.6 11.4 -2
v 3.7 11.1 -2
v 3.7 11.3 -2
v 3.9 10.5 -2
v 3.9 10.6 -2
v 3.9 11.3 -2
v 3.9 11.4 -2
v 4.1 10.6 -2
v 4.1 11.3 -2
v 4.2 10.6 -2
v 4.2 11.3 -2
v 4.4 10.5 -2
v 4.4 10.6 -2
v 4.4 11.3 -2
v 4.4 11.4 -2
v 4.5 11.3 -2
v 4.5 11.4 -2
v 4.8 10.5 -2
v 4.8 11.3 -2
v 4.9 10.5 -2
v 4.9 11.3 -2
v 5.2 11.3 -2
v 5.2 11.4 -2
v 5.3 10.5 -2
v 5.3 11.4 -2
v 5.4 10.5 -2
v 5.4 11.4 -2
v 5.5 11.1 -2
v 5.5 11.2 -2
v 5.6 10.5 -2
v 5.6 10.6 -2
v 5.6 11 -2
v 5.6 11.1 -2
v 5.6 11.2 -2
v 5.6 11.3 -2
v 5.7 10.9 -2
v 5.7 11 -2
v 5.7 11.1 -2
v 5.7 11.2 -2
v 5.7 11.3 -2
v 5.7 11.4 -2
v 6.2 10.5 -2
v 6.2 10.6 -2
v 6.2 10.7 -2
v 6.2 10.8 -2
v 6.2 10.9 -2
v 6.2 11 -2
v 6.3 10.6 -2
v 6.3 10.7 -2
v 6.3 10.8 -2
v 6.3 10.9 -2
v 6.3 11.3 -2
v 6.3 11.4 -2
v 6.4 10.7 -2
v 6.4 10.8 -2
v 9.6 2 -2
v 9.6 2.5 -2
v 9.6 9.8 -2
v 9.6 10 -2
v 9.6 10.3 -2
v 9.6 11.6 -2
v 0 2 -1.9
v 9.6 2 -1.9
v 0 2 -2
v 9.6 2 -2
v 0 11.6 -1.9
v 9.6 11.6 -1.9
v 0 11.6 -2
v 9.6 11.6 -2

# faces
f 3/5/1 2/5/1 1/5/1
f 4/5/1 2/5/1 3/5/1
f 5/3/1 4/3/1 3/3/1
f 6/3/1 4/3/1 5/3/1
f 7/2/1 6/2/1 5/2/1
f 8/2/1 6/2/1 7/2/1
f 9/1/1 8/1/1 7/1/1
f 10/1/1 8/1/1 9/1/1
f 11/2/1 10/2/1 9/2/1
f 12/2/1 10/2/1 11/2/1
f 13/5/2 14/5/2 15/5/2
f 15/5/2 14/5/2 16/5/2
f 15/3/2 16/3/2 17/3/2
f 17/3/2 16/3/2 18/3/2
f 17/2/2 18/2/2 19/2/2
f 19/2/2 18/2/2 20/2/2
f 19/1/2 20/1/2 21/1/2
f 21/1/2 20/1/2 22/1/2
f 21/2/2 22/2/2 23/2/2
f 23/2/2 22/2/2 24/2/2
f 31/2/3 30/2/3 29/2/3
f 32/2/3 30/2/3 31/2/3
f 33/2/3 31/2/3 29/2/3
f 33/4/3 32/4/3 31/4/3
f 34/4/3 32/4/3 33/4/3
f 35/4/3 32/4/3 34/4/3
f 36/4/3 32/4/3 35/4/3
f 37/2/3 36/2/3 35/2/3
f 38/4/3 32/4/3 36/4/3
f 38/2/3 36/2/3 37/2/3
f 39/2/3 30/2/3 32/2/3
f 39/4/3 32/4/3 38/4/3
f 40/2/3 34/2/3 33/2/3
f 40/4/3 35/4/3 34/4/3
f 41/2/3 37/2/3 35/2/3
f 41/4/3 35/4/3 40/4/3
f 42/2/3 37/2/3 41/2/3
f 43/2/3 41/2/3 40/2/3
f 43/4/3 42/4/3 41/4/3
f 44/2/3 37/2/3 42/2/3
f 44/4/3 42/4/3 43/4/3
f 45/4/3 38/4/3 37/4/3
f 45/2/3 37/2/3 44/2/3
f 46/2/3 39/2/3 38/2/3
f 46/4/3 38/4/3 45/4/3
f 47/2/3 44/2/3 43/2/3
f 47/4/3 45/4/3 44/4/3
f 48/2/3 46/2/3 45/2/3
f 48/4/3 45/4/3 47/4/3
f 49/2/3 33/2/3 29/2/3
f 49/2/3 47/2/3 43/2/3
f 49/2/3 48/2/3 47/2/3
f 49/2/3 43/2/3 40/2/3
f 49/2/3 40/2/3 33/2/3
f 50/2/3 48/2/3 49/2/3
f 51/2/3 46/2/3 48/2/3
f 51/2/3 48/2/3 50/2/3
f 52/2/3 39/2/3 46/2/3
f 52/2/3 46/2/3 51/2/3
f 53/2/3 51/2/3 50/2/3
f 53/4/3 50/4/3 49/4/3
f 54/4/3 52/4/3 51/4/3
f 54/2/3 51/2/3 53/2/3
f 55/4/3 53/4/3 49/4/3
f 55/4/3 54/4/3 53/4/3
f 56/4/3 52/4/3 54/4/3
f 56/4/3 54/4/3 55/4/3
f 57/4/3 55/4/3 49/4/3
f 57/2/3 49/2/3 29/2/3
f 58/2/3 56/2/3 55/2/3
f 58/4/3 55/4/3 57/4/3
f 59/4/3 52/4/3 56/4/3
f 59/2/3 56/2/3 58/2/3
f 60/2/3 39/2/3 52/2/3
f 60/4/3 52/4/3 59/4/3
f 61/2/3 59/2/3 58/2/3
f 61/2/3 58/2/3 57/2/3
f 61/2/3 60/2/3 59/2/3
f 62/2/3 39/2/3 60/2/3
f 62/2/3 60/2/3 61/2/3
f 63/2/3 61/2/3 57/2/3
f 63/2/3 57/2/3 29/2/3
f 64/4/3 62/4/3 61/4/3
f 64/2/3 61/2/3 63/2/3
f 65/2/3 63/2/3 29/2/3
f 65/4/3 64/4/3 63/4/3
f 66/4/3 62/4/3 64/4/3
f 66/4/3 64/4/3 65/4/3
f 67/2/3 66/2/3 65/2/3
f 67/4/3 62/4/3 66/4/3
f 68/2/3 39/2/3 62/2/3
f 68/4/3 62/4/3 67/4/3
f 69/2/3 67/2/3 65/2/3
f 69/2/3 65/2/3 29/2/3
f 69/2/3 68/2/3 67/2/3
f 70/2/3 39/2/3 68/2/3
f 70/2/3 68/2/3 69/2/3
f 71/2/3 69/2/3 29/2/3
f 71/4/3 70/4/3 69/4/3
f 72/2/3 39/2/3 70/2/3
f 72/4/3 70/4/3 71/4/3
f 73/2/3 72/2/3 71/2/3
f 74/2/3 72/2/3 73/2/3
f 75/2/3 71/2/3 29/2/3
f 75/2/3 73/2/3 71/2/3
f 76/2/3 73/2/3 75/2/3
f 77/2/3 73/2/3 76/2/3
f 78/4/3 74/4/3 73/4/3
f 78/2/3 73/2/3 77/2/3
f 79/2/3 72/2/3 74/2/3
f 79/4/3 74/4/3 78/4/3
f 80/2/3 72/2/3 79/2/3
f 81/2/3 77/2/3 76/2/3
f 82/4/3 78/4/3 77/4/3
f 82/2/3 77/2/3 81/2/3
f 83/2/3 79/2/3 78/2/3
f 83/4/3 78/4/3 82/4/3
f 84/4/3 80/4/3 79/4/3
f 84/2/3 79/2/3 83/2/3
f 85/2/3 72/2/3 80/2/3
f 85/4/3 80/4/3 84/4/3
f 86/2/3 39/2/3 72/2/3
f 86/2/3 72/2/3 85/2/3
f 87/2/3 75/2/3 29/2/3
f 87/4/3 76/4/3 75/4/3
f 88/2/3 81/2/3 76/2/3
f 88/4/3 76/4/3 87/4/3
f 89/2/3 81/2/3 88/2/3
f 90/2/3 81/2/3 89/2/3
f 91/4/3 82/4/3 81/4/3
f 91/2/3 81/2/3 90/2/3
f 92/2/3 85/2/3 84/2/3
f 92/4/3 82/4/3 91/4/3
f 92/2/3 84/2/3 83/2/3
f 92/2/3 83/2/3 82/2/3
f 93/4/3 89/4/3 88/4/3
f 93/2/3 88/2/3 87/2/3
f 94/2/3 90/2/3 89/2/3
f 94/4/3 89/4/3 93/4/3
f 95/4/3 91/4/3 90/4/3
f 95/2/3 90/2/3 94/2/3
f 96/2/3 92/2/3 91/2/3
f 96/4/3 91/4/3 95/4/3
f 97/2/3 85/2/3 92/2/3
f 97/2/3 92/2/3 96/2/3
f 97/4/3 86/4/3 85/4/3
f 98/2/3 39/2/3 86/2/3
f 98/4/3 86/4/3 97/4/3
f 99/2/3 94/2/3 93/2/3
f 99/4/3 95/4/3 94/4/3
f 100/2/3 96/2/3 95/2/3
f 100/4/3 95/4/3 99/4/3
f 100/2/3 97/2/3 96/2/3
f 100/2/3 98/2/3 97/2/3
f 101/5/3 26/5/3 25/5/3
f 102/3/3 27/3/3 26/3/3
f 102/5/3 26/5/3 101/5/3
f 103/2/3 28/2/3 27/2/3
f 103/3/3 27/3/3 102/3/3
f 104/1/3 29/1/3 28/1/3
f 104/2/3 28/2/3 103/2/3
f 105/2/3 87/2/3 29/2/3
f 105/1/3 29/1/3 104/1/3
f 105/2/3 99/2/3 93/2/3
f 105/2/3 100/2/3 99/2/3
f 105/2/3 93/2/3 87/2/3
f 106/2/3 98/2/3 100/2/3
f 106/2/3 100/2/3 105/2/3
f 106/2/3 30/2/3 39/2/3
f 106/2/3 39/2/3 98/2/3
f 111/2/4 112/2/4 113/2/4
f 113/2/4 112/2/4 114/2/4
f 111/2/4 113/2/4 115/2/4
f 113/4/4 114/4/4 115/4/4
f 115/4/4 114/4/4 116/4/4
f 116/4/4 114/4/4 117/4/4
f 117/4/4 114/4/4 118/4/4
f 117/2/4 118/2/4 119/2/4
f 118/4/4 114/4/4 120/4/4
f 119/2/4 118/2/4 120/2/4
f 114/2/4 112/2/4 121/2/4
f 120/4/4 114/4/4 121/4/4
f 115/2/4 116/2/4 122/2/4
f 116/4/4 117/4/4 122/4/4
f 117/2/4 119/2/4 123/2/4
f 122/4/4 117/4/4 123/4/4
f 123/2/4 119/2/4 124/2/4
f 122/2/4 123/2/4 125/2/4
f 123/4/4 124/4/4 125/4/4
f 124/2/4 119/2/4 126/2/4
f 125/4/4 124/4/4 126/4/4
f 119/4/4 120/4/4 127/4/4
f 126/2/4 119/2/4 127/2/4
f 120/2/4 121/2/4 128/2/4
f 127/4/4 120/4/4 128/4/4
f 125/2/4 126/2/4 129/2/4
f 126/4/4 127/4/4 129/4/4
f 127/2/4 128/2/4 130/2/4
f 129/4/4 127/4/4 130/4/4
f 111/2/4 115/2/4 131/2/4
f 125/2/4 129/2/4 131/2/4
f 129/2/4 130/2/4 131/2/4
f 122/2/4 125/2/4 131/2/4
f 115/2/4 122/2/4 131/2/4
f 131/2/4 130/2/4 132/2/4
f 130/2/4 128/2/4 133/2/4
f 132/2/4 130/2/4 133/2/4
f 128/2/4 121/2/4 134/2/4
f 133/2/4 128/2/4 134/2/4
f 132/2/4 133/2/4 135/2/4
f 131/4/4 132/4/4 135/4/4
f 133/4/4 134/4/4 136/4/4
f 135/2/4 133/2/4 136/2/4
f 131/4/4 135/4/4 137/4/4
f 135/4/4 136/4/4 137/4/4
f 136/4/4 134/4/4 138/4/4
f 137/4/4 136/4/4 138/4/4
f 131/4/4 137/4/4 139/4/4
f 111/2/4 131/2/4 139/2/4
f 137/2/4 138/2/4 140/2/4
f 139/4/4 137/4/4 140/4/4
f 138/4/4 134/4/4 141/4/4
f 140/2/4 138/2/4 141/2/4
f 134/2/4 121/2/4 142/2/4
f 141/4/4 134/4/4 142/4/4
f 140/2/4 141/2/4 143/2/4
f 139/2/4 140/2/4 143/2/4
f 141/2/4 142/2/4 143/2/4
f 142/2/4 121/2/4 144/2/4
f 143/2/4 142/2/4 144/2/4
f 139/2/4 143/2/4 145/2/4
f 111/2/4 139/2/4 145/2/4
f 143/4/4 144/4/4 146/4/4
f 145/2/4 143/2/4 146/2/4
f 111/2/4 145/2/4 147/2/4
f 145/4/4 146/4/4 147/4/4
f 146/4/4 144/4/4 148/4/4
f 147/4/4 146/4/4 148/4/4
f 147/2/4 148/2/4 149/2/4
f 148/4/4 144/4/4 149/4/4
f 144/2/4 121/2/4 150/2/4
f 149/4/4 144/4/4 150/4/4
f 147/2/4 149/2/4 151/2/4
f 111/2/4 147/2/4 151/2/4
f 149/2/4 150/2/4 151/2/4
f 150/2/4 121/2/4 152/2/4
f 151/2/4 150/2/4 152/2/4
f 111/2/4 151/2/4 153/2/4
f 151/4/4 152/4/4 153/4/4
f 152/2/4 121/2/4 154/2/4
f 153/4/4 152/4/4 154/4/4
f 153/2/4 154/2/4 155/2/4
f 155/2/4 154/2/4 156/2/4
f 111/2/4 153/2/4 157/2/4
f 153/2/4 155/2/4 157/2/4
f 157/2/4 155/2/4 158/2/4
f 158/2/4 155/2/4 159/2/4
f 155/4/4 156/4/4 160/4/4
f 159/2/4 155/2/4 160/2/4
f 156/2/4 154/2/4 161/2/4
f 160/4/4 156/4/4 161/4/4
f 161/2/4 154/2/4 162/2/4
f 158/2/4 159/2/4 163/2/4
f 159/4/4 160/4/4 164/4/4
f 163/2/4 159/2/4 164/2/4
f 160/2/4 161/2/4 165/2/4
f 164/4/4 160/4/4 165/4/4
f 161/4/4 162/4/4 166/4/4
f 165/2/4 161/2/4 166/2/4
f 162/2/4 154/2/4 167/2/4
f 166/4/4 162/4/4 167/4/4
f 154/2/4 121/2/4 168/2/4
f 167/2/4 154/2/4 168/2/4
f 111/2/4 157/2/4 169/2/4
f 157/4/4 158/4/4 169/4/4
f 158/2/4 163/2/4 170/2/4
f 169/4/4 158/4/4 170/4/4
f 170/2/4 163/2/4 171/2/4
f 171/2/4 163/2/4 172/2/4
f 163/4/4 164/4/4 173/4/4
f 172/2/4 163/2/4 173/2/4
f 166/2/4 167/2/4 174/2/4
f 173/4/4 164/4/4 174/4/4
f 165/2/4 166/2/4 174/2/4
f 164/2/4 165/2/4 174/2/4
f 170/4/4 171/4/4 175/4/4
f 169/2/4 170/2/4 175/2/4
f 171/2/4 172/2/4 176/2/4
f 175/4/4 171/4/4 176/4/4
f 172/4/4 173/4/4 177/4/4
f 176/2/4 172/2/4 177/2/4
f 173/2/4 174/2/4 178/2/4
f 177/4/4 173/4/4 178/4/4
f 174/2/4 167/2/4 179/2/4
f 178/2/4 174/2/4 179/2/4
f 167/4/4 168/4/4 179/4/4
f 168/2/4 121/2/4 180/2/4
f 179/4/4 168/4/4 180/4/4
f 175/2/4 176/2/4 181/2/4
f 176/4/4 177/4/4 181/4/4
f 177/2/4 178/2/4 182/2/4
f 181/4/4 177/4/4 182/4/4
f 178/2/4 179/2/4 182/2/4
f 179/2/4 180/2/4 182/2/4
f 107/5/4 108/5/4 183/5/4
f 108/3/4 109/3/4 184/3/4
f 183/5/4 108/5/4 184/5/4
f 109/2/4 110/2/4 185/2/4
f 184/3/4 109/3/4 185/3/4
f 110/1/4 111/1/4 186/1/4
f 185/2/4 110/2/4 186/2/4
f 111/2/4 169/2/4 187/2/4
f 186/1/4 111/1/4 187/1/4
f 175/2/4 181/2/4 187/2/4
f 181/2/4 182/2/4 187/2/4
f 169/2/4 175/2/4 187/2/4
f 182/2/4 180/2/4 188/2/4
f 187/2/4 182/2/4 188/2/4
f 121/2/4 112/2/4 188/2/4
f 180/2/4 121/2/4 188/2/4
f 191/5/5 190/5/5 189/5/5
f 192/5/5 190/5/5 191/5/5
f 193/2/6 194/2/6 195/2/6
f 195/2/6 194/2/6 196/2/6
