# MagicaVoxel @ Ephtracy

# group
o 

# material
mtllib carta3.mtl
usemtl palette

# normals
vn -1 0 0
vn 1 0 0
vn 0 0 1
vn 0 0 -1
vn 0 -1 0
vn 0 1 0

# texcoords
vt 0.455078 0.5
vt 0.490234 0.5
vt 0.970703 0.5
vt 0.994141 0.5

# verts
v 0 2 0
v 0 2 -0.1
v 0 2 -1.5
v 0 2 -1.6
v 0 2.1 0
v 0 2.1 -0.1
v 0 2.1 -1.5
v 0 2.1 -1.6
v 0.1 2.1 -0.1
v 0.1 2.1 -0.3
v 0.1 2.1 -1.3
v 0.1 2.1 -1.5
v 0.1 2.2 -0.1
v 0.1 2.2 -0.3
v 0.1 2.2 -1.3
v 0.1 2.2 -1.5
v 0.2 2 -0.1
v 0.2 2 -0.2
v 0.2 2 -0.4
v 0.2 2 -0.5
v 0.2 2 -1.3
v 0.2 2 -1.5
v 0.2 2.1 -0.1
v 0.2 2.1 -0.2
v 0.2 2.1 -0.4
v 0.2 2.1 -0.5
v 0.2 2.1 -1.3
v 0.2 2.1 -1.5
v 0.2 2.2 -0.3
v 0.2 2.2 -0.4
v 0.2 2.2 -1.2
v 0.2 2.2 -1.3
v 0.2 2.3 -0.3
v 0.2 2.3 -0.4
v 0.2 2.3 -1.2
v 0.2 2.3 -1.3
v 0.3 2.3 -0.4
v 0.3 2.3 -0.5
v 0.3 2.3 -1
v 0.3 2.3 -1.2
v 0.3 2.4 -0.4
v 0.3 2.4 -0.5
v 0.3 2.4 -1
v 0.3 2.4 -1.2
v 0.4 2.4 -0.5
v 0.4 2.4 -0.7
v 0.4 2.4 -0.8
v 0.4 2.4 -1
v 0.4 2.5 -0.5
v 0.4 2.5 -0.7
v 0.4 2.5 -0.8
v 0.4 2.5 -1
v 0.5 2.5 -0.7
v 0.5 2.5 -0.8
v 0.5 2.6 -0.7
v 0.5 2.6 -0.8
v 0.1 2 -0.1
v 0.1 2 -0.2
v 0.1 2 -0.4
v 0.1 2 -0.5
v 0.1 2 -1.3
v 0.1 2 -1.5
v 0.1 2.1 -0.1
v 0.1 2.1 -0.2
v 0.1 2.1 -0.4
v 0.1 2.1 -0.5
v 0.1 2.1 -1.3
v 0.1 2.1 -1.5
v 0.2 2.1 -0.1
v 0.2 2.1 -0.3
v 0.2 2.1 -1.3
v 0.2 2.1 -1.5
v 0.2 2.2 -0.1
v 0.2 2.2 -0.3
v 0.2 2.2 -0.4
v 0.2 2.2 -1.2
v 0.2 2.2 -1.3
v 0.2 2.2 -1.5
v 0.3 2.2 -0.3
v 0.3 2.2 -0.4
v 0.3 2.2 -1.2
v 0.3 2.2 -1.3
v 0.3 2.3 -0.3
v 0.3 2.3 -0.4
v 0.3 2.3 -0.5
v 0.3 2.3 -1
v 0.3 2.3 -1.2
v 0.3 2.3 -1.3
v 0.4 2.3 -0.4
v 0.4 2.3 -0.5
v 0.4 2.3 -1
v 0.4 2.3 -1.2
v 0.4 2.4 -0.4
v 0.4 2.4 -0.5
v 0.4 2.4 -0.7
v 0.4 2.4 -0.8
v 0.4 2.4 -1
v 0.4 2.4 -1.2
v 0.5 2.4 -0.5
v 0.5 2.4 -0.7
v 0.5 2.4 -0.8
v 0.5 2.4 -1
v 0.5 2.5 -0.5
v 0.5 2.5 -0.7
v 0.5 2.5 -0.8
v 0.5 2.5 -1
v 0.6 2.5 -0.7
v 0.6 2.5 -0.8
v 0.6 2.6 -0.7
v 0.6 2.6 -0.8
v 1 2 0
v 1 2 -1.6
v 1 2.1 0
v 1 2.1 -1.6
v 0 2 0
v 0 2.1 0
v 0.1 2 0
v 0.1 2.1 0
v 1 2 0
v 1 2.1 0
v 0.1 2.1 -0.1
v 0.1 2.2 -0.1
v 0.2 2.1 -0.1
v 0.2 2.2 -0.1
v 0.1 2 -0.2
v 0.1 2.1 -0.2
v 0.2 2 -0.2
v 0.2 2.1 -0.2
v 0.2 2.2 -0.3
v 0.2 2.3 -0.3
v 0.3 2.2 -0.3
v 0.3 2.3 -0.3
v 0.3 2.3 -0.4
v 0.3 2.4 -0.4
v 0.4 2.3 -0.4
v 0.4 2.4 -0.4
v 0.1 2 -0.5
v 0.1 2.1 -0.5
v 0.2 2 -0.5
v 0.2 2.1 -0.5
v 0.4 2.4 -0.5
v 0.4 2.5 -0.5
v 0.5 2.4 -0.5
v 0.5 2.5 -0.5
v 0.5 2.5 -0.7
v 0.5 2.6 -0.7
v 0.6 2.5 -0.7
v 0.6 2.6 -0.7
v 0.1 2 -1.5
v 0.1 2.1 -1.5
v 0.2 2 -1.5
v 0.2 2.1 -1.5
v 0.1 2 -0.1
v 0.1 2.1 -0.1
v 0.2 2 -0.1
v 0.2 2.1 -0.1
v 0.1 2 -0.4
v 0.1 2.1 -0.4
v 0.2 2 -0.4
v 0.2 2.1 -0.4
v 0.5 2.5 -0.8
v 0.5 2.6 -0.8
v 0.6 2.5 -0.8
v 0.6 2.6 -0.8
v 0.4 2.4 -1
v 0.4 2.5 -1
v 0.5 2.4 -1
v 0.5 2.5 -1
v 0.3 2.3 -1.2
v 0.3 2.4 -1.2
v 0.4 2.3 -1.2
v 0.4 2.4 -1.2
v 0.1 2 -1.3
v 0.1 2.1 -1.3
v 0.2 2 -1.3
v 0.2 2.1 -1.3
v 0.2 2.2 -1.3
v 0.2 2.3 -1.3
v 0.3 2.2 -1.3
v 0.3 2.3 -1.3
v 0.1 2.1 -1.5
v 0.1 2.2 -1.5
v 0.2 2.1 -1.5
v 0.2 2.2 -1.5
v 0 2 -1.6
v 0 2.1 -1.6
v 0.1 2 -1.6
v 0.1 2.1 -1.6
v 1 2 -1.6
v 1 2.1 -1.6
v 0 2 0
v 0.1 2 0
v 1 2 0
v 0 2 -0.1
v 0.1 2 -0.1
v 0.2 2 -0.1
v 0.3 2 -0.1
v 0.1 2 -0.2
v 0.2 2 -0.2
v 0.2 2 -0.3
v 0.3 2 -0.3
v 0.4 2 -0.3
v 0.1 2 -0.4
v 0.2 2 -0.4
v 0.3 2 -0.4
v 0.4 2 -0.4
v 0.5 2 -0.4
v 0.1 2 -0.5
v 0.2 2 -0.5
v 0.4 2 -0.5
v 0.5 2 -0.5
v 0.6 2 -0.5
v 0.3 2 -0.7
v 0.4 2 -0.7
v 0.5 2 -0.7
v 0.6 2 -0.7
v 0.7 2 -0.7
v 0.3 2 -0.8
v 0.4 2 -0.8
v 0.5 2 -0.8
v 0.6 2 -0.8
v 0.7 2 -0.8
v 0.3 2 -1
v 0.4 2 -1
v 0.5 2 -1
v 0.6 2 -1
v 0.3 2 -1.1
v 0.4 2 -1.1
v 0.3 2 -1.2
v 0.4 2 -1.2
v 0.5 2 -1.2
v 0.1 2 -1.3
v 0.2 2 -1.3
v 0.3 2 -1.3
v 0.4 2 -1.3
v 0 2 -1.5
v 0.1 2 -1.5
v 0.2 2 -1.5
v 0.3 2 -1.5
v 0 2 -1.6
v 0.1 2 -1.6
v 1 2 -1.6
v 0.1 2.1 -0.1
v 0.2 2.1 -0.1
v 0.1 2.1 -0.2
v 0.2 2.1 -0.2
v 0.1 2.1 -0.4
v 0.2 2.1 -0.4
v 0.1 2.1 -0.5
v 0.2 2.1 -0.5
v 0.1 2.1 -1.3
v 0.2 2.1 -1.3
v 0.1 2.1 -1.5
v 0.2 2.1 -1.5
v 0.2 2.2 -0.3
v 0.3 2.2 -0.3
v 0.2 2.2 -0.4
v 0.3 2.2 -0.4
v 0.2 2.2 -1.2
v 0.3 2.2 -1.2
v 0.2 2.2 -1.3
v 0.3 2.2 -1.3
v 0.3 2.3 -0.4
v 0.4 2.3 -0.4
v 0.3 2.3 -0.5
v 0.4 2.3 -0.5
v 0.3 2.3 -1
v 0.4 2.3 -1
v 0.3 2.3 -1.2
v 0.4 2.3 -1.2
v 0.4 2.4 -0.5
v 0.5 2.4 -0.5
v 0.4 2.4 -0.7
v 0.5 2.4 -0.7
v 0.4 2.4 -0.8
v 0.5 2.4 -0.8
v 0.4 2.4 -1
v 0.5 2.4 -1
v 0.5 2.5 -0.7
v 0.6 2.5 -0.7
v 0.5 2.5 -0.8
v 0.6 2.5 -0.8
v 0 2.1 0
v 0.1 2.1 0
v 1 2.1 0
v 0 2.1 -0.1
v 0.1 2.1 -0.1
v 0.2 2.1 -0.1
v 0.3 2.1 -0.1
v 0.1 2.1 -0.3
v 0.2 2.1 -0.3
v 0.3 2.1 -0.3
v 0.4 2.1 -0.3
v 0.3 2.1 -0.4
v 0.4 2.1 -0.4
v 0.5 2.1 -0.4
v 0.4 2.1 -0.5
v 0.5 2.1 -0.5
v 0.6 2.1 -0.5
v 0.3 2.1 -0.7
v 0.4 2.1 -0.7
v 0.5 2.1 -0.7
v 0.6 2.1 -0.7
v 0.7 2.1 -0.7
v 0.3 2.1 -0.8
v 0.4 2.1 -0.8
v 0.5 2.1 -0.8
v 0.6 2.1 -0.8
v 0.7 2.1 -0.8
v 0.3 2.1 -1
v 0.4 2.1 -1
v 0.5 2.1 -1
v 0.6 2.1 -1
v 0.3 2.1 -1.1
v 0.4 2.1 -1.1
v 0.3 2.1 -1.2
v 0.4 2.1 -1.2
v 0.5 2.1 -1.2
v 0.1 2.1 -1.3
v 0.2 2.1 -1.3
v 0.3 2.1 -1.3
v 0.4 2.1 -1.3
v 0 2.1 -1.5
v 0.1 2.1 -1.5
v 0.2 2.1 -1.5
v 0.3 2.1 -1.5
v 0 2.1 -1.6
v 0.1 2.1 -1.6
v 1 2.1 -1.6
v 0.1 2.2 -0.1
v 0.2 2.2 -0.1
v 0.1 2.2 -0.3
v 0.2 2.2 -0.3
v 0.2 2.2 -0.4
v 0.2 2.2 -1.2
v 0.1 2.2 -1.3
v 0.2 2.2 -1.3
v 0.1 2.2 -1.5
v 0.2 2.2 -1.5
v 0.2 2.3 -0.3
v 0.3 2.3 -0.3
v 0.2 2.3 -0.4
v 0.3 2.3 -0.4
v 0.3 2.3 -0.5
v 0.3 2.3 -1
v 0.2 2.3 -1.2
v 0.3 2.3 -1.2
v 0.2 2.3 -1.3
v 0.3 2.3 -1.3
v 0.3 2.4 -0.4
v 0.4 2.4 -0.4
v 0.3 2.4 -0.5
v 0.4 2.4 -0.5
v 0.4 2.4 -0.7
v 0.4 2.4 -0.8
v 0.3 2.4 -1
v 0.4 2.4 -1
v 0.3 2.4 -1.2
v 0.4 2.4 -1.2
v 0.4 2.5 -0.5
v 0.5 2.5 -0.5
v 0.4 2.5 -0.7
v 0.5 2.5 -0.7
v 0.4 2.5 -0.8
v 0.5 2.5 -0.8
v 0.4 2.5 -1
v 0.5 2.5 -1
v 0.5 2.6 -0.7
v 0.6 2.6 -0.7
v 0.5 2.6 -0.8
v 0.6 2.6 -0.8

# faces
f 5/1/1 2/1/1 1/1/1
f 6/2/1 3/2/1 2/2/1
f 6/1/1 2/1/1 5/1/1
f 7/1/1 4/1/1 3/1/1
f 7/2/1 3/2/1 6/2/1
f 8/1/1 4/1/1 7/1/1
f 13/1/1 10/1/1 9/1/1
f 14/2/1 11/2/1 10/2/1
f 14/1/1 10/1/1 13/1/1
f 15/1/1 12/1/1 11/1/1
f 15/2/1 11/2/1 14/2/1
f 16/1/1 12/1/1 15/1/1
f 23/1/1 18/1/1 17/1/1
f 24/1/1 18/1/1 23/1/1
f 25/3/1 20/3/1 19/3/1
f 26/3/1 20/3/1 25/3/1
f 27/1/1 22/1/1 21/1/1
f 28/1/1 22/1/1 27/1/1
f 33/1/1 30/1/1 29/1/1
f 34/2/1 31/2/1 30/2/1
f 34/1/1 30/1/1 33/1/1
f 35/1/1 32/1/1 31/1/1
f 35/2/1 31/2/1 34/2/1
f 36/1/1 32/1/1 35/1/1
f 41/1/1 38/1/1 37/1/1
f 42/2/1 39/2/1 38/2/1
f 42/1/1 38/1/1 41/1/1
f 43/1/1 40/1/1 39/1/1
f 43/2/1 39/2/1 42/2/1
f 44/1/1 40/1/1 43/1/1
f 49/1/1 46/1/1 45/1/1
f 50/2/1 47/2/1 46/2/1
f 50/1/1 46/1/1 49/1/1
f 51/1/1 48/1/1 47/1/1
f 51/2/1 47/2/1 50/2/1
f 52/1/1 48/1/1 51/1/1
f 55/1/1 54/1/1 53/1/1
f 56/1/1 54/1/1 55/1/1
f 57/2/2 58/2/2 63/2/2
f 63/2/2 58/2/2 64/2/2
f 59/2/2 60/2/2 65/2/2
f 65/2/2 60/2/2 66/2/2
f 61/2/2 62/2/2 67/2/2
f 67/2/2 62/2/2 68/2/2
f 69/1/2 70/1/2 73/1/2
f 70/2/2 71/2/2 74/2/2
f 73/1/2 70/1/2 74/1/2
f 74/2/2 71/2/2 75/2/2
f 75/2/2 71/2/2 76/2/2
f 71/1/2 72/1/2 77/1/2
f 76/2/2 71/2/2 77/2/2
f 77/1/2 72/1/2 78/1/2
f 79/1/2 80/1/2 83/1/2
f 80/2/2 81/2/2 84/2/2
f 83/1/2 80/1/2 84/1/2
f 84/2/2 81/2/2 85/2/2
f 85/2/2 81/2/2 86/2/2
f 81/1/2 82/1/2 87/1/2
f 86/2/2 81/2/2 87/2/2
f 87/1/2 82/1/2 88/1/2
f 89/1/2 90/1/2 93/1/2
f 90/2/2 91/2/2 94/2/2
f 93/1/2 90/1/2 94/1/2
f 94/2/2 91/2/2 95/2/2
f 95/2/2 91/2/2 96/2/2
f 91/1/2 92/1/2 97/1/2
f 96/2/2 91/2/2 97/2/2
f 97/1/2 92/1/2 98/1/2
f 99/1/2 100/1/2 103/1/2
f 100/2/2 101/2/2 104/2/2
f 103/1/2 100/1/2 104/1/2
f 101/1/2 102/1/2 105/1/2
f 104/2/2 101/2/2 105/2/2
f 105/1/2 102/1/2 106/1/2
f 107/1/2 108/1/2 109/1/2
f 109/1/2 108/1/2 110/1/2
f 111/2/2 112/2/2 113/2/2
f 113/2/2 112/2/2 114/2/2
f 117/1/3 116/1/3 115/1/3
f 118/1/3 116/1/3 117/1/3
f 119/2/3 118/2/3 117/2/3
f 120/2/3 118/2/3 119/2/3
f 123/1/3 122/1/3 121/1/3
f 124/1/3 122/1/3 123/1/3
f 127/2/3 126/2/3 125/2/3
f 128/2/3 126/2/3 127/2/3
f 131/1/3 130/1/3 129/1/3
f 132/1/3 130/1/3 131/1/3
f 135/1/3 134/1/3 133/1/3
f 136/1/3 134/1/3 135/1/3
f 139/2/3 138/2/3 137/2/3
f 140/2/3 138/2/3 139/2/3
f 143/1/3 142/1/3 141/1/3
f 144/1/3 142/1/3 143/1/3
f 147/1/3 146/1/3 145/1/3
f 148/1/3 146/1/3 147/1/3
f 151/2/3 150/2/3 149/2/3
f 152/2/3 150/2/3 151/2/3
f 153/2/4 154/2/4 155/2/4
f 155/2/4 154/2/4 156/2/4
f 157/2/4 158/2/4 159/2/4
f 159/2/4 158/2/4 160/2/4
f 161/1/4 162/1/4 163/1/4
f 163/1/4 162/1/4 164/1/4
f 165/1/4 166/1/4 167/1/4
f 167/1/4 166/1/4 168/1/4
f 169/1/4 170/1/4 171/1/4
f 171/1/4 170/1/4 172/1/4
f 173/2/4 174/2/4 175/2/4
f 175/2/4 174/2/4 176/2/4
f 177/1/4 178/1/4 179/1/4
f 179/1/4 178/1/4 180/1/4
f 181/1/4 182/1/4 183/1/4
f 183/1/4 182/1/4 184/1/4
f 185/1/4 186/1/4 187/1/4
f 187/1/4 186/1/4 188/1/4
f 187/2/4 188/2/4 189/2/4
f 189/2/4 188/2/4 190/2/4
f 194/1/5 192/1/5 191/1/5
f 195/2/5 193/2/5 192/2/5
f 195/1/5 192/1/5 194/1/5
f 196/2/5 193/2/5 195/2/5
f 197/2/5 193/2/5 196/2/5
f 198/2/5 195/2/5 194/2/5
f 199/1/5 197/1/5 196/1/5
f 200/1/5 197/1/5 199/1/5
f 200/2/5 199/2/5 198/2/5
f 201/2/5 193/2/5 197/2/5
f 201/1/5 197/1/5 200/1/5
f 202/2/5 193/2/5 201/2/5
f 203/2/5 200/2/5 198/2/5
f 203/2/5 198/2/5 194/2/5
f 204/3/5 201/3/5 200/3/5
f 204/2/5 200/2/5 203/2/5
f 205/1/5 202/1/5 201/1/5
f 205/3/5 201/3/5 204/3/5
f 206/2/5 193/2/5 202/2/5
f 206/1/5 202/1/5 205/1/5
f 207/2/5 193/2/5 206/2/5
f 208/2/5 203/2/5 194/2/5
f 209/3/5 205/3/5 204/3/5
f 210/1/5 207/1/5 206/1/5
f 210/4/5 206/4/5 205/4/5
f 211/2/5 193/2/5 207/2/5
f 211/1/5 207/1/5 210/1/5
f 212/2/5 193/2/5 211/2/5
f 213/4/5 210/4/5 205/4/5
f 213/3/5 205/3/5 209/3/5
f 214/3/5 211/3/5 210/3/5
f 214/4/5 210/4/5 213/4/5
f 215/1/5 212/1/5 211/1/5
f 215/3/5 211/3/5 214/3/5
f 216/2/5 193/2/5 212/2/5
f 216/1/5 212/1/5 215/1/5
f 217/2/5 193/2/5 216/2/5
f 218/3/5 215/3/5 214/3/5
f 218/3/5 214/3/5 213/3/5
f 218/3/5 213/3/5 209/3/5
f 218/3/5 216/3/5 215/3/5
f 219/3/5 216/3/5 218/3/5
f 220/3/5 216/3/5 219/3/5
f 221/1/5 217/1/5 216/1/5
f 221/3/5 216/3/5 220/3/5
f 222/2/5 193/2/5 217/2/5
f 222/1/5 217/1/5 221/1/5
f 223/3/5 218/3/5 209/3/5
f 223/4/5 219/4/5 218/4/5
f 224/3/5 220/3/5 219/3/5
f 224/4/5 219/4/5 223/4/5
f 225/1/5 221/1/5 220/1/5
f 225/3/5 220/3/5 224/3/5
f 226/2/5 222/2/5 221/2/5
f 226/1/5 221/1/5 225/1/5
f 227/3/5 224/3/5 223/3/5
f 227/3/5 223/3/5 209/3/5
f 228/1/5 225/1/5 224/1/5
f 228/3/5 224/3/5 227/3/5
f 229/3/5 227/3/5 209/3/5
f 229/4/5 228/4/5 227/4/5
f 230/1/5 225/1/5 228/1/5
f 230/4/5 228/4/5 229/4/5
f 231/2/5 226/2/5 225/2/5
f 231/1/5 225/1/5 230/1/5
f 232/2/5 208/2/5 194/2/5
f 232/2/5 209/2/5 208/2/5
f 233/3/5 229/3/5 209/3/5
f 233/2/5 209/2/5 232/2/5
f 234/1/5 230/1/5 229/1/5
f 234/3/5 229/3/5 233/3/5
f 235/2/5 231/2/5 230/2/5
f 235/1/5 230/1/5 234/1/5
f 236/2/5 232/2/5 194/2/5
f 237/2/5 232/2/5 236/2/5
f 238/1/5 234/1/5 233/1/5
f 239/2/5 235/2/5 234/2/5
f 239/1/5 234/1/5 238/1/5
f 240/1/5 237/1/5 236/1/5
f 241/2/5 238/2/5 237/2/5
f 241/1/5 237/1/5 240/1/5
f 241/2/5 239/2/5 238/2/5
f 242/2/5 226/2/5 231/2/5
f 242/2/5 239/2/5 241/2/5
f 242/2/5 222/2/5 226/2/5
f 242/2/5 235/2/5 239/2/5
f 242/2/5 231/2/5 235/2/5
f 242/2/5 193/2/5 222/2/5
f 245/1/5 244/1/5 243/1/5
f 246/1/5 244/1/5 245/1/5
f 249/2/5 248/2/5 247/2/5
f 250/2/5 248/2/5 249/2/5
f 253/1/5 252/1/5 251/1/5
f 254/1/5 252/1/5 253/1/5
f 257/1/5 256/1/5 255/1/5
f 258/1/5 256/1/5 257/1/5
f 259/2/5 258/2/5 257/2/5
f 260/2/5 258/2/5 259/2/5
f 261/1/5 260/1/5 259/1/5
f 262/1/5 260/1/5 261/1/5
f 265/1/5 264/1/5 263/1/5
f 266/1/5 264/1/5 265/1/5
f 267/2/5 266/2/5 265/2/5
f 268/2/5 266/2/5 267/2/5
f 269/1/5 268/1/5 267/1/5
f 270/1/5 268/1/5 269/1/5
f 273/1/5 272/1/5 271/1/5
f 274/1/5 272/1/5 273/1/5
f 275/2/5 274/2/5 273/2/5
f 276/2/5 274/2/5 275/2/5
f 277/1/5 276/1/5 275/1/5
f 278/1/5 276/1/5 277/1/5
f 281/1/5 280/1/5 279/1/5
f 282/1/5 280/1/5 281/1/5
f 283/1/6 284/1/6 286/1/6
f 284/2/6 285/2/6 287/2/6
f 286/1/6 284/1/6 287/1/6
f 287/2/6 285/2/6 288/2/6
f 288/2/6 285/2/6 289/2/6
f 286/2/6 287/2/6 290/2/6
f 288/1/6 289/1/6 291/1/6
f 289/2/6 285/2/6 292/2/6
f 291/1/6 289/1/6 292/1/6
f 292/2/6 285/2/6 293/2/6
f 291/3/6 292/3/6 294/3/6
f 292/1/6 293/1/6 294/1/6
f 293/2/6 285/2/6 295/2/6
f 294/1/6 293/1/6 295/1/6
f 295/2/6 285/2/6 296/2/6
f 294/4/6 295/4/6 297/4/6
f 295/1/6 296/1/6 297/1/6
f 296/2/6 285/2/6 298/2/6
f 297/1/6 296/1/6 298/1/6
f 298/2/6 285/2/6 299/2/6
f 291/3/6 294/3/6 300/3/6
f 294/4/6 297/4/6 300/4/6
f 297/3/6 298/3/6 301/3/6
f 300/4/6 297/4/6 301/4/6
f 298/1/6 299/1/6 302/1/6
f 301/3/6 298/3/6 302/3/6
f 299/2/6 285/2/6 303/2/6
f 302/1/6 299/1/6 303/1/6
f 303/2/6 285/2/6 304/2/6
f 301/3/6 302/3/6 305/3/6
f 300/3/6 301/3/6 305/3/6
f 291/3/6 300/3/6 305/3/6
f 302/3/6 303/3/6 305/3/6
f 305/3/6 303/3/6 306/3/6
f 306/3/6 303/3/6 307/3/6
f 303/1/6 304/1/6 308/1/6
f 307/3/6 303/3/6 308/3/6
f 304/2/6 285/2/6 309/2/6
f 308/1/6 304/1/6 309/1/6
f 291/3/6 305/3/6 310/3/6
f 305/4/6 306/4/6 310/4/6
f 306/3/6 307/3/6 311/3/6
f 310/4/6 306/4/6 311/4/6
f 307/1/6 308/1/6 312/1/6
f 311/3/6 307/3/6 312/3/6
f 308/2/6 309/2/6 313/2/6
f 312/1/6 308/1/6 313/1/6
f 310/3/6 311/3/6 314/3/6
f 291/3/6 310/3/6 314/3/6
f 311/1/6 312/1/6 315/1/6
f 314/3/6 311/3/6 315/3/6
f 291/3/6 314/3/6 316/3/6
f 314/4/6 315/4/6 316/4/6
f 315/1/6 312/1/6 317/1/6
f 316/4/6 315/4/6 317/4/6
f 312/2/6 313/2/6 318/2/6
f 317/1/6 312/1/6 318/1/6
f 286/2/6 290/2/6 319/2/6
f 291/3/6 316/3/6 320/3/6
f 316/1/6 317/1/6 321/1/6
f 320/3/6 316/3/6 321/3/6
f 317/2/6 318/2/6 322/2/6
f 321/1/6 317/1/6 322/1/6
f 286/2/6 319/2/6 323/2/6
f 323/2/6 319/2/6 324/2/6
f 320/1/6 321/1/6 325/1/6
f 321/2/6 322/2/6 326/2/6
f 325/1/6 321/1/6 326/1/6
f 323/1/6 324/1/6 327/1/6
f 324/2/6 325/2/6 328/2/6
f 327/1/6 324/1/6 328/1/6
f 325/2/6 326/2/6 328/2/6
f 318/2/6 313/2/6 329/2/6
f 328/2/6 326/2/6 329/2/6
f 313/2/6 309/2/6 329/2/6
f 309/2/6 285/2/6 329/2/6
f 322/2/6 318/2/6 329/2/6
f 326/2/6 322/2/6 329/2/6
f 330/1/6 331/1/6 332/1/6
f 332/1/6 331/1/6 333/1/6
f 332/2/6 333/2/6 334/2/6
f 332/2/6 334/2/6 335/2/6
f 332/2/6 335/2/6 336/2/6
f 336/2/6 335/2/6 337/2/6
f 336/1/6 337/1/6 338/1/6
f 338/1/6 337/1/6 339/1/6
f 340/1/6 341/1/6 342/1/6
f 342/1/6 341/1/6 343/1/6
f 342/2/6 343/2/6 344/2/6
f 342/2/6 344/2/6 345/2/6
f 342/2/6 345/2/6 346/2/6
f 346/2/6 345/2/6 347/2/6
f 346/1/6 347/1/6 348/1/6
f 348/1/6 347/1/6 349/1/6
f 350/1/6 351/1/6 352/1/6
f 352/1/6 351/1/6 353/1/6
f 352/2/6 353/2/6 354/2/6
f 352/2/6 354/2/6 355/2/6
f 352/2/6 355/2/6 356/2/6
f 356/2/6 355/2/6 357/2/6
f 356/1/6 357/1/6 358/1/6
f 358/1/6 357/1/6 359/1/6
f 360/1/6 361/1/6 362/1/6
f 362/1/6 361/1/6 363/1/6
f 362/2/6 363/2/6 364/2/6
f 364/2/6 363/2/6 365/2/6
f 364/1/6 365/1/6 366/1/6
f 366/1/6 365/1/6 367/1/6
f 368/1/6 369/1/6 370/1/6
f 370/1/6 369/1/6 371/1/6
