# MagicaVoxel @ Ephtracy

# group
o 

# material
mtllib comedero gato.mtl
usemtl palette

# normals
vn -1 0 0
vn 1 0 0
vn 0 0 1
vn 0 0 -1
vn 0 -1 0
vn 0 1 0

# texcoords
vt 0.224609 0.5
vt 0.232422 0.5
vt 0.923828 0.5

# verts
v 0 2.1 -0.2
v 0 2.1 -0.7
v 0 2.2 -0.2
v 0 2.2 -0.7
v 0.1 2 -0.3
v 0.1 2 -0.6
v 0.1 2.1 -0.1
v 0.1 2.1 -0.2
v 0.1 2.1 -0.3
v 0.1 2.1 -0.6
v 0.1 2.1 -0.7
v 0.1 2.1 -0.8
v 0.1 2.2 -0.1
v 0.1 2.2 -0.2
v 0.1 2.2 -0.7
v 0.1 2.2 -0.8
v 0.2 2 -0.2
v 0.2 2 -0.3
v 0.2 2 -0.6
v 0.2 2 -0.7
v 0.2 2.1 0
v 0.2 2.1 -0.1
v 0.2 2.1 -0.2
v 0.2 2.1 -0.3
v 0.2 2.1 -0.6
v 0.2 2.1 -0.7
v 0.2 2.1 -0.8
v 0.2 2.1 -0.9
v 0.2 2.2 0
v 0.2 2.2 -0.1
v 0.2 2.2 -0.2
v 0.2 2.2 -0.3
v 0.2 2.2 -0.4
v 0.2 2.2 -0.5
v 0.2 2.2 -0.8
v 0.2 2.2 -0.9
v 0.2 2.3 -0.2
v 0.2 2.3 -0.3
v 0.2 2.3 -0.4
v 0.2 2.3 -0.5
v 0.3 2 -0.1
v 0.3 2 -0.2
v 0.3 2 -0.7
v 0.3 2 -0.8
v 0.3 2.1 -0.1
v 0.3 2.1 -0.2
v 0.3 2.1 -0.7
v 0.3 2.1 -0.8
v 0.3 2.2 -0.3
v 0.3 2.2 -0.4
v 0.3 2.2 -0.6
v 0.3 2.2 -0.7
v 0.3 2.3 -0.3
v 0.3 2.3 -0.4
v 0.3 2.3 -0.6
v 0.3 2.3 -0.7
v 0.4 2.2 -0.5
v 0.4 2.2 -0.6
v 0.4 2.3 -0.5
v 0.4 2.3 -0.6
v 0.5 2.2 -0.2
v 0.5 2.2 -0.3
v 0.5 2.2 -0.4
v 0.5 2.2 -0.5
v 0.5 2.2 -0.6
v 0.5 2.2 -0.7
v 0.5 2.3 -0.2
v 0.5 2.3 -0.3
v 0.5 2.3 -0.4
v 0.5 2.3 -0.5
v 0.5 2.3 -0.6
v 0.5 2.3 -0.7
v 0.6 2.2 -0.5
v 0.6 2.2 -0.6
v 0.6 2.3 -0.5
v 0.6 2.3 -0.6
v 0.3 2.2 -0.2
v 0.3 2.2 -0.3
v 0.3 2.2 -0.4
v 0.3 2.2 -0.5
v 0.3 2.3 -0.2
v 0.3 2.3 -0.3
v 0.3 2.3 -0.4
v 0.3 2.3 -0.5
v 0.4 2.2 -0.3
v 0.4 2.2 -0.4
v 0.4 2.2 -0.6
v 0.4 2.2 -0.7
v 0.4 2.3 -0.3
v 0.4 2.3 -0.4
v 0.4 2.3 -0.6
v 0.4 2.3 -0.7
v 0.5 2.2 -0.5
v 0.5 2.2 -0.6
v 0.5 2.3 -0.5
v 0.5 2.3 -0.6
v 0.6 2 -0.1
v 0.6 2 -0.2
v 0.6 2 -0.7
v 0.6 2 -0.8
v 0.6 2.1 -0.1
v 0.6 2.1 -0.2
v 0.6 2.1 -0.7
v 0.6 2.1 -0.8
v 0.6 2.2 -0.2
v 0.6 2.2 -0.3
v 0.6 2.2 -0.4
v 0.6 2.2 -0.5
v 0.6 2.2 -0.6
v 0.6 2.2 -0.7
v 0.6 2.3 -0.2
v 0.6 2.3 -0.3
v 0.6 2.3 -0.4
v 0.6 2.3 -0.5
v 0.6 2.3 -0.6
v 0.6 2.3 -0.7
v 0.7 2 -0.2
v 0.7 2 -0.3
v 0.7 2 -0.6
v 0.7 2 -0.7
v 0.7 2.1 0
v 0.7 2.1 -0.1
v 0.7 2.1 -0.2
v 0.7 2.1 -0.3
v 0.7 2.1 -0.6
v 0.7 2.1 -0.7
v 0.7 2.1 -0.8
v 0.7 2.1 -0.9
v 0.7 2.2 0
v 0.7 2.2 -0.1
v 0.7 2.2 -0.5
v 0.7 2.2 -0.6
v 0.7 2.2 -0.8
v 0.7 2.2 -0.9
v 0.7 2.3 -0.5
v 0.7 2.3 -0.6
v 0.8 2 -0.3
v 0.8 2 -0.6
v 0.8 2.1 -0.1
v 0.8 2.1 -0.2
v 0.8 2.1 -0.3
v 0.8 2.1 -0.6
v 0.8 2.1 -0.7
v 0.8 2.1 -0.8
v 0.8 2.2 -0.1
v 0.8 2.2 -0.2
v 0.8 2.2 -0.7
v 0.8 2.2 -0.8
v 0.9 2.1 -0.2
v 0.9 2.1 -0.7
v 0.9 2.2 -0.2
v 0.9 2.2 -0.7
v 0.2 2.1 0
v 0.2 2.2 0
v 0.7 2.1 0
v 0.7 2.2 0
v 0.1 2.1 -0.1
v 0.1 2.2 -0.1
v 0.2 2.1 -0.1
v 0.2 2.2 -0.1
v 0.3 2 -0.1
v 0.3 2.1 -0.1
v 0.6 2 -0.1
v 0.6 2.1 -0.1
v 0.7 2.1 -0.1
v 0.7 2.2 -0.1
v 0.8 2.1 -0.1
v 0.8 2.2 -0.1
v 0 2.1 -0.2
v 0 2.2 -0.2
v 0.1 2.1 -0.2
v 0.1 2.2 -0.2
v 0.2 2 -0.2
v 0.2 2.1 -0.2
v 0.2 2.2 -0.2
v 0.2 2.3 -0.2
v 0.3 2 -0.2
v 0.3 2.1 -0.2
v 0.3 2.2 -0.2
v 0.3 2.3 -0.2
v 0.5 2.2 -0.2
v 0.5 2.3 -0.2
v 0.6 2 -0.2
v 0.6 2.1 -0.2
v 0.6 2.2 -0.2
v 0.6 2.3 -0.2
v 0.7 2 -0.2
v 0.7 2.1 -0.2
v 0.8 2.1 -0.2
v 0.8 2.2 -0.2
v 0.9 2.1 -0.2
v 0.9 2.2 -0.2
v 0.1 2 -0.3
v 0.1 2.1 -0.3
v 0.2 2 -0.3
v 0.2 2.1 -0.3
v 0.3 2.2 -0.3
v 0.3 2.3 -0.3
v 0.4 2.2 -0.3
v 0.4 2.3 -0.3
v 0.7 2 -0.3
v 0.7 2.1 -0.3
v 0.8 2 -0.3
v 0.8 2.1 -0.3
v 0.2 2.2 -0.4
v 0.2 2.3 -0.4
v 0.3 2.2 -0.4
v 0.3 2.3 -0.4
v 0.5 2.2 -0.4
v 0.5 2.3 -0.4
v 0.6 2.2 -0.4
v 0.6 2.3 -0.4
v 0.4 2.2 -0.5
v 0.4 2.3 -0.5
v 0.5 2.2 -0.5
v 0.5 2.3 -0.5
v 0.6 2.2 -0.5
v 0.6 2.3 -0.5
v 0.7 2.2 -0.5
v 0.7 2.3 -0.5
v 0.3 2.2 -0.6
v 0.3 2.3 -0.6
v 0.4 2.2 -0.6
v 0.4 2.3 -0.6
v 0.5 2.2 -0.6
v 0.5 2.3 -0.6
v 0.6 2.2 -0.6
v 0.6 2.3 -0.6
v 0.2 2.2 -0.3
v 0.2 2.3 -0.3
v 0.3 2.2 -0.3
v 0.3 2.3 -0.3
v 0.5 2.2 -0.3
v 0.5 2.3 -0.3
v 0.6 2.2 -0.3
v 0.6 2.3 -0.3
v 0.3 2.2 -0.4
v 0.3 2.3 -0.4
v 0.4 2.2 -0.4
v 0.4 2.3 -0.4
v 0.2 2.2 -0.5
v 0.2 2.3 -0.5
v 0.3 2.2 -0.5
v 0.3 2.3 -0.5
v 0.5 2.2 -0.5
v 0.5 2.3 -0.5
v 0.6 2.2 -0.5
v 0.6 2.3 -0.5
v 0.1 2 -0.6
v 0.1 2.1 -0.6
v 0.2 2 -0.6
v 0.2 2.1 -0.6
v 0.4 2.2 -0.6
v 0.4 2.3 -0.6
v 0.5 2.2 -0.6
v 0.5 2.3 -0.6
v 0.6 2.2 -0.6
v 0.6 2.3 -0.6
v 0.7 2 -0.6
v 0.7 2.1 -0.6
v 0.7 2.2 -0.6
v 0.7 2.3 -0.6
v 0.8 2 -0.6
v 0.8 2.1 -0.6
v 0 2.1 -0.7
v 0 2.2 -0.7
v 0.1 2.1 -0.7
v 0.1 2.2 -0.7
v 0.2 2 -0.7
v 0.2 2.1 -0.7
v 0.3 2 -0.7
v 0.3 2.1 -0.7
v 0.3 2.2 -0.7
v 0.3 2.3 -0.7
v 0.4 2.2 -0.7
v 0.4 2.3 -0.7
v 0.5 2.2 -0.7
v 0.5 2.3 -0.7
v 0.6 2 -0.7
v 0.6 2.1 -0.7
v 0.6 2.2 -0.7
v 0.6 2.3 -0.7
v 0.7 2 -0.7
v 0.7 2.1 -0.7
v 0.8 2.1 -0.7
v 0.8 2.2 -0.7
v 0.9 2.1 -0.7
v 0.9 2.2 -0.7
v 0.1 2.1 -0.8
v 0.1 2.2 -0.8
v 0.2 2.1 -0.8
v 0.2 2.2 -0.8
v 0.3 2 -0.8
v 0.3 2.1 -0.8
v 0.6 2 -0.8
v 0.6 2.1 -0.8
v 0.7 2.1 -0.8
v 0.7 2.2 -0.8
v 0.8 2.1 -0.8
v 0.8 2.2 -0.8
v 0.2 2.1 -0.9
v 0.2 2.2 -0.9
v 0.7 2.1 -0.9
v 0.7 2.2 -0.9
v 0.3 2 -0.1
v 0.6 2 -0.1
v 0.2 2 -0.2
v 0.3 2 -0.2
v 0.6 2 -0.2
v 0.7 2 -0.2
v 0.1 2 -0.3
v 0.2 2 -0.3
v 0.7 2 -0.3
v 0.8 2 -0.3
v 0.1 2 -0.6
v 0.2 2 -0.6
v 0.7 2 -0.6
v 0.8 2 -0.6
v 0.2 2 -0.7
v 0.3 2 -0.7
v 0.6 2 -0.7
v 0.7 2 -0.7
v 0.3 2 -0.8
v 0.6 2 -0.8
v 0.2 2.1 0
v 0.7 2.1 0
v 0.1 2.1 -0.1
v 0.2 2.1 -0.1
v 0.3 2.1 -0.1
v 0.6 2.1 -0.1
v 0.7 2.1 -0.1
v 0.8 2.1 -0.1
v 0 2.1 -0.2
v 0.1 2.1 -0.2
v 0.2 2.1 -0.2
v 0.3 2.1 -0.2
v 0.6 2.1 -0.2
v 0.7 2.1 -0.2
v 0.8 2.1 -0.2
v 0.9 2.1 -0.2
v 0.1 2.1 -0.3
v 0.2 2.1 -0.3
v 0.7 2.1 -0.3
v 0.8 2.1 -0.3
v 0.1 2.1 -0.6
v 0.2 2.1 -0.6
v 0.7 2.1 -0.6
v 0.8 2.1 -0.6
v 0 2.1 -0.7
v 0.1 2.1 -0.7
v 0.2 2.1 -0.7
v 0.3 2.1 -0.7
v 0.6 2.1 -0.7
v 0.7 2.1 -0.7
v 0.8 2.1 -0.7
v 0.9 2.1 -0.7
v 0.1 2.1 -0.8
v 0.2 2.1 -0.8
v 0.3 2.1 -0.8
v 0.6 2.1 -0.8
v 0.7 2.1 -0.8
v 0.8 2.1 -0.8
v 0.2 2.1 -0.9
v 0.7 2.1 -0.9
v 0.2 2.2 0
v 0.7 2.2 0
v 0.1 2.2 -0.1
v 0.2 2.2 -0.1
v 0.3 2.2 -0.1
v 0.4 2.2 -0.1
v 0.5 2.2 -0.1
v 0.6 2.2 -0.1
v 0.7 2.2 -0.1
v 0.8 2.2 -0.1
v 0 2.2 -0.2
v 0.1 2.2 -0.2
v 0.2 2.2 -0.2
v 0.3 2.2 -0.2
v 0.4 2.2 -0.2
v 0.5 2.2 -0.2
v 0.6 2.2 -0.2
v 0.7 2.2 -0.2
v 0.8 2.2 -0.2
v 0.9 2.2 -0.2
v 0.1 2.2 -0.3
v 0.2 2.2 -0.3
v 0.3 2.2 -0.3
v 0.4 2.2 -0.3
v 0.5 2.2 -0.3
v 0.6 2.2 -0.3
v 0.7 2.2 -0.3
v 0.8 2.2 -0.3
v 0.2 2.2 -0.4
v 0.3 2.2 -0.4
v 0.4 2.2 -0.4
v 0.5 2.2 -0.4
v 0.6 2.2 -0.4
v 0.7 2.2 -0.4
v 0.2 2.2 -0.5
v 0.3 2.2 -0.5
v 0.4 2.2 -0.5
v 0.5 2.2 -0.5
v 0.6 2.2 -0.5
v 0.7 2.2 -0.5
v 0.1 2.2 -0.6
v 0.2 2.2 -0.6
v 0.3 2.2 -0.6
v 0.4 2.2 -0.6
v 0.5 2.2 -0.6
v 0.6 2.2 -0.6
v 0.7 2.2 -0.6
v 0.8 2.2 -0.6
v 0 2.2 -0.7
v 0.1 2.2 -0.7
v 0.2 2.2 -0.7
v 0.3 2.2 -0.7
v 0.4 2.2 -0.7
v 0.5 2.2 -0.7
v 0.6 2.2 -0.7
v 0.7 2.2 -0.7
v 0.8 2.2 -0.7
v 0.9 2.2 -0.7
v 0.1 2.2 -0.8
v 0.2 2.2 -0.8
v 0.3 2.2 -0.8
v 0.6 2.2 -0.8
v 0.7 2.2 -0.8
v 0.8 2.2 -0.8
v 0.2 2.2 -0.9
v 0.7 2.2 -0.9
v 0.2 2.3 -0.2
v 0.3 2.3 -0.2
v 0.5 2.3 -0.2
v 0.6 2.3 -0.2
v 0.2 2.3 -0.3
v 0.3 2.3 -0.3
v 0.4 2.3 -0.3
v 0.5 2.3 -0.3
v 0.6 2.3 -0.3
v 0.2 2.3 -0.4
v 0.3 2.3 -0.4
v 0.4 2.3 -0.4
v 0.5 2.3 -0.4
v 0.6 2.3 -0.4
v 0.2 2.3 -0.5
v 0.3 2.3 -0.5
v 0.4 2.3 -0.5
v 0.5 2.3 -0.5
v 0.6 2.3 -0.5
v 0.7 2.3 -0.5
v 0.3 2.3 -0.6
v 0.4 2.3 -0.6
v 0.5 2.3 -0.6
v 0.6 2.3 -0.6
v 0.7 2.3 -0.6
v 0.3 2.3 -0.7
v 0.4 2.3 -0.7
v 0.5 2.3 -0.7
v 0.6 2.3 -0.7

# faces
f 3/3/1 2/3/1 1/3/1
f 4/3/1 2/3/1 3/3/1
f 9/3/1 6/3/1 5/3/1
f 10/3/1 6/3/1 9/3/1
f 13/3/1 8/3/1 7/3/1
f 14/3/1 8/3/1 13/3/1
f 15/3/1 12/3/1 11/3/1
f 16/3/1 12/3/1 15/3/1
f 23/3/1 18/3/1 17/3/1
f 24/3/1 18/3/1 23/3/1
f 25/3/1 20/3/1 19/3/1
f 26/3/1 20/3/1 25/3/1
f 29/3/1 22/3/1 21/3/1
f 30/3/1 22/3/1 29/3/1
f 35/3/1 28/3/1 27/3/1
f 36/3/1 28/3/1 35/3/1
f 37/1/1 32/1/1 31/1/1
f 38/1/1 32/1/1 37/1/1
f 39/1/1 34/1/1 33/1/1
f 40/1/1 34/1/1 39/1/1
f 45/3/1 42/3/1 41/3/1
f 46/3/1 42/3/1 45/3/1
f 47/3/1 44/3/1 43/3/1
f 48/3/1 44/3/1 47/3/1
f 53/1/1 50/1/1 49/1/1
f 54/1/1 50/1/1 53/1/1
f 55/1/1 52/1/1 51/1/1
f 56/1/1 52/1/1 55/1/1
f 59/1/1 58/1/1 57/1/1
f 60/1/1 58/1/1 59/1/1
f 67/1/1 62/1/1 61/1/1
f 68/1/1 62/1/1 67/1/1
f 69/1/1 64/1/1 63/1/1
f 70/1/1 64/1/1 69/1/1
f 71/1/1 66/1/1 65/1/1
f 72/1/1 66/1/1 71/1/1
f 75/1/1 74/1/1 73/1/1
f 76/1/1 74/1/1 75/1/1
f 77/1/2 78/1/2 81/1/2
f 81/1/2 78/1/2 82/1/2
f 79/1/2 80/1/2 83/1/2
f 83/1/2 80/1/2 84/1/2
f 85/1/2 86/1/2 89/1/2
f 89/1/2 86/1/2 90/1/2
f 87/1/2 88/1/2 91/1/2
f 91/1/2 88/1/2 92/1/2
f 93/1/2 94/1/2 95/1/2
f 95/1/2 94/1/2 96/1/2
f 97/3/2 98/3/2 101/3/2
f 101/3/2 98/3/2 102/3/2
f 99/3/2 100/3/2 103/3/2
f 103/3/2 100/3/2 104/3/2
f 105/1/2 106/1/2 111/1/2
f 111/1/2 106/1/2 112/1/2
f 107/1/2 108/1/2 113/1/2
f 113/1/2 108/1/2 114/1/2
f 109/1/2 110/1/2 115/1/2
f 115/1/2 110/1/2 116/1/2
f 117/3/2 118/3/2 123/3/2
f 123/3/2 118/3/2 124/3/2
f 119/3/2 120/3/2 125/3/2
f 125/3/2 120/3/2 126/3/2
f 121/3/2 122/3/2 129/3/2
f 129/3/2 122/3/2 130/3/2
f 127/3/2 128/3/2 133/3/2
f 133/3/2 128/3/2 134/3/2
f 131/1/2 132/1/2 135/1/2
f 135/1/2 132/1/2 136/1/2
f 137/3/2 138/3/2 141/3/2
f 141/3/2 138/3/2 142/3/2
f 139/3/2 140/3/2 145/3/2
f 145/3/2 140/3/2 146/3/2
f 143/3/2 144/3/2 147/3/2
f 147/3/2 144/3/2 148/3/2
f 149/3/2 150/3/2 151/3/2
f 151/3/2 150/3/2 152/3/2
f 155/3/3 154/3/3 153/3/3
f 156/3/3 154/3/3 155/3/3
f 159/3/3 158/3/3 157/3/3
f 160/3/3 158/3/3 159/3/3
f 163/3/3 162/3/3 161/3/3
f 164/3/3 162/3/3 163/3/3
f 167/3/3 166/3/3 165/3/3
f 168/3/3 166/3/3 167/3/3
f 171/3/3 170/3/3 169/3/3
f 172/3/3 170/3/3 171/3/3
f 177/3/3 174/3/3 173/3/3
f 178/3/3 174/3/3 177/3/3
f 179/1/3 176/1/3 175/1/3
f 180/1/3 176/1/3 179/1/3
f 185/1/3 182/1/3 181/1/3
f 186/1/3 182/1/3 185/1/3
f 187/3/3 184/3/3 183/3/3
f 188/3/3 184/3/3 187/3/3
f 191/3/3 190/3/3 189/3/3
f 192/3/3 190/3/3 191/3/3
f 195/3/3 194/3/3 193/3/3
f 196/3/3 194/3/3 195/3/3
f 199/1/3 198/1/3 197/1/3
f 200/1/3 198/1/3 199/1/3
f 203/3/3 202/3/3 201/3/3
f 204/3/3 202/3/3 203/3/3
f 207/1/3 206/1/3 205/1/3
f 208/1/3 206/1/3 207/1/3
f 211/1/3 210/1/3 209/1/3
f 212/1/3 210/1/3 211/1/3
f 215/1/3 214/1/3 213/1/3
f 216/1/3 214/1/3 215/1/3
f 219/1/3 218/1/3 217/1/3
f 220/1/3 218/1/3 219/1/3
f 223/1/3 222/1/3 221/1/3
f 224/1/3 222/1/3 223/1/3
f 227/1/3 226/1/3 225/1/3
f 228/1/3 226/1/3 227/1/3
f 229/1/4 230/1/4 231/1/4
f 231/1/4 230/1/4 232/1/4
f 233/1/4 234/1/4 235/1/4
f 235/1/4 234/1/4 236/1/4
f 237/1/4 238/1/4 239/1/4
f 239/1/4 238/1/4 240/1/4
f 241/1/4 242/1/4 243/1/4
f 243/1/4 242/1/4 244/1/4
f 245/1/4 246/1/4 247/1/4
f 247/1/4 246/1/4 248/1/4
f 249/3/4 250/3/4 251/3/4
f 251/3/4 250/3/4 252/3/4
f 253/1/4 254/1/4 255/1/4
f 255/1/4 254/1/4 256/1/4
f 257/1/4 258/1/4 261/1/4
f 261/1/4 258/1/4 262/1/4
f 259/3/4 260/3/4 263/3/4
f 263/3/4 260/3/4 264/3/4
f 265/3/4 266/3/4 267/3/4
f 267/3/4 266/3/4 268/3/4
f 269/3/4 270/3/4 271/3/4
f 271/3/4 270/3/4 272/3/4
f 273/1/4 274/1/4 275/1/4
f 275/1/4 274/1/4 276/1/4
f 277/1/4 278/1/4 281/1/4
f 281/1/4 278/1/4 282/1/4
f 279/3/4 280/3/4 283/3/4
f 283/3/4 280/3/4 284/3/4
f 285/3/4 286/3/4 287/3/4
f 287/3/4 286/3/4 288/3/4
f 289/3/4 290/3/4 291/3/4
f 291/3/4 290/3/4 292/3/4
f 293/3/4 294/3/4 295/3/4
f 295/3/4 294/3/4 296/3/4
f 297/3/4 298/3/4 299/3/4
f 299/3/4 298/3/4 300/3/4
f 301/3/4 302/3/4 303/3/4
f 303/3/4 302/3/4 304/3/4
f 308/3/5 306/3/5 305/3/5
f 309/3/5 306/3/5 308/3/5
f 312/3/5 308/3/5 307/3/5
f 312/3/5 310/3/5 309/3/5
f 312/3/5 309/3/5 308/3/5
f 313/3/5 310/3/5 312/3/5
f 315/3/5 312/3/5 311/3/5
f 315/3/5 314/3/5 313/3/5
f 315/3/5 313/3/5 312/3/5
f 316/3/5 314/3/5 315/3/5
f 317/3/5 314/3/5 316/3/5
f 318/3/5 314/3/5 317/3/5
f 319/3/5 317/3/5 316/3/5
f 320/3/5 317/3/5 319/3/5
f 321/3/5 317/3/5 320/3/5
f 322/3/5 317/3/5 321/3/5
f 323/3/5 321/3/5 320/3/5
f 324/3/5 321/3/5 323/3/5
f 328/3/5 326/3/5 325/3/5
f 329/3/5 326/3/5 328/3/5
f 330/3/5 326/3/5 329/3/5
f 331/3/5 326/3/5 330/3/5
f 334/3/5 328/3/5 327/3/5
f 334/3/5 329/3/5 328/3/5
f 335/3/5 329/3/5 334/3/5
f 336/3/5 329/3/5 335/3/5
f 337/3/5 331/3/5 330/3/5
f 337/3/5 332/3/5 331/3/5
f 338/3/5 332/3/5 337/3/5
f 339/3/5 332/3/5 338/3/5
f 341/3/5 335/3/5 334/3/5
f 341/3/5 334/3/5 333/3/5
f 342/3/5 335/3/5 341/3/5
f 343/3/5 340/3/5 339/3/5
f 343/3/5 339/3/5 338/3/5
f 344/3/5 340/3/5 343/3/5
f 345/3/5 341/3/5 333/3/5
f 348/3/5 340/3/5 344/3/5
f 349/3/5 346/3/5 345/3/5
f 349/3/5 345/3/5 333/3/5
f 350/3/5 346/3/5 349/3/5
f 351/3/5 346/3/5 350/3/5
f 354/3/5 348/3/5 347/3/5
f 355/3/5 340/3/5 348/3/5
f 355/3/5 348/3/5 354/3/5
f 356/3/5 340/3/5 355/3/5
f 357/3/5 352/3/5 351/3/5
f 357/3/5 351/3/5 350/3/5
f 358/3/5 352/3/5 357/3/5
f 359/3/5 352/3/5 358/3/5
f 360/3/5 354/3/5 353/3/5
f 360/3/5 355/3/5 354/3/5
f 361/3/5 355/3/5 360/3/5
f 362/3/5 355/3/5 361/3/5
f 363/3/5 359/3/5 358/3/5
f 363/3/5 361/3/5 360/3/5
f 363/3/5 360/3/5 359/3/5
f 364/3/5 361/3/5 363/3/5
f 365/3/6 366/3/6 368/3/6
f 368/3/6 366/3/6 369/3/6
f 369/3/6 366/3/6 370/3/6
f 370/3/6 366/3/6 371/3/6
f 371/3/6 366/3/6 372/3/6
f 372/3/6 366/3/6 373/3/6
f 367/3/6 368/3/6 376/3/6
f 368/3/6 369/3/6 376/3/6
f 376/3/6 369/3/6 377/3/6
f 369/2/6 370/2/6 378/2/6
f 377/3/6 369/3/6 378/3/6
f 370/1/6 371/1/6 379/1/6
f 378/2/6 370/2/6 379/2/6
f 371/2/6 372/2/6 380/2/6
f 379/1/6 371/1/6 380/1/6
f 373/3/6 374/3/6 381/3/6
f 380/2/6 372/2/6 381/2/6
f 372/3/6 373/3/6 381/3/6
f 381/3/6 374/3/6 382/3/6
f 382/3/6 374/3/6 383/3/6
f 375/3/6 376/3/6 385/3/6
f 376/3/6 377/3/6 385/3/6
f 385/3/6 377/3/6 386/3/6
f 379/2/6 380/2/6 387/2/6
f 378/2/6 379/2/6 387/2/6
f 387/2/6 380/2/6 388/2/6
f 388/2/6 380/2/6 389/2/6
f 381/2/6 382/2/6 390/2/6
f 383/3/6 384/3/6 391/3/6
f 382/3/6 383/3/6 391/3/6
f 390/2/6 382/2/6 391/2/6
f 391/3/6 384/3/6 392/3/6
f 385/2/6 386/2/6 393/2/6
f 386/2/6 387/2/6 393/2/6
f 393/2/6 387/2/6 394/2/6
f 389/2/6 390/2/6 395/2/6
f 388/2/6 389/2/6 395/2/6
f 395/2/6 390/2/6 396/2/6
f 390/1/6 391/1/6 397/1/6
f 396/2/6 390/2/6 397/2/6
f 391/2/6 392/2/6 398/2/6
f 397/1/6 391/1/6 398/1/6
f 385/2/6 393/2/6 399/2/6
f 394/2/6 395/2/6 400/2/6
f 395/2/6 396/2/6 400/2/6
f 400/2/6 396/2/6 401/2/6
f 401/2/6 396/2/6 402/2/6
f 397/2/6 398/2/6 403/2/6
f 398/2/6 392/2/6 404/2/6
f 403/2/6 398/2/6 404/2/6
f 375/3/6 385/3/6 405/3/6
f 385/2/6 399/2/6 405/2/6
f 399/1/6 400/1/6 406/1/6
f 405/2/6 399/2/6 406/2/6
f 400/2/6 401/2/6 407/2/6
f 406/1/6 400/1/6 407/1/6
f 407/2/6 401/2/6 408/2/6
f 402/2/6 403/2/6 409/2/6
f 409/2/6 403/2/6 410/2/6
f 404/2/6 392/2/6 411/2/6
f 392/3/6 384/3/6 412/3/6
f 411/2/6 392/2/6 412/2/6
f 405/3/6 406/3/6 413/3/6
f 375/3/6 405/3/6 413/3/6
f 413/3/6 406/3/6 414/3/6
f 406/2/6 407/2/6 415/2/6
f 414/3/6 406/3/6 415/3/6
f 415/2/6 407/2/6 416/2/6
f 408/1/6 409/1/6 417/1/6
f 417/1/6 409/1/6 418/1/6
f 410/1/6 411/1/6 419/1/6
f 411/3/6 412/3/6 420/3/6
f 419/1/6 411/1/6 420/1/6
f 412/3/6 384/3/6 421/3/6
f 420/3/6 412/3/6 421/3/6
f 421/3/6 384/3/6 422/3/6
f 415/3/6 416/3/6 423/3/6
f 414/3/6 415/3/6 423/3/6
f 423/3/6 416/3/6 424/3/6
f 417/2/6 418/2/6 425/2/6
f 424/3/6 416/3/6 425/3/6
f 418/2/6 419/2/6 425/2/6
f 416/2/6 417/2/6 425/2/6
f 419/3/6 420/3/6 426/3/6
f 425/2/6 419/2/6 426/2/6
f 420/3/6 421/3/6 426/3/6
f 426/3/6 421/3/6 427/3/6
f 427/3/6 421/3/6 428/3/6
f 424/3/6 425/3/6 429/3/6
f 426/3/6 427/3/6 429/3/6
f 425/3/6 426/3/6 429/3/6
f 429/3/6 427/3/6 430/3/6
f 431/1/6 432/1/6 435/1/6
f 435/1/6 432/1/6 436/1/6
f 433/1/6 434/1/6 438/1/6
f 438/1/6 434/1/6 439/1/6
f 436/1/6 437/1/6 441/1/6
f 441/1/6 437/1/6 442/1/6
f 440/1/6 441/1/6 445/1/6
f 445/1/6 441/1/6 446/1/6
f 443/1/6 444/1/6 448/1/6
f 448/1/6 444/1/6 449/1/6
f 447/1/6 448/1/6 452/1/6
f 452/1/6 448/1/6 453/1/6
f 449/1/6 450/1/6 454/1/6
f 454/1/6 450/1/6 455/1/6
f 451/1/6 452/1/6 456/1/6
f 456/1/6 452/1/6 457/1/6
f 453/1/6 454/1/6 458/1/6
f 458/1/6 454/1/6 459/1/6
