# MagicaVoxel @ Ephtracy

# group
o 

# material
mtllib comoda pasillo.mtl
usemtl palette

# normals
vn -1 0 0
vn 1 0 0
vn 0 0 1
vn 0 0 -1
vn 0 -1 0
vn 0 1 0

# texcoords
vt 0.240234 0.5
vt 0.267578 0.5
vt 0.431641 0.5

# verts
v 0 2.1 -2.4
v 0 2.1 -4
v 0 3.9 -2.4
v 0 3.9 -4
v 0.1 2 -2.5
v 0.1 2 -3.9
v 0.1 2.1 -2.5
v 0.1 2.1 -3.9
v 0.4 2.7 -2.4
v 0.4 2.7 -2.5
v 0.4 2.8 -2.4
v 0.4 2.8 -2.5
v 0.4 3.5 -2.4
v 0.4 3.5 -2.5
v 0.4 3.6 -2.4
v 0.4 3.6 -2.5
v 3.2 2.7 -2.4
v 3.2 2.7 -2.5
v 3.2 2.8 -2.4
v 3.2 2.8 -2.5
v 3.2 3.5 -2.4
v 3.2 3.5 -2.5
v 3.2 3.6 -2.4
v 3.2 3.6 -2.5
v 3.9 2.3 -2.4
v 3.9 2.3 -2.5
v 3.9 3 -2.4
v 3.9 3 -2.5
v 3.9 3.2 -2.4
v 3.9 3.2 -2.5
v 3.9 3.8 -2.4
v 3.9 3.8 -2.5
v 0.1 2.3 -2.4
v 0.1 2.3 -2.5
v 0.1 3 -2.4
v 0.1 3 -2.5
v 0.1 3.2 -2.4
v 0.1 3.2 -2.5
v 0.1 3.8 -2.4
v 0.1 3.8 -2.5
v 0.8 2.7 -2.4
v 0.8 2.7 -2.5
v 0.8 2.8 -2.4
v 0.8 2.8 -2.5
v 0.8 3.5 -2.4
v 0.8 3.5 -2.5
v 0.8 3.6 -2.4
v 0.8 3.6 -2.5
v 3.6 2.7 -2.4
v 3.6 2.7 -2.5
v 3.6 2.8 -2.4
v 3.6 2.8 -2.5
v 3.6 3.5 -2.4
v 3.6 3.5 -2.5
v 3.6 3.6 -2.4
v 3.6 3.6 -2.5
v 3.9 2 -2.5
v 3.9 2 -3.9
v 3.9 2.1 -2.5
v 3.9 2.1 -3.9
v 4 2.1 -2.4
v 4 2.1 -4
v 4 3.9 -2.4
v 4 3.9 -4
v 0 2.1 -2.4
v 0 3.9 -2.4
v 0.1 2.3 -2.4
v 0.1 3 -2.4
v 0.1 3.2 -2.4
v 0.1 3.8 -2.4
v 0.4 2.7 -2.4
v 0.4 2.8 -2.4
v 0.4 3.5 -2.4
v 0.4 3.6 -2.4
v 0.8 2.7 -2.4
v 0.8 2.8 -2.4
v 0.8 3.5 -2.4
v 0.8 3.6 -2.4
v 3.2 2.7 -2.4
v 3.2 2.8 -2.4
v 3.2 3.5 -2.4
v 3.2 3.6 -2.4
v 3.6 2.7 -2.4
v 3.6 2.8 -2.4
v 3.6 3.5 -2.4
v 3.6 3.6 -2.4
v 3.9 2.3 -2.4
v 3.9 3 -2.4
v 3.9 3.2 -2.4
v 3.9 3.8 -2.4
v 4 2.1 -2.4
v 4 3.9 -2.4
v 0.1 2 -2.5
v 0.1 2.1 -2.5
v 0.1 2.3 -2.5
v 0.1 3 -2.5
v 0.1 3.2 -2.5
v 0.1 3.8 -2.5
v 0.4 2.7 -2.5
v 0.4 2.8 -2.5
v 0.4 3.5 -2.5
v 0.4 3.6 -2.5
v 0.8 2.7 -2.5
v 0.8 2.8 -2.5
v 0.8 3.5 -2.5
v 0.8 3.6 -2.5
v 3.2 2.7 -2.5
v 3.2 2.8 -2.5
v 3.2 3.5 -2.5
v 3.2 3.6 -2.5
v 3.6 2.7 -2.5
v 3.6 2.8 -2.5
v 3.6 3.5 -2.5
v 3.6 3.6 -2.5
v 3.9 2 -2.5
v 3.9 2.1 -2.5
v 3.9 2.3 -2.5
v 3.9 3 -2.5
v 3.9 3.2 -2.5
v 3.9 3.8 -2.5
v 0.1 2 -3.9
v 0.1 2.1 -3.9
v 3.9 2 -3.9
v 3.9 2.1 -3.9
v 0 2.1 -4
v 0 3.9 -4
v 4 2.1 -4
v 4 3.9 -4
v 0.1 2 -2.5
v 3.9 2 -2.5
v 0.1 2 -3.9
v 3.9 2 -3.9
v 0 2.1 -2.4
v 4 2.1 -2.4
v 0.1 2.1 -2.5
v 3.9 2.1 -2.5
v 0.1 2.1 -3.9
v 3.9 2.1 -3.9
v 0 2.1 -4
v 4 2.1 -4
v 0.4 2.7 -2.4
v 0.8 2.7 -2.4
v 3.2 2.7 -2.4
v 3.6 2.7 -2.4
v 0.4 2.7 -2.5
v 0.8 2.7 -2.5
v 3.2 2.7 -2.5
v 3.6 2.7 -2.5
v 0.1 3 -2.4
v 3.9 3 -2.4
v 0.1 3 -2.5
v 3.9 3 -2.5
v 0.4 3.5 -2.4
v 0.8 3.5 -2.4
v 3.2 3.5 -2.4
v 3.6 3.5 -2.4
v 0.4 3.5 -2.5
v 0.8 3.5 -2.5
v 3.2 3.5 -2.5
v 3.6 3.5 -2.5
v 0.1 3.8 -2.4
v 3.9 3.8 -2.4
v 0.1 3.8 -2.5
v 3.9 3.8 -2.5
v 0.1 2.3 -2.4
v 3.9 2.3 -2.4
v 0.1 2.3 -2.5
v 3.9 2.3 -2.5
v 0.4 2.8 -2.4
v 0.8 2.8 -2.4
v 3.2 2.8 -2.4
v 3.6 2.8 -2.4
v 0.4 2.8 -2.5
v 0.8 2.8 -2.5
v 3.2 2.8 -2.5
v 3.6 2.8 -2.5
v 0.1 3.2 -2.4
v 3.9 3.2 -2.4
v 0.1 3.2 -2.5
v 3.9 3.2 -2.5
v 0.4 3.6 -2.4
v 0.8 3.6 -2.4
v 3.2 3.6 -2.4
v 3.6 3.6 -2.4
v 0.4 3.6 -2.5
v 0.8 3.6 -2.5
v 3.2 3.6 -2.5
v 3.6 3.6 -2.5
v 0 3.9 -2.4
v 4 3.9 -2.4
v 0 3.9 -4
v 4 3.9 -4

# faces
f 3/2/1 2/2/1 1/2/1
f 4/2/1 2/2/1 3/2/1
f 7/2/1 6/2/1 5/2/1
f 8/2/1 6/2/1 7/2/1
f 11/3/1 10/3/1 9/3/1
f 12/3/1 10/3/1 11/3/1
f 15/3/1 14/3/1 13/3/1
f 16/3/1 14/3/1 15/3/1
f 19/3/1 18/3/1 17/3/1
f 20/3/1 18/3/1 19/3/1
f 23/3/1 22/3/1 21/3/1
f 24/3/1 22/3/1 23/3/1
f 27/2/1 26/2/1 25/2/1
f 28/2/1 26/2/1 27/2/1
f 31/2/1 30/2/1 29/2/1
f 32/2/1 30/2/1 31/2/1
f 33/2/2 34/2/2 35/2/2
f 35/2/2 34/2/2 36/2/2
f 37/2/2 38/2/2 39/2/2
f 39/2/2 38/2/2 40/2/2
f 41/3/2 42/3/2 43/3/2
f 43/3/2 42/3/2 44/3/2
f 45/3/2 46/3/2 47/3/2
f 47/3/2 46/3/2 48/3/2
f 49/3/2 50/3/2 51/3/2
f 51/3/2 50/3/2 52/3/2
f 53/3/2 54/3/2 55/3/2
f 55/3/2 54/3/2 56/3/2
f 57/2/2 58/2/2 59/2/2
f 59/2/2 58/2/2 60/2/2
f 61/2/2 62/2/2 63/2/2
f 63/2/2 62/2/2 64/2/2
f 67/2/3 66/2/3 65/2/3
f 68/2/3 66/2/3 67/2/3
f 69/2/3 66/2/3 68/2/3
f 70/2/3 66/2/3 69/2/3
f 75/3/3 72/3/3 71/3/3
f 76/3/3 72/3/3 75/3/3
f 77/3/3 74/3/3 73/3/3
f 78/3/3 74/3/3 77/3/3
f 83/3/3 80/3/3 79/3/3
f 84/3/3 80/3/3 83/3/3
f 85/3/3 82/3/3 81/3/3
f 86/3/3 82/3/3 85/3/3
f 87/2/3 67/2/3 65/2/3
f 88/2/3 69/2/3 68/2/3
f 89/2/3 69/2/3 88/2/3
f 90/2/3 66/2/3 70/2/3
f 91/2/3 89/2/3 88/2/3
f 91/2/3 90/2/3 89/2/3
f 91/2/3 88/2/3 87/2/3
f 91/2/3 87/2/3 65/2/3
f 92/2/3 66/2/3 90/2/3
f 92/2/3 90/2/3 91/2/3
f 99/1/3 96/1/3 95/1/3
f 100/1/3 96/1/3 99/1/3
f 101/1/3 98/1/3 97/1/3
f 102/1/3 98/1/3 101/1/3
f 103/1/3 99/1/3 95/1/3
f 104/1/3 96/1/3 100/1/3
f 105/1/3 101/1/3 97/1/3
f 106/1/3 98/1/3 102/1/3
f 107/1/3 103/1/3 95/1/3
f 107/1/3 104/1/3 103/1/3
f 108/1/3 96/1/3 104/1/3
f 108/1/3 104/1/3 107/1/3
f 109/1/3 106/1/3 105/1/3
f 109/1/3 105/1/3 97/1/3
f 110/1/3 98/1/3 106/1/3
f 110/1/3 106/1/3 109/1/3
f 111/1/3 107/1/3 95/1/3
f 112/1/3 96/1/3 108/1/3
f 113/1/3 109/1/3 97/1/3
f 114/1/3 98/1/3 110/1/3
f 115/2/3 94/2/3 93/2/3
f 116/2/3 94/2/3 115/2/3
f 117/1/3 111/1/3 95/1/3
f 117/1/3 112/1/3 111/1/3
f 118/1/3 96/1/3 112/1/3
f 118/1/3 112/1/3 117/1/3
f 119/1/3 114/1/3 113/1/3
f 119/1/3 113/1/3 97/1/3
f 120/1/3 98/1/3 114/1/3
f 120/1/3 114/1/3 119/1/3
f 121/2/4 122/2/4 123/2/4
f 123/2/4 122/2/4 124/2/4
f 125/2/4 126/2/4 127/2/4
f 127/2/4 126/2/4 128/2/4
f 131/2/5 130/2/5 129/2/5
f 132/2/5 130/2/5 131/2/5
f 135/2/5 134/2/5 133/2/5
f 136/2/5 134/2/5 135/2/5
f 137/2/5 135/2/5 133/2/5
f 138/2/5 134/2/5 136/2/5
f 139/2/5 137/2/5 133/2/5
f 139/2/5 138/2/5 137/2/5
f 140/2/5 134/2/5 138/2/5
f 140/2/5 138/2/5 139/2/5
f 145/3/5 142/3/5 141/3/5
f 146/3/5 142/3/5 145/3/5
f 147/3/5 144/3/5 143/3/5
f 148/3/5 144/3/5 147/3/5
f 151/2/5 150/2/5 149/2/5
f 152/2/5 150/2/5 151/2/5
f 157/3/5 154/3/5 153/3/5
f 158/3/5 154/3/5 157/3/5
f 159/3/5 156/3/5 155/3/5
f 160/3/5 156/3/5 159/3/5
f 163/2/5 162/2/5 161/2/5
f 164/2/5 162/2/5 163/2/5
f 165/2/6 166/2/6 167/2/6
f 167/2/6 166/2/6 168/2/6
f 169/3/6 170/3/6 173/3/6
f 173/3/6 170/3/6 174/3/6
f 171/3/6 172/3/6 175/3/6
f 175/3/6 172/3/6 176/3/6
f 177/2/6 178/2/6 179/2/6
f 179/2/6 178/2/6 180/2/6
f 181/3/6 182/3/6 185/3/6
f 185/3/6 182/3/6 186/3/6
f 183/3/6 184/3/6 187/3/6
f 187/3/6 184/3/6 188/3/6
f 189/2/6 190/2/6 191/2/6
f 191/2/6 190/2/6 192/2/6
