# MagicaVoxel @ Ephtracy

# group
o 

# material
mtllib puerta.mtl
usemtl palette

# normals
vn -1 0 0
vn 1 0 0
vn 0 0 1
vn 0 0 -1
vn 0 -1 0
vn 0 1 0

# texcoords
vt 0.384766 0.5
vt 0.955078 0.5

# verts
v 0 2 0
v 0 2 -4
v 0 10 0
v 0 10 -4
v 0.2 4.5 -3.6
v 0.2 4.5 -3.7
v 0.2 4.6 -3.5
v 0.2 4.6 -3.6
v 0.2 4.6 -3.7
v 0.2 4.6 -3.8
v 0.2 4.7 -3.5
v 0.2 4.7 -3.6
v 0.2 4.7 -3.7
v 0.2 4.7 -3.8
v 0.2 4.8 -3.6
v 0.2 4.8 -3.7
v 0.3 4.5 -3.5
v 0.3 4.5 -3.6
v 0.3 4.5 -3.7
v 0.3 4.5 -3.8
v 0.3 4.6 -3.5
v 0.3 4.6 -3.6
v 0.3 4.6 -3.7
v 0.3 4.6 -3.8
v 0.3 4.7 -3.5
v 0.3 4.7 -3.6
v 0.3 4.7 -3.7
v 0.3 4.7 -3.8
v 0.3 4.8 -3.5
v 0.3 4.8 -3.6
v 0.3 4.8 -3.7
v 0.3 4.8 -3.8
v 0.1 2 0
v 0.1 2 -4
v 0.1 2.1 -0.1
v 0.1 2.1 -3.9
v 0.1 2.2 -0.2
v 0.1 2.2 -3.8
v 0.1 4.3 -0.2
v 0.1 4.3 -3.8
v 0.1 4.4 -0.1
v 0.1 4.4 -3.9
v 0.1 4.6 -3.6
v 0.1 4.6 -3.7
v 0.1 4.7 -3.6
v 0.1 4.7 -3.7
v 0.1 5 -0.1
v 0.1 5 -3.9
v 0.1 5.1 -0.2
v 0.1 5.1 -3.8
v 0.1 9.8 -0.2
v 0.1 9.8 -3.8
v 0.1 9.9 -0.1
v 0.1 9.9 -3.9
v 0.1 10 0
v 0.1 10 -4
v 0.2 2.1 -0.1
v 0.2 2.1 -3.9
v 0.2 2.2 -0.2
v 0.2 2.2 -3.8
v 0.2 4.3 -0.2
v 0.2 4.3 -3.8
v 0.2 4.4 -0.1
v 0.2 4.4 -3.9
v 0.2 5 -0.1
v 0.2 5 -3.9
v 0.2 5.1 -0.2
v 0.2 5.1 -3.8
v 0.2 9.8 -0.2
v 0.2 9.8 -3.8
v 0.2 9.9 -0.1
v 0.2 9.9 -3.9
v 0.4 4.5 -3.5
v 0.4 4.5 -3.6
v 0.4 4.5 -3.7
v 0.4 4.5 -3.8
v 0.4 4.6 -3.5
v 0.4 4.6 -3.6
v 0.4 4.6 -3.7
v 0.4 4.6 -3.8
v 0.4 4.7 -3.5
v 0.4 4.7 -3.6
v 0.4 4.7 -3.7
v 0.4 4.7 -3.8
v 0.4 4.8 -3.5
v 0.4 4.8 -3.6
v 0.4 4.8 -3.7
v 0.4 4.8 -3.8
v 0.5 4.5 -3.6
v 0.5 4.5 -3.7
v 0.5 4.6 -3.5
v 0.5 4.6 -3.6
v 0.5 4.6 -3.7
v 0.5 4.6 -3.8
v 0.5 4.7 -3.5
v 0.5 4.7 -3.6
v 0.5 4.7 -3.7
v 0.5 4.7 -3.8
v 0.5 4.8 -3.6
v 0.5 4.8 -3.7
v 0 2 0
v 0 10 0
v 0.1 2 0
v 0.1 10 0
v 0.1 2.1 -0.1
v 0.1 4.4 -0.1
v 0.1 5 -0.1
v 0.1 9.9 -0.1
v 0.2 2.1 -0.1
v 0.2 4.4 -0.1
v 0.2 5 -0.1
v 0.2 9.9 -0.1
v 0.2 4.6 -3.5
v 0.2 4.7 -3.5
v 0.3 4.5 -3.5
v 0.3 4.6 -3.5
v 0.3 4.7 -3.5
v 0.3 4.8 -3.5
v 0.4 4.5 -3.5
v 0.4 4.6 -3.5
v 0.4 4.7 -3.5
v 0.4 4.8 -3.5
v 0.5 4.6 -3.5
v 0.5 4.7 -3.5
v 0.1 4.6 -3.6
v 0.1 4.7 -3.6
v 0.2 4.5 -3.6
v 0.2 4.6 -3.6
v 0.2 4.7 -3.6
v 0.2 4.8 -3.6
v 0.3 4.5 -3.6
v 0.3 4.6 -3.6
v 0.3 4.7 -3.6
v 0.3 4.8 -3.6
v 0.4 4.5 -3.6
v 0.4 4.6 -3.6
v 0.4 4.7 -3.6
v 0.4 4.8 -3.6
v 0.5 4.5 -3.6
v 0.5 4.6 -3.6
v 0.5 4.7 -3.6
v 0.5 4.8 -3.6
v 0.1 2.2 -3.8
v 0.1 4.3 -3.8
v 0.1 5.1 -3.8
v 0.1 9.8 -3.8
v 0.2 2.2 -3.8
v 0.2 4.3 -3.8
v 0.2 5.1 -3.8
v 0.2 9.8 -3.8
v 0.1 2.2 -0.2
v 0.1 4.3 -0.2
v 0.1 5.1 -0.2
v 0.1 9.8 -0.2
v 0.2 2.2 -0.2
v 0.2 4.3 -0.2
v 0.2 5.1 -0.2
v 0.2 9.8 -0.2
v 0.1 4.6 -3.7
v 0.1 4.7 -3.7
v 0.2 4.5 -3.7
v 0.2 4.6 -3.7
v 0.2 4.7 -3.7
v 0.2 4.8 -3.7
v 0.3 4.5 -3.7
v 0.3 4.6 -3.7
v 0.3 4.7 -3.7
v 0.3 4.8 -3.7
v 0.4 4.5 -3.7
v 0.4 4.6 -3.7
v 0.4 4.7 -3.7
v 0.4 4.8 -3.7
v 0.5 4.5 -3.7
v 0.5 4.6 -3.7
v 0.5 4.7 -3.7
v 0.5 4.8 -3.7
v 0.2 4.6 -3.8
v 0.2 4.7 -3.8
v 0.3 4.5 -3.8
v 0.3 4.6 -3.8
v 0.3 4.7 -3.8
v 0.3 4.8 -3.8
v 0.4 4.5 -3.8
v 0.4 4.6 -3.8
v 0.4 4.7 -3.8
v 0.4 4.8 -3.8
v 0.5 4.6 -3.8
v 0.5 4.7 -3.8
v 0.1 2.1 -3.9
v 0.1 4.4 -3.9
v 0.1 5 -3.9
v 0.1 9.9 -3.9
v 0.2 2.1 -3.9
v 0.2 4.4 -3.9
v 0.2 5 -3.9
v 0.2 9.9 -3.9
v 0 2 -4
v 0 10 -4
v 0.1 2 -4
v 0.1 10 -4
v 0 2 0
v 0.1 2 0
v 0 2 -4
v 0.1 2 -4
v 0.1 2.1 -0.1
v 0.2 2.1 -0.1
v 0.1 2.1 -3.9
v 0.2 2.1 -3.9
v 0.1 4.3 -0.2
v 0.2 4.3 -0.2
v 0.1 4.3 -3.8
v 0.2 4.3 -3.8
v 0.3 4.5 -3.5
v 0.4 4.5 -3.5
v 0.2 4.5 -3.6
v 0.3 4.5 -3.6
v 0.4 4.5 -3.6
v 0.5 4.5 -3.6
v 0.2 4.5 -3.7
v 0.3 4.5 -3.7
v 0.4 4.5 -3.7
v 0.5 4.5 -3.7
v 0.3 4.5 -3.8
v 0.4 4.5 -3.8
v 0.2 4.6 -3.5
v 0.3 4.6 -3.5
v 0.4 4.6 -3.5
v 0.5 4.6 -3.5
v 0.1 4.6 -3.6
v 0.2 4.6 -3.6
v 0.3 4.6 -3.6
v 0.4 4.6 -3.6
v 0.5 4.6 -3.6
v 0.1 4.6 -3.7
v 0.2 4.6 -3.7
v 0.3 4.6 -3.7
v 0.4 4.6 -3.7
v 0.5 4.6 -3.7
v 0.2 4.6 -3.8
v 0.3 4.6 -3.8
v 0.4 4.6 -3.8
v 0.5 4.6 -3.8
v 0.1 5 -0.1
v 0.2 5 -0.1
v 0.1 5 -3.9
v 0.2 5 -3.9
v 0.1 9.8 -0.2
v 0.2 9.8 -0.2
v 0.1 9.8 -3.8
v 0.2 9.8 -3.8
v 0.1 2.2 -0.2
v 0.2 2.2 -0.2
v 0.1 2.2 -3.8
v 0.2 2.2 -3.8
v 0.1 4.4 -0.1
v 0.2 4.4 -0.1
v 0.1 4.4 -3.9
v 0.2 4.4 -3.9
v 0.2 4.7 -3.5
v 0.3 4.7 -3.5
v 0.4 4.7 -3.5
v 0.5 4.7 -3.5
v 0.1 4.7 -3.6
v 0.2 4.7 -3.6
v 0.3 4.7 -3.6
v 0.4 4.7 -3.6
v 0.5 4.7 -3.6
v 0.1 4.7 -3.7
v 0.2 4.7 -3.7
v 0.3 4.7 -3.7
v 0.4 4.7 -3.7
v 0.5 4.7 -3.7
v 0.2 4.7 -3.8
v 0.3 4.7 -3.8
v 0.4 4.7 -3.8
v 0.5 4.7 -3.8
v 0.3 4.8 -3.5
v 0.4 4.8 -3.5
v 0.2 4.8 -3.6
v 0.3 4.8 -3.6
v 0.4 4.8 -3.6
v 0.5 4.8 -3.6
v 0.2 4.8 -3.7
v 0.3 4.8 -3.7
v 0.4 4.8 -3.7
v 0.5 4.8 -3.7
v 0.3 4.8 -3.8
v 0.4 4.8 -3.8
v 0.1 5.1 -0.2
v 0.2 5.1 -0.2
v 0.1 5.1 -3.8
v 0.2 5.1 -3.8
v 0.1 9.9 -0.1
v 0.2 9.9 -0.1
v 0.1 9.9 -3.9
v 0.2 9.9 -3.9
v 0 10 0
v 0.1 10 0
v 0 10 -4
v 0.1 10 -4

# faces
f 3/2/1 2/2/1 1/2/1
f 4/2/1 2/2/1 3/2/1
f 8/1/1 6/1/1 5/1/1
f 9/1/1 6/1/1 8/1/1
f 11/1/1 8/1/1 7/1/1
f 12/1/1 8/1/1 11/1/1
f 13/1/1 10/1/1 9/1/1
f 14/1/1 10/1/1 13/1/1
f 15/1/1 13/1/1 12/1/1
f 16/1/1 13/1/1 15/1/1
f 21/1/1 18/1/1 17/1/1
f 22/1/1 18/1/1 21/1/1
f 23/1/1 20/1/1 19/1/1
f 24/1/1 20/1/1 23/1/1
f 29/1/1 26/1/1 25/1/1
f 30/1/1 26/1/1 29/1/1
f 31/1/1 28/1/1 27/1/1
f 32/1/1 28/1/1 31/1/1
f 33/2/2 34/2/2 35/2/2
f 35/2/2 34/2/2 36/2/2
f 37/2/2 38/2/2 39/2/2
f 39/2/2 38/2/2 40/2/2
f 33/2/2 35/2/2 41/2/2
f 36/2/2 34/2/2 42/2/2
f 41/2/2 42/2/2 43/2/2
f 43/2/2 42/2/2 44/2/2
f 41/2/2 43/2/2 45/2/2
f 44/2/2 42/2/2 46/2/2
f 33/2/2 41/2/2 47/2/2
f 45/2/2 46/2/2 47/2/2
f 41/2/2 45/2/2 47/2/2
f 46/2/2 42/2/2 48/2/2
f 47/2/2 46/2/2 48/2/2
f 42/2/2 34/2/2 48/2/2
f 49/2/2 50/2/2 51/2/2
f 51/2/2 50/2/2 52/2/2
f 33/2/2 47/2/2 53/2/2
f 48/2/2 34/2/2 54/2/2
f 33/2/2 53/2/2 55/2/2
f 53/2/2 54/2/2 55/2/2
f 54/2/2 34/2/2 56/2/2
f 55/2/2 54/2/2 56/2/2
f 57/2/2 58/2/2 59/2/2
f 59/2/2 58/2/2 60/2/2
f 57/2/2 59/2/2 61/2/2
f 60/2/2 58/2/2 62/2/2
f 57/2/2 61/2/2 63/2/2
f 61/2/2 62/2/2 63/2/2
f 62/2/2 58/2/2 64/2/2
f 63/2/2 62/2/2 64/2/2
f 65/2/2 66/2/2 67/2/2
f 67/2/2 66/2/2 68/2/2
f 65/2/2 67/2/2 69/2/2
f 68/2/2 66/2/2 70/2/2
f 65/2/2 69/2/2 71/2/2
f 69/2/2 70/2/2 71/2/2
f 70/2/2 66/2/2 72/2/2
f 71/2/2 70/2/2 72/2/2
f 73/1/2 74/1/2 77/1/2
f 77/1/2 74/1/2 78/1/2
f 75/1/2 76/1/2 79/1/2
f 79/1/2 76/1/2 80/1/2
f 81/1/2 82/1/2 85/1/2
f 85/1/2 82/1/2 86/1/2
f 83/1/2 84/1/2 87/1/2
f 87/1/2 84/1/2 88/1/2
f 89/1/2 90/1/2 92/1/2
f 92/1/2 90/1/2 93/1/2
f 91/1/2 92/1/2 95/1/2
f 93/1/2 94/1/2 95/1/2
f 92/1/2 93/1/2 95/1/2
f 95/1/2 94/1/2 96/1/2
f 96/1/2 94/1/2 97/1/2
f 97/1/2 94/1/2 98/1/2
f 96/1/2 97/1/2 99/1/2
f 99/1/2 97/1/2 100/1/2
f 103/2/3 102/2/3 101/2/3
f 104/2/3 102/2/3 103/2/3
f 109/2/3 106/2/3 105/2/3
f 110/2/3 106/2/3 109/2/3
f 111/2/3 108/2/3 107/2/3
f 112/2/3 108/2/3 111/2/3
f 116/1/3 114/1/3 113/1/3
f 117/1/3 114/1/3 116/1/3
f 119/1/3 116/1/3 115/1/3
f 119/1/3 118/1/3 117/1/3
f 119/1/3 117/1/3 116/1/3
f 120/1/3 118/1/3 119/1/3
f 121/1/3 118/1/3 120/1/3
f 122/1/3 118/1/3 121/1/3
f 123/1/3 121/1/3 120/1/3
f 124/1/3 121/1/3 123/1/3
f 128/1/3 126/1/3 125/1/3
f 129/1/3 126/1/3 128/1/3
f 131/1/3 128/1/3 127/1/3
f 132/1/3 128/1/3 131/1/3
f 133/1/3 130/1/3 129/1/3
f 134/1/3 130/1/3 133/1/3
f 139/1/3 136/1/3 135/1/3
f 140/1/3 136/1/3 139/1/3
f 141/1/3 138/1/3 137/1/3
f 142/1/3 138/1/3 141/1/3
f 147/2/3 144/2/3 143/2/3
f 148/2/3 144/2/3 147/2/3
f 149/2/3 146/2/3 145/2/3
f 150/2/3 146/2/3 149/2/3
f 151/2/4 152/2/4 155/2/4
f 155/2/4 152/2/4 156/2/4
f 153/2/4 154/2/4 157/2/4
f 157/2/4 154/2/4 158/2/4
f 159/1/4 160/1/4 162/1/4
f 162/1/4 160/1/4 163/1/4
f 161/1/4 162/1/4 165/1/4
f 165/1/4 162/1/4 166/1/4
f 163/1/4 164/1/4 167/1/4
f 167/1/4 164/1/4 168/1/4
f 169/1/4 170/1/4 173/1/4
f 173/1/4 170/1/4 174/1/4
f 171/1/4 172/1/4 175/1/4
f 175/1/4 172/1/4 176/1/4
f 177/1/4 178/1/4 180/1/4
f 180/1/4 178/1/4 181/1/4
f 179/1/4 180/1/4 183/1/4
f 181/1/4 182/1/4 183/1/4
f 180/1/4 181/1/4 183/1/4
f 183/1/4 182/1/4 184/1/4
f 184/1/4 182/1/4 185/1/4
f 185/1/4 182/1/4 186/1/4
f 184/1/4 185/1/4 187/1/4
f 187/1/4 185/1/4 188/1/4
f 189/2/4 190/2/4 193/2/4
f 193/2/4 190/2/4 194/2/4
f 191/2/4 192/2/4 195/2/4
f 195/2/4 192/2/4 196/2/4
f 197/2/4 198/2/4 199/2/4
f 199/2/4 198/2/4 200/2/4
f 203/2/5 202/2/5 201/2/5
f 204/2/5 202/2/5 203/2/5
f 207/2/5 206/2/5 205/2/5
f 208/2/5 206/2/5 207/2/5
f 211/2/5 210/2/5 209/2/5
f 212/2/5 210/2/5 211/2/5
f 216/1/5 214/1/5 213/1/5
f 217/1/5 214/1/5 216/1/5
f 219/1/5 216/1/5 215/1/5
f 219/1/5 218/1/5 217/1/5
f 219/1/5 217/1/5 216/1/5
f 220/1/5 218/1/5 219/1/5
f 221/1/5 218/1/5 220/1/5
f 222/1/5 218/1/5 221/1/5
f 223/1/5 221/1/5 220/1/5
f 224/1/5 221/1/5 223/1/5
f 230/1/5 226/1/5 225/1/5
f 231/1/5 226/1/5 230/1/5
f 232/1/5 228/1/5 227/1/5
f 233/1/5 228/1/5 232/1/5
f 234/1/5 230/1/5 229/1/5
f 235/1/5 230/1/5 234/1/5
f 239/1/5 236/1/5 235/1/5
f 240/1/5 236/1/5 239/1/5
f 241/1/5 238/1/5 237/1/5
f 242/1/5 238/1/5 241/1/5
f 245/2/5 244/2/5 243/2/5
f 246/2/5 244/2/5 245/2/5
f 249/2/5 248/2/5 247/2/5
f 250/2/5 248/2/5 249/2/5
f 251/2/6 252/2/6 253/2/6
f 253/2/6 252/2/6 254/2/6
f 255/2/6 256/2/6 257/2/6
f 257/2/6 256/2/6 258/2/6
f 259/1/6 260/1/6 264/1/6
f 264/1/6 260/1/6 265/1/6
f 261/1/6 262/1/6 266/1/6
f 266/1/6 262/1/6 267/1/6
f 263/1/6 264/1/6 268/1/6
f 268/1/6 264/1/6 269/1/6
f 269/1/6 270/1/6 273/1/6
f 273/1/6 270/1/6 274/1/6
f 271/1/6 272/1/6 275/1/6
f 275/1/6 272/1/6 276/1/6
f 277/1/6 278/1/6 280/1/6
f 280/1/6 278/1/6 281/1/6
f 279/1/6 280/1/6 283/1/6
f 281/1/6 282/1/6 283/1/6
f 280/1/6 281/1/6 283/1/6
f 283/1/6 282/1/6 284/1/6
f 284/1/6 282/1/6 285/1/6
f 285/1/6 282/1/6 286/1/6
f 284/1/6 285/1/6 287/1/6
f 287/1/6 285/1/6 288/1/6
f 289/2/6 290/2/6 291/2/6
f 291/2/6 290/2/6 292/2/6
f 293/2/6 294/2/6 295/2/6
f 295/2/6 294/2/6 296/2/6
f 297/2/6 298/2/6 299/2/6
f 299/2/6 298/2/6 300/2/6
