# MagicaVoxel @ Ephtracy

# group
o 

# material
mtllib puerta principal.mtl
usemtl palette

# normals
vn -1 0 0
vn 1 0 0
vn 0 0 1
vn 0 0 -1
vn 0 -1 0
vn 0 1 0

# texcoords
vt 0.384766 0.5
vt 0.431641 0.5
vt 0.458984 0.5
vt 0.955078 0.5

# verts
v 0 2 0
v 0 2 -4
v 0 7.6 -1.8
v 0 7.6 -2.1
v 0 7.7 -1.9
v 0 7.7 -2
v 0 7.8 -1.9
v 0 7.8 -2
v 0 7.9 -1.8
v 0 7.9 -2.1
v 0 10 0
v 0 10 -4
v 0.2 4.5 -3.6
v 0.2 4.5 -3.7
v 0.2 4.6 -3.5
v 0.2 4.6 -3.6
v 0.2 4.6 -3.7
v 0.2 4.6 -3.8
v 0.2 4.7 -3.5
v 0.2 4.7 -3.6
v 0.2 4.7 -3.7
v 0.2 4.7 -3.8
v 0.2 4.8 -3.6
v 0.2 4.8 -3.7
v 0.3 4.5 -3.5
v 0.3 4.5 -3.6
v 0.3 4.5 -3.7
v 0.3 4.5 -3.8
v 0.3 4.6 -3.5
v 0.3 4.6 -3.6
v 0.3 4.6 -3.7
v 0.3 4.6 -3.8
v 0.3 4.7 -3.5
v 0.3 4.7 -3.6
v 0.3 4.7 -3.7
v 0.3 4.7 -3.8
v 0.3 4.8 -3.5
v 0.3 4.8 -3.6
v 0.3 4.8 -3.7
v 0.3 4.8 -3.8
v 0.1 2 0
v 0.1 2 -4
v 0.1 2.1 -0.1
v 0.1 2.1 -3.9
v 0.1 2.2 -0.2
v 0.1 2.2 -3.8
v 0.1 4.3 -0.2
v 0.1 4.3 -3.8
v 0.1 4.4 -0.1
v 0.1 4.4 -1.2
v 0.1 4.4 -2.9
v 0.1 4.4 -3.9
v 0.1 4.6 -3.6
v 0.1 4.6 -3.7
v 0.1 4.7 -3.6
v 0.1 4.7 -3.7
v 0.1 4.9 -1.2
v 0.1 4.9 -2.9
v 0.1 5 -0.1
v 0.1 5 -3.9
v 0.1 5.1 -0.2
v 0.1 5.1 -3.8
v 0.1 7.6 -1.8
v 0.1 7.6 -2.1
v 0.1 7.7 -1.9
v 0.1 7.7 -2
v 0.1 7.8 -1.9
v 0.1 7.8 -2
v 0.1 7.9 -1.8
v 0.1 7.9 -2.1
v 0.1 9.8 -0.2
v 0.1 9.8 -3.8
v 0.1 9.9 -0.1
v 0.1 9.9 -3.9
v 0.1 10 0
v 0.1 10 -4
v 0.2 2.1 -0.1
v 0.2 2.1 -3.9
v 0.2 2.2 -0.2
v 0.2 2.2 -3.8
v 0.2 4.3 -0.2
v 0.2 4.3 -3.8
v 0.2 4.4 -0.1
v 0.2 4.4 -1.2
v 0.2 4.4 -2.9
v 0.2 4.4 -3.9
v 0.2 4.5 -1.3
v 0.2 4.5 -2.8
v 0.2 4.6 -1.3
v 0.2 4.6 -2.8
v 0.2 4.7 -1.3
v 0.2 4.7 -2.8
v 0.2 4.8 -1.3
v 0.2 4.8 -2.8
v 0.2 4.9 -1.2
v 0.2 4.9 -2.9
v 0.2 5 -0.1
v 0.2 5 -3.9
v 0.2 5.1 -0.2
v 0.2 5.1 -3.8
v 0.2 9.8 -0.2
v 0.2 9.8 -3.8
v 0.2 9.9 -0.1
v 0.2 9.9 -3.9
v 0.3 4.6 -1.3
v 0.3 4.6 -2.8
v 0.3 4.7 -1.3
v 0.3 4.7 -2.8
v 0.4 4.5 -3.5
v 0.4 4.5 -3.6
v 0.4 4.5 -3.7
v 0.4 4.5 -3.8
v 0.4 4.6 -3.5
v 0.4 4.6 -3.6
v 0.4 4.6 -3.7
v 0.4 4.6 -3.8
v 0.4 4.7 -3.5
v 0.4 4.7 -3.6
v 0.4 4.7 -3.7
v 0.4 4.7 -3.8
v 0.4 4.8 -3.5
v 0.4 4.8 -3.6
v 0.4 4.8 -3.7
v 0.4 4.8 -3.8
v 0.5 4.5 -3.6
v 0.5 4.5 -3.7
v 0.5 4.6 -3.5
v 0.5 4.6 -3.6
v 0.5 4.6 -3.7
v 0.5 4.6 -3.8
v 0.5 4.7 -3.5
v 0.5 4.7 -3.6
v 0.5 4.7 -3.7
v 0.5 4.7 -3.8
v 0.5 4.8 -3.6
v 0.5 4.8 -3.7
v 0 2 0
v 0 10 0
v 0.1 2 0
v 0.1 10 0
v 0.1 2.1 -0.1
v 0.1 4.4 -0.1
v 0.1 5 -0.1
v 0.1 9.9 -0.1
v 0.2 2.1 -0.1
v 0.2 4.4 -0.1
v 0.2 5 -0.1
v 0.2 9.9 -0.1
v 0.1 4.4 -1.2
v 0.1 4.9 -1.2
v 0.2 4.4 -1.2
v 0.2 4.9 -1.2
v 0.2 4.6 -1.3
v 0.2 4.7 -1.3
v 0.3 4.6 -1.3
v 0.3 4.7 -1.3
v 0.2 4.6 -3.5
v 0.2 4.7 -3.5
v 0.3 4.5 -3.5
v 0.3 4.6 -3.5
v 0.3 4.7 -3.5
v 0.3 4.8 -3.5
v 0.4 4.5 -3.5
v 0.4 4.6 -3.5
v 0.4 4.7 -3.5
v 0.4 4.8 -3.5
v 0.5 4.6 -3.5
v 0.5 4.7 -3.5
v 0.1 4.6 -3.6
v 0.1 4.7 -3.6
v 0.2 4.5 -3.6
v 0.2 4.6 -3.6
v 0.2 4.7 -3.6
v 0.2 4.8 -3.6
v 0.3 4.5 -3.6
v 0.3 4.6 -3.6
v 0.3 4.7 -3.6
v 0.3 4.8 -3.6
v 0.4 4.5 -3.6
v 0.4 4.6 -3.6
v 0.4 4.7 -3.6
v 0.4 4.8 -3.6
v 0.5 4.5 -3.6
v 0.5 4.6 -3.6
v 0.5 4.7 -3.6
v 0.5 4.8 -3.6
v 0.1 2.2 -3.8
v 0.1 4.3 -3.8
v 0.1 5.1 -3.8
v 0.1 9.8 -3.8
v 0.2 2.2 -3.8
v 0.2 4.3 -3.8
v 0.2 5.1 -3.8
v 0.2 9.8 -3.8
v 0.1 2.2 -0.2
v 0.1 4.3 -0.2
v 0.1 5.1 -0.2
v 0.1 9.8 -0.2
v 0.2 2.2 -0.2
v 0.2 4.3 -0.2
v 0.2 5.1 -0.2
v 0.2 9.8 -0.2
v 0.2 4.6 -2.8
v 0.2 4.7 -2.8
v 0.3 4.6 -2.8
v 0.3 4.7 -2.8
v 0.1 4.4 -2.9
v 0.1 4.9 -2.9
v 0.2 4.4 -2.9
v 0.2 4.9 -2.9
v 0.1 4.6 -3.7
v 0.1 4.7 -3.7
v 0.2 4.5 -3.7
v 0.2 4.6 -3.7
v 0.2 4.7 -3.7
v 0.2 4.8 -3.7
v 0.3 4.5 -3.7
v 0.3 4.6 -3.7
v 0.3 4.7 -3.7
v 0.3 4.8 -3.7
v 0.4 4.5 -3.7
v 0.4 4.6 -3.7
v 0.4 4.7 -3.7
v 0.4 4.8 -3.7
v 0.5 4.5 -3.7
v 0.5 4.6 -3.7
v 0.5 4.7 -3.7
v 0.5 4.8 -3.7
v 0.2 4.6 -3.8
v 0.2 4.7 -3.8
v 0.3 4.5 -3.8
v 0.3 4.6 -3.8
v 0.3 4.7 -3.8
v 0.3 4.8 -3.8
v 0.4 4.5 -3.8
v 0.4 4.6 -3.8
v 0.4 4.7 -3.8
v 0.4 4.8 -3.8
v 0.5 4.6 -3.8
v 0.5 4.7 -3.8
v 0.1 2.1 -3.9
v 0.1 4.4 -3.9
v 0.1 5 -3.9
v 0.1 9.9 -3.9
v 0.2 2.1 -3.9
v 0.2 4.4 -3.9
v 0.2 5 -3.9
v 0.2 9.9 -3.9
v 0 2 -4
v 0 10 -4
v 0.1 2 -4
v 0.1 10 -4
v 0 2 0
v 0.1 2 0
v 0 2 -4
v 0.1 2 -4
v 0.1 2.1 -0.1
v 0.2 2.1 -0.1
v 0.1 2.1 -3.9
v 0.2 2.1 -3.9
v 0.1 4.3 -0.2
v 0.2 4.3 -0.2
v 0.1 4.3 -3.8
v 0.2 4.3 -3.8
v 0.3 4.5 -3.5
v 0.4 4.5 -3.5
v 0.2 4.5 -3.6
v 0.3 4.5 -3.6
v 0.4 4.5 -3.6
v 0.5 4.5 -3.6
v 0.2 4.5 -3.7
v 0.3 4.5 -3.7
v 0.4 4.5 -3.7
v 0.5 4.5 -3.7
v 0.3 4.5 -3.8
v 0.4 4.5 -3.8
v 0.2 4.6 -1.3
v 0.3 4.6 -1.3
v 0.2 4.6 -2.8
v 0.3 4.6 -2.8
v 0.2 4.6 -3.5
v 0.3 4.6 -3.5
v 0.4 4.6 -3.5
v 0.5 4.6 -3.5
v 0.1 4.6 -3.6
v 0.2 4.6 -3.6
v 0.3 4.6 -3.6
v 0.4 4.6 -3.6
v 0.5 4.6 -3.6
v 0.1 4.6 -3.7
v 0.2 4.6 -3.7
v 0.3 4.6 -3.7
v 0.4 4.6 -3.7
v 0.5 4.6 -3.7
v 0.2 4.6 -3.8
v 0.3 4.6 -3.8
v 0.4 4.6 -3.8
v 0.5 4.6 -3.8
v 0.1 5 -0.1
v 0.2 5 -0.1
v 0.1 5 -3.9
v 0.2 5 -3.9
v 0.1 9.8 -0.2
v 0.2 9.8 -0.2
v 0.1 9.8 -3.8
v 0.2 9.8 -3.8
v 0.1 2.2 -0.2
v 0.2 2.2 -0.2
v 0.1 2.2 -3.8
v 0.2 2.2 -3.8
v 0.1 4.4 -0.1
v 0.2 4.4 -0.1
v 0.1 4.4 -1.2
v 0.2 4.4 -1.2
v 0.1 4.4 -2.9
v 0.2 4.4 -2.9
v 0.1 4.4 -3.9
v 0.2 4.4 -3.9
v 0.2 4.7 -1.3
v 0.3 4.7 -1.3
v 0.2 4.7 -2.8
v 0.3 4.7 -2.8
v 0.2 4.7 -3.5
v 0.3 4.7 -3.5
v 0.4 4.7 -3.5
v 0.5 4.7 -3.5
v 0.1 4.7 -3.6
v 0.2 4.7 -3.6
v 0.3 4.7 -3.6
v 0.4 4.7 -3.6
v 0.5 4.7 -3.6
v 0.1 4.7 -3.7
v 0.2 4.7 -3.7
v 0.3 4.7 -3.7
v 0.4 4.7 -3.7
v 0.5 4.7 -3.7
v 0.2 4.7 -3.8
v 0.3 4.7 -3.8
v 0.4 4.7 -3.8
v 0.5 4.7 -3.8
v 0.3 4.8 -3.5
v 0.4 4.8 -3.5
v 0.2 4.8 -3.6
v 0.3 4.8 -3.6
v 0.4 4.8 -3.6
v 0.5 4.8 -3.6
v 0.2 4.8 -3.7
v 0.3 4.8 -3.7
v 0.4 4.8 -3.7
v 0.5 4.8 -3.7
v 0.3 4.8 -3.8
v 0.4 4.8 -3.8
v 0.1 4.9 -1.2
v 0.2 4.9 -1.2
v 0.1 4.9 -2.9
v 0.2 4.9 -2.9
v 0.1 5.1 -0.2
v 0.2 5.1 -0.2
v 0.1 5.1 -3.8
v 0.2 5.1 -3.8
v 0.1 9.9 -0.1
v 0.2 9.9 -0.1
v 0.1 9.9 -3.9
v 0.2 9.9 -3.9
v 0 10 0
v 0.1 10 0
v 0 10 -4
v 0.1 10 -4

# faces
f 3/4/1 2/4/1 1/4/1
f 4/4/1 2/4/1 3/4/1
f 5/3/1 4/3/1 3/3/1
f 6/3/1 4/3/1 5/3/1
f 7/3/1 5/3/1 3/3/1
f 7/2/1 6/2/1 5/2/1
f 8/3/1 4/3/1 6/3/1
f 8/2/1 6/2/1 7/2/1
f 9/4/1 3/4/1 1/4/1
f 9/3/1 7/3/1 3/3/1
f 9/3/1 8/3/1 7/3/1
f 10/3/1 4/3/1 8/3/1
f 10/3/1 8/3/1 9/3/1
f 10/4/1 2/4/1 4/4/1
f 11/4/1 9/4/1 1/4/1
f 11/4/1 10/4/1 9/4/1
f 12/4/1 2/4/1 10/4/1
f 12/4/1 10/4/1 11/4/1
f 16/1/1 14/1/1 13/1/1
f 17/1/1 14/1/1 16/1/1
f 19/1/1 16/1/1 15/1/1
f 20/1/1 16/1/1 19/1/1
f 21/1/1 18/1/1 17/1/1
f 22/1/1 18/1/1 21/1/1
f 23/1/1 21/1/1 20/1/1
f 24/1/1 21/1/1 23/1/1
f 29/1/1 26/1/1 25/1/1
f 30/1/1 26/1/1 29/1/1
f 31/1/1 28/1/1 27/1/1
f 32/1/1 28/1/1 31/1/1
f 37/1/1 34/1/1 33/1/1
f 38/1/1 34/1/1 37/1/1
f 39/1/1 36/1/1 35/1/1
f 40/1/1 36/1/1 39/1/1
f 41/4/2 42/4/2 43/4/2
f 43/4/2 42/4/2 44/4/2
f 45/4/2 46/4/2 47/4/2
f 47/4/2 46/4/2 48/4/2
f 41/4/2 43/4/2 49/4/2
f 44/4/2 42/4/2 52/4/2
f 51/4/2 52/4/2 53/4/2
f 53/4/2 52/4/2 54/4/2
f 51/4/2 53/4/2 55/4/2
f 54/4/2 52/4/2 56/4/2
f 49/4/2 50/4/2 57/4/2
f 55/4/2 56/4/2 58/4/2
f 51/4/2 55/4/2 58/4/2
f 49/4/2 57/4/2 59/4/2
f 57/4/2 58/4/2 59/4/2
f 41/4/2 49/4/2 59/4/2
f 58/4/2 56/4/2 60/4/2
f 59/4/2 58/4/2 60/4/2
f 52/4/2 42/4/2 60/4/2
f 56/4/2 52/4/2 60/4/2
f 61/4/2 62/4/2 63/4/2
f 63/4/2 62/4/2 64/4/2
f 63/3/2 64/3/2 65/3/2
f 65/3/2 64/3/2 66/3/2
f 63/3/2 65/3/2 67/3/2
f 65/2/2 66/2/2 67/2/2
f 66/3/2 64/3/2 68/3/2
f 67/2/2 66/2/2 68/2/2
f 61/4/2 63/4/2 69/4/2
f 63/3/2 67/3/2 69/3/2
f 67/3/2 68/3/2 69/3/2
f 68/3/2 64/3/2 70/3/2
f 69/3/2 68/3/2 70/3/2
f 64/4/2 62/4/2 70/4/2
f 61/4/2 69/4/2 71/4/2
f 69/4/2 70/4/2 71/4/2
f 70/4/2 62/4/2 72/4/2
f 71/4/2 70/4/2 72/4/2
f 41/4/2 59/4/2 73/4/2
f 60/4/2 42/4/2 74/4/2
f 41/4/2 73/4/2 75/4/2
f 73/4/2 74/4/2 75/4/2
f 74/4/2 42/4/2 76/4/2
f 75/4/2 74/4/2 76/4/2
f 77/4/2 78/4/2 79/4/2
f 79/4/2 78/4/2 80/4/2
f 77/4/2 79/4/2 81/4/2
f 80/4/2 78/4/2 82/4/2
f 77/4/2 81/4/2 83/4/2
f 81/4/2 82/4/2 83/4/2
f 83/4/2 82/4/2 84/4/2
f 84/4/2 82/4/2 85/4/2
f 82/4/2 78/4/2 86/4/2
f 85/4/2 82/4/2 86/4/2
f 84/2/2 85/2/2 87/2/2
f 87/2/2 85/2/2 88/2/2
f 84/2/2 87/2/2 89/2/2
f 87/3/2 88/3/2 89/3/2
f 88/2/2 85/2/2 90/2/2
f 89/3/2 88/3/2 90/3/2
f 84/2/2 89/2/2 91/2/2
f 90/2/2 85/2/2 92/2/2
f 84/2/2 91/2/2 93/2/2
f 91/3/2 92/3/2 93/3/2
f 92/2/2 85/2/2 94/2/2
f 93/3/2 92/3/2 94/3/2
f 84/2/2 93/2/2 95/2/2
f 93/2/2 94/2/2 95/2/2
f 94/2/2 85/2/2 96/2/2
f 95/2/2 94/2/2 96/2/2
f 97/4/2 98/4/2 99/4/2
f 99/4/2 98/4/2 100/4/2
f 97/4/2 99/4/2 101/4/2
f 100/4/2 98/4/2 102/4/2
f 97/4/2 101/4/2 103/4/2
f 101/4/2 102/4/2 103/4/2
f 102/4/2 98/4/2 104/4/2
f 103/4/2 102/4/2 104/4/2
f 105/3/2 106/3/2 107/3/2
f 107/3/2 106/3/2 108/3/2
f 109/1/2 110/1/2 113/1/2
f 113/1/2 110/1/2 114/1/2
f 111/1/2 112/1/2 115/1/2
f 115/1/2 112/1/2 116/1/2
f 117/1/2 118/1/2 121/1/2
f 121/1/2 118/1/2 122/1/2
f 119/1/2 120/1/2 123/1/2
f 123/1/2 120/1/2 124/1/2
f 125/1/2 126/1/2 128/1/2
f 128/1/2 126/1/2 129/1/2
f 127/1/2 128/1/2 131/1/2
f 129/1/2 130/1/2 131/1/2
f 128/1/2 129/1/2 131/1/2
f 131/1/2 130/1/2 132/1/2
f 132/1/2 130/1/2 133/1/2
f 133/1/2 130/1/2 134/1/2
f 132/1/2 133/1/2 135/1/2
f 135/1/2 133/1/2 136/1/2
f 139/4/3 138/4/3 137/4/3
f 140/4/3 138/4/3 139/4/3
f 145/4/3 142/4/3 141/4/3
f 146/4/3 142/4/3 145/4/3
f 147/4/3 144/4/3 143/4/3
f 148/4/3 144/4/3 147/4/3
f 151/2/3 150/2/3 149/2/3
f 152/2/3 150/2/3 151/2/3
f 155/3/3 154/3/3 153/3/3
f 156/3/3 154/3/3 155/3/3
f 160/1/3 158/1/3 157/1/3
f 161/1/3 158/1/3 160/1/3
f 163/1/3 160/1/3 159/1/3
f 163/1/3 162/1/3 161/1/3
f 163/1/3 161/1/3 160/1/3
f 164/1/3 162/1/3 163/1/3
f 165/1/3 162/1/3 164/1/3
f 166/1/3 162/1/3 165/1/3
f 167/1/3 165/1/3 164/1/3
f 168/1/3 165/1/3 167/1/3
f 172/1/3 170/1/3 169/1/3
f 173/1/3 170/1/3 172/1/3
f 175/1/3 172/1/3 171/1/3
f 176/1/3 172/1/3 175/1/3
f 177/1/3 174/1/3 173/1/3
f 178/1/3 174/1/3 177/1/3
f 183/1/3 180/1/3 179/1/3
f 184/1/3 180/1/3 183/1/3
f 185/1/3 182/1/3 181/1/3
f 186/1/3 182/1/3 185/1/3
f 191/4/3 188/4/3 187/4/3
f 192/4/3 188/4/3 191/4/3
f 193/4/3 190/4/3 189/4/3
f 194/4/3 190/4/3 193/4/3
f 195/4/4 196/4/4 199/4/4
f 199/4/4 196/4/4 200/4/4
f 197/4/4 198/4/4 201/4/4
f 201/4/4 198/4/4 202/4/4
f 203/3/4 204/3/4 205/3/4
f 205/3/4 204/3/4 206/3/4
f 207/2/4 208/2/4 209/2/4
f 209/2/4 208/2/4 210/2/4
f 211/1/4 212/1/4 214/1/4
f 214/1/4 212/1/4 215/1/4
f 213/1/4 214/1/4 217/1/4
f 217/1/4 214/1/4 218/1/4
f 215/1/4 216/1/4 219/1/4
f 219/1/4 216/1/4 220/1/4
f 221/1/4 222/1/4 225/1/4
f 225/1/4 222/1/4 226/1/4
f 223/1/4 224/1/4 227/1/4
f 227/1/4 224/1/4 228/1/4
f 229/1/4 230/1/4 232/1/4
f 232/1/4 230/1/4 233/1/4
f 231/1/4 232/1/4 235/1/4
f 233/1/4 234/1/4 235/1/4
f 232/1/4 233/1/4 235/1/4
f 235/1/4 234/1/4 236/1/4
f 236/1/4 234/1/4 237/1/4
f 237/1/4 234/1/4 238/1/4
f 236/1/4 237/1/4 239/1/4
f 239/1/4 237/1/4 240/1/4
f 241/4/4 242/4/4 245/4/4
f 245/4/4 242/4/4 246/4/4
f 243/4/4 244/4/4 247/4/4
f 247/4/4 244/4/4 248/4/4
f 249/4/4 250/4/4 251/4/4
f 251/4/4 250/4/4 252/4/4
f 255/4/5 254/4/5 253/4/5
f 256/4/5 254/4/5 255/4/5
f 259/4/5 258/4/5 257/4/5
f 260/4/5 258/4/5 259/4/5
f 263/4/5 262/4/5 261/4/5
f 264/4/5 262/4/5 263/4/5
f 268/1/5 266/1/5 265/1/5
f 269/1/5 266/1/5 268/1/5
f 271/1/5 268/1/5 267/1/5
f 271/1/5 270/1/5 269/1/5
f 271/1/5 269/1/5 268/1/5
f 272/1/5 270/1/5 271/1/5
f 273/1/5 270/1/5 272/1/5
f 274/1/5 270/1/5 273/1/5
f 275/1/5 273/1/5 272/1/5
f 276/1/5 273/1/5 275/1/5
f 279/3/5 278/3/5 277/3/5
f 280/3/5 278/3/5 279/3/5
f 286/1/5 282/1/5 281/1/5
f 287/1/5 282/1/5 286/1/5
f 288/1/5 284/1/5 283/1/5
f 289/1/5 284/1/5 288/1/5
f 290/1/5 286/1/5 285/1/5
f 291/1/5 286/1/5 290/1/5
f 295/1/5 292/1/5 291/1/5
f 296/1/5 292/1/5 295/1/5
f 297/1/5 294/1/5 293/1/5
f 298/1/5 294/1/5 297/1/5
f 301/4/5 300/4/5 299/4/5
f 302/4/5 300/4/5 301/4/5
f 305/4/5 304/4/5 303/4/5
f 306/4/5 304/4/5 305/4/5
f 307/4/6 308/4/6 309/4/6
f 309/4/6 308/4/6 310/4/6
f 311/4/6 312/4/6 313/4/6
f 313/4/6 312/4/6 314/4/6
f 315/4/6 316/4/6 317/4/6
f 317/4/6 316/4/6 318/4/6
f 319/3/6 320/3/6 321/3/6
f 321/3/6 320/3/6 322/3/6
f 323/1/6 324/1/6 328/1/6
f 328/1/6 324/1/6 329/1/6
f 325/1/6 326/1/6 330/1/6
f 330/1/6 326/1/6 331/1/6
f 327/1/6 328/1/6 332/1/6
f 332/1/6 328/1/6 333/1/6
f 333/1/6 334/1/6 337/1/6
f 337/1/6 334/1/6 338/1/6
f 335/1/6 336/1/6 339/1/6
f 339/1/6 336/1/6 340/1/6
f 341/1/6 342/1/6 344/1/6
f 344/1/6 342/1/6 345/1/6
f 343/1/6 344/1/6 347/1/6
f 345/1/6 346/1/6 347/1/6
f 344/1/6 345/1/6 347/1/6
f 347/1/6 346/1/6 348/1/6
f 348/1/6 346/1/6 349/1/6
f 349/1/6 346/1/6 350/1/6
f 348/1/6 349/1/6 351/1/6
f 351/1/6 349/1/6 352/1/6
f 353/2/6 354/2/6 355/2/6
f 355/2/6 354/2/6 356/2/6
f 357/4/6 358/4/6 359/4/6
f 359/4/6 358/4/6 360/4/6
f 361/4/6 362/4/6 363/4/6
f 363/4/6 362/4/6 364/4/6
f 365/4/6 366/4/6 367/4/6
f 367/4/6 366/4/6 368/4/6
